{
.appVersion = "3418";
.formatVersion = 3;
DisplayStrings = (
n,
a,
j,
" u",
u,
"/u.new",
O,
k,
"ㄍ",
"ㄅ"
);
customParameters = (
{
name = glyphOrder;
value = (
A,
B,
C,
D,
E,
F,
G,
H,
I,
J,
K,
L,
M,
N,
O,
P,
Q,
R,
S,
T,
U,
V,
W,
X,
Y,
Z,
a,
b,
c,
d,
e,
f,
g,
h,
i,
j,
k,
l,
m,
n,
o,
p,
q,
r,
s,
t,
u,
v,
w,
x,
y,
z,
space
);
}
);
date = "2025-06-15 21:07:14 +0000";
familyName = BoPoMoFont;
fontMaster = (
{
id = m01;
metricValues = (
{
over = 16;
pos = 800;
},
{
over = 16;
pos = 700;
},
{
over = 16;
pos = 500;
},
{
over = -16;
},
{
over = -16;
pos = -200;
},
{
}
);
name = Regular;
userData = {
layerinfo.color = "1,0.75,0,0.7";
};
},
{
iconName = Bold;
id = "897933B7-C84C-4064-92EC-D6ECCFA4703E";
metricValues = (
{
over = 16;
pos = 800;
},
{
over = 16;
pos = 700;
},
{
over = 16;
pos = 500;
},
{
over = -16;
},
{
over = -16;
pos = -200;
},
{
}
);
name = Black;
userData = {
layerinfo.color = "1,0.75,0,0.7";
};
},
{
iconName = Light_Extended;
id = "2374D0AB-F754-483B-81AF-B87FF6AEB1B2";
metricValues = (
{
over = 16;
pos = 800;
},
{
over = 16;
pos = 700;
},
{
over = 16;
pos = 500;
},
{
over = -16;
},
{
over = -16;
pos = -200;
},
{
}
);
name = Thin;
userData = {
layerinfo.color = "1,0.75,0,0.7";
};
},
{
id = "25766E5E-5561-4FF8-A834-795F30B85D44";
metricValues = (
{
over = 16;
pos = 800;
},
{
over = 16;
pos = 700;
},
{
over = 16;
pos = 500;
},
{
over = -16;
},
{
over = -16;
pos = 200;
},
{
}
);
name = Regular;
userData = {
layerinfo.color = "1,0.75,0,0.7";
};
}
);
glyphs = (
{
glyphname = A;
lastChange = "2025-07-15 02:38:07 +0000";
layers = (
{
layerId = "2374D0AB-F754-483B-81AF-B87FF6AEB1B2";
shapes = (
{
closed = 1;
nodes = (
(503,178,l),
(203,178,l),
(137,0,l),
(10,0,l),
(286,709,l),
(425,709,l),
(701,0,l),
(570,0,l)
);
},
{
closed = 1;
nodes = (
(245,289,l),
(461,289,l),
(353,579,l)
);
}
);
userData = {
public.truetype.instructions = {
formatVersion = "1";
id = "w711l570+0l503+178l203+178l137+0l10+0l286+709l425+709l701+0|l353+579l245+289l461+289|";
};
};
width = 711;
},
{
layerId = m01;
shapes = (
{
closed = 1;
nodes = (
(137,0,l),
(203,178,l),
(503,178,l),
(570,0,l),
(701,0,l),
(425,709,l),
(286,709,l),
(10,0,l)
);
},
{
closed = 1;
nodes = (
(353,579,l),
(461,289,l),
(245,289,l)
);
}
);
userData = {
public.truetype.instructions = {
formatVersion = "1";
id = "w711l570+0l503+178l203+178l137+0l10+0l286+709l425+709l701+0|l353+579l245+289l461+289|";
};
};
width = 711;
},
{
layerId = "897933B7-C84C-4064-92EC-D6ECCFA4703E";
shapes = (
{
closed = 1;
nodes = (
(275,711,l),
(5,0,l),
(207,0,l),
(253,136,l),
(519,136,l),
(566,0,l),
(770,0,l),
(502,711,l)
);
},
{
closed = 1;
nodes = (
(459,307,l),
(313,307,l),
(386,517,l)
);
}
);
userData = {
public.truetype.instructions = {
formatVersion = "1";
id = "w711l570+0l503+178l203+178l137+0l10+0l286+709l425+709l701+0|l353+579l245+289l461+289|";
};
};
width = 775;
},
{
layerId = "25766E5E-5561-4FF8-A834-795F30B85D44";
shapes = (
{
closed = 1;
nodes = (
(137,0,l),
(203,178,l),
(503,178,l),
(570,0,l),
(701,0,l),
(425,709,l),
(286,709,l),
(10,0,l)
);
},
{
closed = 1;
nodes = (
(353,579,l),
(461,289,l),
(245,289,l)
);
}
);
userData = {
public.truetype.instructions = {
formatVersion = "1";
id = "w711l570+0l503+178l203+178l137+0l10+0l286+709l425+709l701+0|l353+579l245+289l461+289|";
};
};
width = 711;
}
);
unicode = 65;
},
{
glyphname = B;
lastChange = "2025-07-15 02:38:07 +0000";
layers = (
{
layerId = "2374D0AB-F754-483B-81AF-B87FF6AEB1B2";
shapes = (
{
closed = 1;
nodes = (
(329,709,l),
(429,709,o),
(545,603,o),
(545,518,q),
(545,463,o),
(487,382,o),
(440,365,q),
(497,350,o),
(567,258,o),
(567,196,q),
(567,110,o),
(445,0,o),
(347,0,q),
(85,0,l),
(85,709,l)
);
},
{
closed = 1;
nodes = (
(313,409,l),
(365,409,o),
(425,463,o),
(425,508,q),
(425,554,o),
(364,607,o),
(310,607,q),
(204,607,l),
(204,409,l)
);
},
{
closed = 1;
nodes = (
(326,102,l),
(380,102,o),
(445,157,o),
(445,251,o),
(384,308,o),
(330,308,q),
(204,308,l),
(204,102,l)
);
}
);
userData = {
public.truetype.instructions = {
formatVersion = "1";
id = d2692efea932ca91ad66916e4c578e20c3a5b934c59955534f40a2b2732ea3384fcfe9d2824215ceda49329e52d7bba67d5a2c7ccfb394301af537325fa8879a;
};
};
width = 607;
},
{
layerId = m01;
shapes = (
{
closed = 1;
nodes = (
(347,0,ls),
(445,0,o),
(567,110,o),
(567,196,qs),
(567,258,o),
(497,350,o),
(440,365,q),
(487,382,o),
(545,463,o),
(545,518,qs),
(545,603,o),
(429,709,o),
(329,709,qs),
(85,709,l),
(85,0,l)
);
},
{
closed = 1;
nodes = (
(204,308,l),
(330,308,ls),
(384,308,o),
(445,251,o),
(445,157,o),
(380,102,o),
(326,102,qs),
(204,102,l)
);
},
{
closed = 1;
nodes = (
(204,607,l),
(310,607,ls),
(364,607,o),
(425,554,o),
(425,508,qs),
(425,463,o),
(365,409,o),
(313,409,qs),
(204,409,l)
);
}
);
userData = {
public.truetype.instructions = {
formatVersion = "1";
id = d2692efea932ca91ad66916e4c578e20c3a5b934c59955534f40a2b2732ea3384fcfe9d2824215ceda49329e52d7bba67d5a2c7ccfb394301af537325fa8879a;
};
};
width = 607;
},
{
layerId = "897933B7-C84C-4064-92EC-D6ECCFA4703E";
shapes = (
{
closed = 1;
nodes = (
(50,0,l),
(387,0,ls),
(575,0,o),
(658,78,o),
(658,204,cs),
(658,273,o),
(612,333,o),
(549,356,c),
(605,384,o),
(644,437,o),
(644,506,cs),
(644,631,o),
(559,709,o),
(369,709,cs),
(50,709,l)
);
},
{
closed = 1;
nodes = (
(431,278,o),
(460,257,o),
(460,217,cs),
(460,176,o),
(431,156,o),
(376,156,cs),
(243,157,l),
(243,278,l),
(376,278,ls)
);
},
{
closed = 1;
nodes = (
(417,552,o),
(444,532,o),
(444,494,cs),
(444,454,o),
(417,434,o),
(364,434,cs),
(243,434,l),
(243,552,l),
(365,552,ls)
);
}
);
width = 683;
},
{
layerId = "25766E5E-5561-4FF8-A834-795F30B85D44";
shapes = (
{
closed = 1;
nodes = (
(347,0,ls),
(445,0,o),
(567,110,o),
(567,196,qs),
(567,258,o),
(497,350,o),
(440,365,q),
(487,382,o),
(545,463,o),
(545,518,qs),
(545,603,o),
(429,709,o),
(329,709,qs),
(85,709,l),
(85,0,l)
);
},
{
closed = 1;
nodes = (
(204,308,l),
(330,308,ls),
(384,308,o),
(445,251,o),
(445,157,o),
(380,102,o),
(326,102,qs),
(204,102,l)
);
},
{
closed = 1;
nodes = (
(204,607,l),
(310,607,ls),
(364,607,o),
(425,554,o),
(425,508,qs),
(425,463,o),
(365,409,o),
(313,409,qs),
(204,409,l)
);
}
);
userData = {
public.truetype.instructions = {
formatVersion = "1";
id = d2692efea932ca91ad66916e4c578e20c3a5b934c59955534f40a2b2732ea3384fcfe9d2824215ceda49329e52d7bba67d5a2c7ccfb394301af537325fa8879a;
};
};
width = 607;
}
);
unicode = 66;
},
{
glyphname = C;
lastChange = "2025-07-15 02:38:07 +0000";
layers = (
{
layerId = "2374D0AB-F754-483B-81AF-B87FF6AEB1B2";
shapes = (
{
closed = 1;
nodes = (
(251,-15,o),
(42,187,o),
(42,354,q),
(42,520,o),
(254,724,o),
(399,724,q),
(527,724,o),
(692,594,o),
(718,494,q),
(605,456,l),
(588,525,o),
(484,611,o),
(399,611,q),
(304,611,o),
(165,476,o),
(165,354,q),
(165,235,o),
(303,100,o),
(400,100,q),
(483,100,o),
(591,190,o),
(611,256,q),
(721,220,l),
(695,121,o),
(528,-15,o),
(400,-15,q)
);
}
);
userData = {
public.truetype.instructions = {
formatVersion = "1";
id = 361929ed1205b15b247bf5b9eeae6c789f4dd6c76e274cfe5f4f60d4ebf3348e83ff50d2c8f58234ee3c6792697d28ce232aafa60978262e1b026fb628a451c9;
};
};
width = 758;
},
{
layerId = m01;
shapes = (
{
closed = 1;
nodes = (
(528,-15,o),
(695,121,o),
(721,220,q),
(611,256,l),
(591,190,o),
(483,100,o),
(400,100,qs),
(303,100,o),
(165,235,o),
(165,354,qs),
(165,476,o),
(304,611,o),
(399,611,qs),
(484,611,o),
(588,525,o),
(605,456,q),
(718,494,l),
(692,594,o),
(527,724,o),
(399,724,qs),
(254,724,o),
(42,520,o),
(42,354,qs),
(42,187,o),
(251,-15,o),
(400,-15,qs)
);
}
);
userData = {
public.truetype.instructions = {
formatVersion = "1";
id = 361929ed1205b15b247bf5b9eeae6c789f4dd6c76e274cfe5f4f60d4ebf3348e83ff50d2c8f58234ee3c6792697d28ce232aafa60978262e1b026fb628a451c9;
};
};
width = 758;
},
{
layerId = "897933B7-C84C-4064-92EC-D6ECCFA4703E";
shapes = (
{
closed = 1;
nodes = (
(180,711,o),
(25,559,o),
(25,343,cs),
(25,126,o),
(180,-26,o),
(400,-26,cs),
(541,-26,o),
(650,37,o),
(717,138,c),
(558,248,l),
(520,189,o),
(465,159,o),
(398,159,cs),
(310,159,o),
(226,221,o),
(226,343,cs),
(226,451,o),
(299,527,o),
(397,527,cs),
(466,527,o),
(519,496,o),
(554,437,c),
(725,531,l),
(663,645,o),
(539,711,o),
(400,711,cs)
);
}
);
userData = {
public.truetype.instructions = {
formatVersion = "1";
id = 361929ed1205b15b247bf5b9eeae6c789f4dd6c76e274cfe5f4f60d4ebf3348e83ff50d2c8f58234ee3c6792697d28ce232aafa60978262e1b026fb628a451c9;
};
};
width = 745;
},
{
layerId = "25766E5E-5561-4FF8-A834-795F30B85D44";
shapes = (
{
closed = 1;
nodes = (
(528,-15,o),
(695,121,o),
(721,220,q),
(611,256,l),
(591,190,o),
(483,100,o),
(400,100,qs),
(303,100,o),
(165,235,o),
(165,354,qs),
(165,476,o),
(304,611,o),
(399,611,qs),
(484,611,o),
(588,525,o),
(605,456,q),
(718,494,l),
(692,594,o),
(527,724,o),
(399,724,qs),
(254,724,o),
(42,520,o),
(42,354,qs),
(42,187,o),
(251,-15,o),
(400,-15,qs)
);
}
);
userData = {
public.truetype.instructions = {
formatVersion = "1";
id = 361929ed1205b15b247bf5b9eeae6c789f4dd6c76e274cfe5f4f60d4ebf3348e83ff50d2c8f58234ee3c6792697d28ce232aafa60978262e1b026fb628a451c9;
};
};
width = 758;
}
);
unicode = 67;
},
{
glyphname = D;
lastChange = "2025-07-15 02:38:07 +0000";
layers = (
{
layerId = "2374D0AB-F754-483B-81AF-B87FF6AEB1B2";
shapes = (
{
closed = 1;
nodes = (
(331,110,l),
(429,110,o),
(556,235,o),
(556,353,q),
(556,472,o),
(430,599,o),
(332,599,q),
(205,599,l),
(205,110,l)
);
},
{
closed = 1;
nodes = (
(85,0,l),
(85,709,l),
(336,709,l),
(486,709,o),
(681,519,o),
(681,353,q),
(681,188,o),
(485,0,o),
(335,0,q)
);
}
);
userData = {
public.truetype.instructions = {
formatVersion = "1";
id = 3cf8d4bd8f7024ea209912769e9281c640948b96b7c3ba0ad18a9de6458b798a7fed0cadedf291aa14f886644cd329bc3e76b89845b5460047b4e91f0c81e1b1;
};
};
width = 722;
},
{
layerId = m01;
shapes = (
{
closed = 1;
nodes = (
(335,0,ls),
(485,0,o),
(681,188,o),
(681,353,qs),
(681,519,o),
(486,709,o),
(336,709,qs),
(85,709,l),
(85,0,l)
);
},
{
closed = 1;
nodes = (
(205,599,l),
(332,599,ls),
(430,599,o),
(556,472,o),
(556,353,qs),
(556,235,o),
(429,110,o),
(331,110,qs),
(205,110,l)
);
}
);
userData = {
public.truetype.instructions = {
formatVersion = "1";
id = 3cf8d4bd8f7024ea209912769e9281c640948b96b7c3ba0ad18a9de6458b798a7fed0cadedf291aa14f886644cd329bc3e76b89845b5460047b4e91f0c81e1b1;
};
};
width = 722;
},
{
layerId = "897933B7-C84C-4064-92EC-D6ECCFA4703E";
shapes = (
{
closed = 1;
nodes = (
(50,711,l),
(50,0,l),
(364,0,ls),
(586,0,o),
(733,141,o),
(733,356,cs),
(733,570,o),
(586,711,o),
(364,711,cs)
);
},
{
closed = 1;
nodes = (
(476,534,o),
(532,460,o),
(532,356,cs),
(532,253,o),
(476,177,o),
(359,177,cs),
(243,177,l),
(243,534,l),
(359,534,ls)
);
}
);
width = 758;
},
{
layerId = "25766E5E-5561-4FF8-A834-795F30B85D44";
shapes = (
{
closed = 1;
nodes = (
(335,0,ls),
(485,0,o),
(681,188,o),
(681,353,qs),
(681,519,o),
(486,709,o),
(336,709,qs),
(85,709,l),
(85,0,l)
);
},
{
closed = 1;
nodes = (
(205,599,l),
(332,599,ls),
(430,599,o),
(556,472,o),
(556,353,qs),
(556,235,o),
(429,110,o),
(331,110,qs),
(205,110,l)
);
}
);
userData = {
public.truetype.instructions = {
formatVersion = "1";
id = 3cf8d4bd8f7024ea209912769e9281c640948b96b7c3ba0ad18a9de6458b798a7fed0cadedf291aa14f886644cd329bc3e76b89845b5460047b4e91f0c81e1b1;
};
};
width = 722;
}
);
unicode = 68;
},
{
glyphname = E;
lastChange = "2025-07-15 02:38:07 +0000";
layers = (
{
layerId = "2374D0AB-F754-483B-81AF-B87FF6AEB1B2";
shapes = (
{
closed = 1;
nodes = (
(85,0,l),
(85,709,l),
(523,709,l),
(523,597,l),
(205,597,l),
(205,409,l),
(493,409,l),
(493,300,l),
(205,300,l),
(205,112,l),
(523,112,l),
(523,0,l)
);
}
);
userData = {
public.truetype.instructions = {
formatVersion = "1";
id = "w582l523+0l85+0l85+709l523+709l523+597l205+597l205+409l493+409l493+300l205+300l205+112l523+112|";
};
};
width = 582;
},
{
layerId = m01;
shapes = (
{
closed = 1;
nodes = (
(523,0,l),
(523,112,l),
(205,112,l),
(205,300,l),
(493,300,l),
(493,409,l),
(205,409,l),
(205,597,l),
(523,597,l),
(523,709,l),
(85,709,l),
(85,0,l)
);
}
);
userData = {
public.truetype.instructions = {
formatVersion = "1";
id = "w582l523+0l85+0l85+709l523+709l523+597l205+597l205+409l493+409l493+300l205+300l205+112l523+112|";
};
};
width = 582;
},
{
layerId = "897933B7-C84C-4064-92EC-D6ECCFA4703E";
shapes = (
{
closed = 1;
nodes = (
(243,171,l),
(243,273,l),
(569,273,l),
(569,445,l),
(243,445,l),
(243,538,l),
(595,538,l),
(595,710,l),
(50,710,l),
(50,0,l),
(595,0,l),
(595,171,l)
);
}
);
width = 635;
},
{
layerId = "25766E5E-5561-4FF8-A834-795F30B85D44";
shapes = (
{
closed = 1;
nodes = (
(523,0,l),
(523,112,l),
(205,112,l),
(205,300,l),
(493,300,l),
(493,409,l),
(205,409,l),
(205,597,l),
(523,597,l),
(523,709,l),
(85,709,l),
(85,0,l)
);
}
);
userData = {
public.truetype.instructions = {
formatVersion = "1";
id = "w582l523+0l85+0l85+709l523+709l523+597l205+597l205+409l493+409l493+300l205+300l205+112l523+112|";
};
};
width = 582;
}
);
unicode = 69;
},
{
glyphname = F;
lastChange = "2025-07-15 02:38:07 +0000";
layers = (
{
layerId = "2374D0AB-F754-483B-81AF-B87FF6AEB1B2";
shapes = (
{
closed = 1;
nodes = (
(85,0,l),
(85,709,l),
(526,709,l),
(526,596,l),
(205,596,l),
(205,397,l),
(493,397,l),
(493,286,l),
(205,286,l),
(205,0,l)
);
}
);
userData = {
public.truetype.instructions = {
formatVersion = "1";
id = "w557l205+0l85+0l85+709l526+709l526+596l205+596l205+397l493+397l493+286l205+286|";
};
};
width = 557;
},
{
layerId = m01;
shapes = (
{
closed = 1;
nodes = (
(205,0,l),
(205,286,l),
(493,286,l),
(493,397,l),
(205,397,l),
(205,596,l),
(526,596,l),
(526,709,l),
(85,709,l),
(85,0,l)
);
}
);
userData = {
public.truetype.instructions = {
formatVersion = "1";
id = "w557l205+0l85+0l85+709l526+709l526+596l205+596l205+397l493+397l493+286l205+286|";
};
};
width = 557;
},
{
layerId = "897933B7-C84C-4064-92EC-D6ECCFA4703E";
shapes = (
{
closed = 1;
nodes = (
(240,424,l),
(240,531,l),
(592,531,l),
(592,700,l),
(50,700,l),
(50,0,l),
(240,0,l),
(240,255,l),
(567,255,l),
(567,424,l)
);
}
);
width = 622;
},
{
layerId = "25766E5E-5561-4FF8-A834-795F30B85D44";
shapes = (
{
closed = 1;
nodes = (
(205,0,l),
(205,286,l),
(493,286,l),
(493,397,l),
(205,397,l),
(205,596,l),
(526,596,l),
(526,709,l),
(85,709,l),
(85,0,l)
);
}
);
userData = {
public.truetype.instructions = {
formatVersion = "1";
id = "w557l205+0l85+0l85+709l526+709l526+596l205+596l205+397l493+397l493+286l205+286|";
};
};
width = 557;
}
);
unicode = 70;
},
{
glyphname = G;
lastChange = "2025-07-15 02:38:07 +0000";
layers = (
{
layerId = "2374D0AB-F754-483B-81AF-B87FF6AEB1B2";
shapes = (
{
closed = 1;
nodes = (
(367,359,l),
(367,254,l),
(601,254,l),
(595,196,o),
(494,95,o),
(398,95,qs),
(300,95,o),
(164,232,o),
(164,355,qs),
(164,479,o),
(304,613,o),
(399,613,qs),
(479,613,o),
(587,529,o),
(606,465,q),
(719,508,l),
(689,602,o),
(522,724,o),
(399,724,qs),
(305,724,o),
(145,639,o),
(42,467,o),
(42,355,qs),
(42,186,o),
(246,-15,o),
(391,-15,qs),
(529,-15,o),
(626,84,q),
(626,83,ls),
(626,32,o),
(717,0,o),
(765,0,cs),
(779,0,l),
(779,104,l),
(775,104,ls),
(743,104,o),
(723,126,o),
(723,156,cs),
(723,324,l),
(724,341,o),
(724,359,q)
);
},
{
closed = 1;
nodes = (
(723,358,l),
(626,84,l),
(626,84,l)
);
}
);
userData = {
public.truetype.instructions = {
formatVersion = "1";
id = bcbb13dfe5eed883e3be36537e233dacef0fe64e9342da9854657b3bc54103600ab909e14ab921b1030898d2962d2a0470998d1bfc530ec42fdaf470f0828302;
};
};
width = 834;
},
{
layerId = m01;
shapes = (
{
closed = 1;
nodes = (
(529,-15,o),
(626,84,q),
(626,83,ls),
(626,32,o),
(717,0,o),
(765,0,cs),
(779,0,l),
(779,104,l),
(775,104,ls),
(743,104,o),
(723,126,o),
(723,156,cs),
(723,324,ls),
(724,341,o),
(724,359,q),
(367,359,l),
(367,254,l),
(601,254,l),
(595,196,o),
(494,95,o),
(398,95,qs),
(300,95,o),
(164,232,o),
(164,355,qs),
(164,479,o),
(304,613,o),
(399,613,qs),
(479,613,o),
(587,529,o),
(606,465,q),
(719,508,l),
(689,602,o),
(522,724,o),
(399,724,qs),
(305,724,o),
(145,639,o),
(42,467,o),
(42,355,qs),
(42,186,o),
(246,-15,o),
(391,-15,qs)
);
},
{
closed = 1;
nodes = (
(626,84,l),
(626,84,l)
);
}
);
userData = {
public.truetype.instructions = {
formatVersion = "1";
id = bcbb13dfe5eed883e3be36537e233dacef0fe64e9342da9854657b3bc54103600ab909e14ab921b1030898d2962d2a0470998d1bfc530ec42fdaf470f0828302;
};
};
width = 834;
},
{
layerId = "897933B7-C84C-4064-92EC-D6ECCFA4703E";
shapes = (
{
closed = 1;
nodes = (
(641,83,ls),
(641,32,o),
(732,0,o),
(780,0,cs),
(794,0,l),
(794,154,l),
(790,154,ls),
(758,154,o),
(738,176,o),
(738,206,cs),
(738,324,ls),
(738,385,o),
(739,403,q),
(636,403,l),
(641,84,l)
);
},
{
closed = 1;
nodes = (
(641,84,l),
(641,84,l)
);
},
{
closed = 1;
nodes = (
(180,715,o),
(25,565,o),
(25,352,cs),
(25,140,o),
(180,-10,o),
(400,-10,cs),
(565,-10,o),
(738,107,o),
(738,340,cs),
(738,360,o),
(737,381,o),
(734,403,c),
(386,403,l),
(386,264,l),
(550,264,l),
(530,196,o),
(480,161,o),
(392,161,cs),
(302,161,o),
(220,225,o),
(220,352,cs),
(220,462,o),
(290,538,o),
(389,538,cs),
(448,538,o),
(491,517,o),
(522,486,c),
(656,618,l),
(597,679,o),
(511,715,o),
(400,715,cs)
);
}
);
userData = {
public.truetype.instructions = {
formatVersion = "1";
id = bcbb13dfe5eed883e3be36537e233dacef0fe64e9342da9854657b3bc54103600ab909e14ab921b1030898d2962d2a0470998d1bfc530ec42fdaf470f0828302;
};
};
width = 824;
},
{
layerId = "25766E5E-5561-4FF8-A834-795F30B85D44";
shapes = (
{
closed = 1;
nodes = (
(529,-15,o),
(626,84,q),
(626,83,ls),
(626,32,o),
(717,0,o),
(765,0,cs),
(779,0,l),
(779,104,l),
(775,104,ls),
(743,104,o),
(723,126,o),
(723,156,cs),
(723,324,ls),
(724,341,o),
(724,359,q),
(367,359,l),
(367,254,l),
(601,254,l),
(595,196,o),
(494,95,o),
(398,95,qs),
(300,95,o),
(164,232,o),
(164,355,qs),
(164,479,o),
(304,613,o),
(399,613,qs),
(479,613,o),
(587,529,o),
(606,465,q),
(719,508,l),
(689,602,o),
(522,724,o),
(399,724,qs),
(305,724,o),
(145,639,o),
(42,467,o),
(42,355,qs),
(42,186,o),
(246,-15,o),
(391,-15,qs)
);
},
{
closed = 1;
nodes = (
(626,84,l),
(626,84,l)
);
}
);
userData = {
public.truetype.instructions = {
formatVersion = "1";
id = bcbb13dfe5eed883e3be36537e233dacef0fe64e9342da9854657b3bc54103600ab909e14ab921b1030898d2962d2a0470998d1bfc530ec42fdaf470f0828302;
};
};
width = 834;
}
);
unicode = 71;
},
{
glyphname = H;
lastChange = "2025-07-15 02:38:07 +0000";
layers = (
{
layerId = "2374D0AB-F754-483B-81AF-B87FF6AEB1B2";
shapes = (
{
closed = 1;
nodes = (
(130,0,l),
(130,363,l),
(644,363,l),
(644,0,l),
(656,0,l),
(656,728,l),
(644,728,l),
(644,375,l),
(130,375,l),
(130,728,l),
(118,728,l),
(118,0,l)
);
}
);
width = 774;
},
{
layerId = m01;
shapes = (
{
closed = 1;
nodes = (
(205,0,l),
(205,303,l),
(538,303,l),
(538,0,l),
(659,0,l),
(659,709,l),
(538,709,l),
(538,416,l),
(205,416,l),
(205,709,l),
(85,709,l),
(85,0,l)
);
}
);
userData = {
public.truetype.instructions = {
formatVersion = "1";
id = "w744l659+0l538+0l538+303l205+303l205+0l85+0l85+709l205+709l205+416l538+416l538+709l659+709|";
};
};
width = 744;
},
{
layerId = "897933B7-C84C-4064-92EC-D6ECCFA4703E";
shapes = (
{
closed = 1;
nodes = (
(50,700,l),
(50,0,l),
(240,0,l),
(240,267,l),
(499,267,l),
(499,0,l),
(689,0,l),
(689,700,l),
(499,700,l),
(499,441,l),
(240,441,l),
(240,700,l)
);
}
);
width = 739;
},
{
layerId = "25766E5E-5561-4FF8-A834-795F30B85D44";
shapes = (
{
closed = 1;
nodes = (
(205,0,l),
(205,303,l),
(538,303,l),
(538,0,l),
(659,0,l),
(659,709,l),
(538,709,l),
(538,416,l),
(205,416,l),
(205,709,l),
(85,709,l),
(85,0,l)
);
}
);
userData = {
public.truetype.instructions = {
formatVersion = "1";
id = "w744l659+0l538+0l538+303l205+303l205+0l85+0l85+709l205+709l205+416l538+416l538+709l659+709|";
};
};
width = 744;
}
);
unicode = 72;
},
{
glyphname = I;
lastChange = "2025-07-15 02:38:07 +0000";
layers = (
{
layerId = "2374D0AB-F754-483B-81AF-B87FF6AEB1B2";
shapes = (
{
closed = 1;
nodes = (
(85,0,l),
(85,709,l),
(207,709,l),
(207,0,l)
);
}
);
userData = {
public.truetype.instructions = {
formatVersion = "1";
id = "w292l207+0l85+0l85+709l207+709|";
};
};
width = 292;
},
{
layerId = m01;
shapes = (
{
closed = 1;
nodes = (
(207,0,l),
(207,709,l),
(85,709,l),
(85,0,l)
);
}
);
userData = {
public.truetype.instructions = {
formatVersion = "1";
id = "w292l207+0l85+0l85+709l207+709|";
};
};
width = 292;
},
{
layerId = "897933B7-C84C-4064-92EC-D6ECCFA4703E";
shapes = (
{
closed = 1;
nodes = (
(50,700,l),
(50,0,l),
(240,0,l),
(240,700,l)
);
}
);
width = 290;
},
{
layerId = "25766E5E-5561-4FF8-A834-795F30B85D44";
shapes = (
{
closed = 1;
nodes = (
(207,0,l),
(207,709,l),
(85,709,l),
(85,0,l)
);
}
);
userData = {
public.truetype.instructions = {
formatVersion = "1";
id = "w292l207+0l85+0l85+709l207+709|";
};
};
width = 292;
}
);
unicode = 73;
},
{
glyphname = J;
lastChange = "2025-07-15 02:38:07 +0000";
layers = (
{
layerId = "2374D0AB-F754-483B-81AF-B87FF6AEB1B2";
shapes = (
{
closed = 1;
nodes = (
(20,260,l),
(137,260,l),
(137,218,l),
(137,158,o),
(197,98,o),
(246,98,q),
(294,98,o),
(350,159,o),
(350,213,q),
(350,709,l),
(470,709,l),
(470,216,l),
(470,119,o),
(346,-15,o),
(247,-15,q),
(143,-15,o),
(20,110,o),
(20,214,q)
);
}
);
userData = {
public.truetype.instructions = {
formatVersion = "1";
id = d3fed825f764593ca21fa46647a1a9def8ddb7eb13b4609b5d599d9440ee26fa685a452c9c5f3136eb857b93f893c94c81b4ccdc5e7028e3032e7df03d4eb885;
};
};
width = 547;
},
{
layerId = m01;
shapes = (
{
closed = 1;
nodes = (
(346,-15,o),
(470,119,o),
(470,216,qs),
(470,709,l),
(350,709,l),
(350,213,ls),
(350,159,o),
(294,98,o),
(246,98,qs),
(197,98,o),
(137,158,o),
(137,218,qs),
(137,260,l),
(20,260,l),
(20,214,ls),
(20,110,o),
(143,-15,o),
(247,-15,qs)
);
}
);
userData = {
public.truetype.instructions = {
formatVersion = "1";
id = d3fed825f764593ca21fa46647a1a9def8ddb7eb13b4609b5d599d9440ee26fa685a452c9c5f3136eb857b93f893c94c81b4ccdc5e7028e3032e7df03d4eb885;
};
};
width = 547;
},
{
layerId = "897933B7-C84C-4064-92EC-D6ECCFA4703E";
shapes = (
{
closed = 1;
nodes = (
(346,-15,o),
(502,119,o),
(500,216,qs),
(500,709,l),
(322,709,l),
(322,278,ls),
(322,239,o),
(282,195,o),
(247,195,qs),
(211,195,o),
(168,240,o),
(168,283,qs),
(168,281,l),
(0,279,l),
(0,214,ls),
(0,110,o),
(143,-15,o),
(247,-15,qs)
);
}
);
userData = {
public.truetype.instructions = {
formatVersion = "1";
id = d3fed825f764593ca21fa46647a1a9def8ddb7eb13b4609b5d599d9440ee26fa685a452c9c5f3136eb857b93f893c94c81b4ccdc5e7028e3032e7df03d4eb885;
};
};
width = 545;
},
{
layerId = "25766E5E-5561-4FF8-A834-795F30B85D44";
shapes = (
{
closed = 1;
nodes = (
(346,-15,o),
(470,119,o),
(470,216,qs),
(470,709,l),
(350,709,l),
(350,213,ls),
(350,159,o),
(294,98,o),
(246,98,qs),
(197,98,o),
(137,158,o),
(137,218,qs),
(137,260,l),
(20,260,l),
(20,214,ls),
(20,110,o),
(143,-15,o),
(247,-15,qs)
);
}
);
userData = {
public.truetype.instructions = {
formatVersion = "1";
id = d3fed825f764593ca21fa46647a1a9def8ddb7eb13b4609b5d599d9440ee26fa685a452c9c5f3136eb857b93f893c94c81b4ccdc5e7028e3032e7df03d4eb885;
};
};
width = 547;
}
);
unicode = 74;
},
{
glyphname = K;
lastChange = "2025-07-15 02:38:07 +0000";
layers = (
{
layerId = "2374D0AB-F754-483B-81AF-B87FF6AEB1B2";
shapes = (
{
closed = 1;
nodes = (
(85,0,l),
(200,0,l),
(200,335,l),
(253,335,ls),
(364,335,o),
(477,269,o),
(477,156,cs),
(477,0,l),
(590,0,l),
(590,154,ls),
(590,261,o),
(545,328,o),
(473,380,c),
(606,709,l),
(477,709,l),
(366,429,l),
(341,435,o),
(284,439,o),
(257,439,cs),
(200,439,l),
(200,709,l),
(85,709,l)
);
}
);
width = 633;
},
{
anchors = (
{
name = "Anchor-2";
pos = (324,0);
}
);
layerId = m01;
shapes = (
{
closed = 1;
nodes = (
(200,0,l),
(80,0,l),
(80,709,l),
(200,709,l),
(200,385,l),
(491,709,l),
(636,709,l),
(200,228,l)
);
},
{
closed = 1;
nodes = (
(297,338,l),
(374,422,l),
(652,0,l),
(508,0,l)
);
}
);
userData = {
public.truetype.instructions = {
assembly = "NPUSHB[ ]	/* 35 values pushed */
10 7 2 1 4 0 1 1 76 2 1 1 1 45 77 4 3 2 0 0 46 0 78 0 0 0 11 0 11 18 17 19 5 9 25
CALL[ ]	/* CallFunction */";
formatVersion = "1";
id = "w679l508+0l298+324l200+218l200+0l67+0l67+700l200+700l200+395l481+700l646+700l389+422l672+0|";
};
};
width = 679;
},
{
layerId = "897933B7-C84C-4064-92EC-D6ECCFA4703E";
shapes = (
{
closed = 1;
nodes = (
(725,0,l),
(449,359,l),
(703,700,l),
(472,700,l),
(295,437,l),
(240,437,l),
(240,700,l),
(50,700,l),
(50,0,l),
(240,0,l),
(240,268,l),
(294,268,l),
(492,0,l)
);
}
);
width = 715;
},
{
anchors = (
{
name = "Anchor-2";
pos = (324,0);
}
);
layerId = "25766E5E-5561-4FF8-A834-795F30B85D44";
shapes = (
{
closed = 1;
nodes = (
(200,0,l),
(80,0,l),
(80,709,l),
(200,709,l),
(200,385,l),
(491,709,l),
(636,709,l),
(200,228,l)
);
},
{
closed = 1;
nodes = (
(297,338,l),
(374,422,l),
(652,0,l),
(508,0,l)
);
}
);
userData = {
public.truetype.instructions = {
assembly = "NPUSHB[ ]	/* 35 values pushed */
10 7 2 1 4 0 1 1 76 2 1 1 1 45 77 4 3 2 0 0 46 0 78 0 0 0 11 0 11 18 17 19 5 9 25
CALL[ ]	/* CallFunction */";
formatVersion = "1";
id = "w679l508+0l298+324l200+218l200+0l67+0l67+700l200+700l200+395l481+700l646+700l389+422l672+0|";
};
};
width = 679;
}
);
unicode = 75;
},
{
glyphname = L;
lastChange = "2025-07-15 02:38:07 +0000";
layers = (
{
layerId = "2374D0AB-F754-483B-81AF-B87FF6AEB1B2";
shapes = (
{
closed = 1;
nodes = (
(85,0,l),
(85,709,l),
(205,709,l),
(205,114,l),
(530,114,l),
(530,0,l)
);
}
);
userData = {
public.truetype.instructions = {
formatVersion = "1";
id = "w555l530+0l85+0l85+709l205+709l205+114l530+114|";
};
};
width = 555;
},
{
layerId = m01;
shapes = (
{
closed = 1;
nodes = (
(85,0,l),
(85,709,l),
(205,709,l),
(205,114,l),
(530,114,l),
(530,0,l)
);
}
);
userData = {
public.truetype.instructions = {
formatVersion = "1";
id = "w555l530+0l85+0l85+709l205+709l205+114l530+114|";
};
};
width = 555;
},
{
layerId = "897933B7-C84C-4064-92EC-D6ECCFA4703E";
shapes = (
{
closed = 1;
nodes = (
(240,175,l),
(240,700,l),
(50,700,l),
(50,0,l),
(577,0,l),
(577,175,l)
);
}
);
width = 587;
},
{
layerId = "25766E5E-5561-4FF8-A834-795F30B85D44";
shapes = (
{
closed = 1;
nodes = (
(85,0,l),
(85,709,l),
(205,709,l),
(205,114,l),
(530,114,l),
(530,0,l)
);
}
);
userData = {
public.truetype.instructions = {
formatVersion = "1";
id = "w555l530+0l85+0l85+709l205+709l205+114l530+114|";
};
};
width = 555;
}
);
unicode = 76;
},
{
glyphname = M;
lastChange = "2025-07-15 02:38:07 +0000";
layers = (
{
layerId = "2374D0AB-F754-483B-81AF-B87FF6AEB1B2";
shapes = (
{
closed = 1;
nodes = (
(746,0,l),
(746,522,l),
(525,0,l),
(421,0,l),
(202,520,l),
(202,0,l),
(85,0,l),
(85,709,l),
(245,709,l),
(475,168,l),
(702,709,l),
(865,709,l),
(865,0,l)
);
}
);
userData = {
public.truetype.instructions = {
formatVersion = "1";
id = "w950l865+0l746+0l746+522l525+0l421+0l202+520l202+0l85+0l85+709l245+709l475+168l702+709l865+709|";
};
};
width = 950;
},
{
layerId = m01;
shapes = (
{
closed = 1;
nodes = (
(746,0,l),
(746,522,l),
(525,0,l),
(421,0,l),
(202,520,l),
(202,0,l),
(85,0,l),
(85,709,l),
(245,709,l),
(475,168,l),
(702,709,l),
(865,709,l),
(865,0,l)
);
}
);
userData = {
public.truetype.instructions = {
formatVersion = "1";
id = "w950l865+0l746+0l746+522l525+0l421+0l202+520l202+0l85+0l85+709l245+709l475+168l702+709l865+709|";
};
};
width = 950;
},
{
layerId = "897933B7-C84C-4064-92EC-D6ECCFA4703E";
shapes = (
{
closed = 1;
nodes = (
(594,700,l),
(454,279,l),
(314,700,l),
(50,700,l),
(50,0,l),
(240,0,l),
(240,438,l),
(353,65,l),
(555,65,l),
(668,438,l),
(668,0,l),
(858,0,l),
(858,700,l)
);
}
);
width = 908;
},
{
layerId = "25766E5E-5561-4FF8-A834-795F30B85D44";
shapes = (
{
closed = 1;
nodes = (
(746,0,l),
(746,522,l),
(525,0,l),
(421,0,l),
(202,520,l),
(202,0,l),
(85,0,l),
(85,709,l),
(245,709,l),
(475,168,l),
(702,709,l),
(865,709,l),
(865,0,l)
);
}
);
userData = {
public.truetype.instructions = {
formatVersion = "1";
id = "w950l865+0l746+0l746+522l525+0l421+0l202+520l202+0l85+0l85+709l245+709l475+168l702+709l865+709|";
};
};
width = 950;
}
);
unicode = 77;
},
{
glyphname = N;
lastChange = "2025-07-15 02:38:07 +0000";
layers = (
{
layerId = "2374D0AB-F754-483B-81AF-B87FF6AEB1B2";
shapes = (
{
closed = 1;
nodes = (
(555,0,l),
(205,537,l),
(205,0,l),
(85,0,l),
(85,709,l),
(238,709,l),
(560,206,l),
(560,709,l),
(680,709,l),
(680,0,l)
);
}
);
userData = {
public.truetype.instructions = {
formatVersion = "1";
id = "w765l680+0l555+0l205+537l205+0l85+0l85+709l238+709l560+206l560+709l680+709|";
};
};
width = 765;
},
{
layerId = m01;
shapes = (
{
closed = 1;
nodes = (
(555,0,l),
(205,537,l),
(205,0,l),
(85,0,l),
(85,709,l),
(238,709,l),
(560,206,l),
(560,709,l),
(680,709,l),
(680,0,l)
);
}
);
userData = {
public.truetype.instructions = {
formatVersion = "1";
id = "w765l680+0l555+0l205+537l205+0l85+0l85+709l238+709l560+206l560+709l680+709|";
};
};
width = 765;
},
{
layerId = "897933B7-C84C-4064-92EC-D6ECCFA4703E";
shapes = (
{
closed = 1;
nodes = (
(524,700,l),
(524,307,l),
(235,700,l),
(50,700,l),
(50,0,l),
(240,0,l),
(240,394,l),
(529,0,l),
(714,0,l),
(714,700,l)
);
}
);
width = 764;
},
{
layerId = "25766E5E-5561-4FF8-A834-795F30B85D44";
shapes = (
{
closed = 1;
nodes = (
(555,0,l),
(205,537,l),
(205,0,l),
(85,0,l),
(85,709,l),
(238,709,l),
(560,206,l),
(560,709,l),
(680,709,l),
(680,0,l)
);
}
);
userData = {
public.truetype.instructions = {
formatVersion = "1";
id = "w765l680+0l555+0l205+537l205+0l85+0l85+709l238+709l560+206l560+709l680+709|";
};
};
width = 765;
}
);
unicode = 78;
},
{
glyphname = O;
lastChange = "2025-07-15 02:38:07 +0000";
layers = (
{
layerId = "2374D0AB-F754-483B-81AF-B87FF6AEB1B2";
shapes = (
{
closed = 1;
nodes = (
(618,-5,o),
(787,171,o),
(787,350,cs),
(787,561,o),
(630,704,o),
(423,704,cs),
(228,704,o),
(60,529,o),
(60,350,cs),
(60,138,o),
(218,-5,o),
(423,-5,cs)
);
},
{
closed = 1;
nodes = (
(228,3,o),
(70,150,o),
(70,348,cs),
(70,519,o),
(236,696,o),
(423,696,cs),
(618,696,o),
(776,550,o),
(776,348,cs),
(776,180,o),
(607,3,o),
(423,3,cs)
);
}
);
width = 858;
},
{
layerId = m01;
shapes = (
{
closed = 1;
nodes = (
(674,-16,o),
(813,162,o),
(813,352,cs),
(813,542,o),
(674,721,o),
(448,721,cs),
(222,721,o),
(82,542,o),
(82,352,cs),
(82,162,o),
(222,-16,o),
(448,-16,cs)
);
},
{
closed = 1;
nodes = (
(315,99,o),
(204,199,o),
(204,352,cs),
(204,489,o),
(301,605,o),
(448,605,cs),
(581,605,o),
(693,505,o),
(693,352,cs),
(693,216,o),
(594,99,o),
(448,99,cs)
);
}
);
width = 895;
},
{
layerId = "897933B7-C84C-4064-92EC-D6ECCFA4703E";
shapes = (
{
closed = 1;
nodes = (
(179,700,o),
(25,546,o),
(25,337,cs),
(25,128,o),
(179,-26,o),
(395,-26,cs),
(612,-26,o),
(765,128,o),
(765,337,cs),
(765,546,o),
(612,700,o),
(395,700,cs)
);
},
{
closed = 1;
nodes = (
(497,518,o),
(568,444,o),
(568,337,cs),
(568,230,o),
(497,156,o),
(395,156,cs),
(293,156,o),
(223,230,o),
(223,337,cs),
(223,444,o),
(293,518,o),
(395,518,cs)
);
}
);
width = 790;
},
{
layerId = "25766E5E-5561-4FF8-A834-795F30B85D44";
shapes = (
{
closed = 1;
nodes = (
(674,-16,o),
(813,162,o),
(813,352,cs),
(813,542,o),
(674,721,o),
(448,721,cs),
(222,721,o),
(82,542,o),
(82,352,cs),
(82,162,o),
(222,-16,o),
(448,-16,cs)
);
},
{
closed = 1;
nodes = (
(315,99,o),
(204,199,o),
(204,352,cs),
(204,489,o),
(301,605,o),
(448,605,cs),
(581,605,o),
(693,505,o),
(693,352,cs),
(693,216,o),
(594,99,o),
(448,99,cs)
);
}
);
width = 895;
}
);
unicode = 79;
},
{
glyphname = P;
lastChange = "2025-07-15 02:38:07 +0000";
layers = (
{
layerId = "2374D0AB-F754-483B-81AF-B87FF6AEB1B2";
shapes = (
{
closed = 1;
nodes = (
(330,383,l),
(387,383,o),
(452,442,o),
(452,492,q),
(452,543,o),
(387,603,o),
(330,603,q),
(205,603,l),
(205,383,l)
);
},
{
closed = 1;
nodes = (
(205,277,l),
(205,0,l),
(85,0,l),
(85,709,l),
(348,709,l),
(449,709,o),
(574,587,o),
(574,493,q),
(574,398,o),
(449,277,o),
(348,277,q)
);
}
);
userData = {
public.truetype.instructions = {
formatVersion = "1";
id = 4c9c964ea0c67be5fb016b41b3e94583eb51b1c526c63c9766ca0d817672eb1fcd1b4a796e2134304f62fb25ab7ea81867ab1b7a5154d64181d61153356ac272;
};
};
width = 602;
},
{
layerId = m01;
shapes = (
{
closed = 1;
nodes = (
(330,383,l),
(387,383,o),
(452,442,o),
(452,492,q),
(452,543,o),
(387,603,o),
(330,603,q),
(205,603,l),
(205,383,l)
);
},
{
closed = 1;
nodes = (
(205,277,l),
(205,0,l),
(85,0,l),
(85,709,l),
(348,709,l),
(449,709,o),
(574,587,o),
(574,493,q),
(574,398,o),
(449,277,o),
(348,277,q)
);
}
);
userData = {
public.truetype.instructions = {
formatVersion = "1";
id = 4c9c964ea0c67be5fb016b41b3e94583eb51b1c526c63c9766ca0d817672eb1fcd1b4a796e2134304f62fb25ab7ea81867ab1b7a5154d64181d61153356ac272;
};
};
width = 602;
},
{
layerId = "897933B7-C84C-4064-92EC-D6ECCFA4703E";
shapes = (
{
closed = 1;
nodes = (
(540,221,o),
(634,317,o),
(634,458,cs),
(634,602,o),
(540,700,o),
(362,700,cs),
(50,700,l),
(50,0,l),
(240,0,l),
(240,221,l),
(365,221,ls)
);
},
{
closed = 1;
nodes = (
(407,530,o),
(442,504,o),
(442,458,cs),
(442,413,o),
(407,387,o),
(360,387,cs),
(240,387,l),
(240,530,l),
(360,530,ls)
);
}
);
width = 654;
},
{
layerId = "25766E5E-5561-4FF8-A834-795F30B85D44";
shapes = (
{
closed = 1;
nodes = (
(330,383,l),
(387,383,o),
(452,442,o),
(452,492,q),
(452,543,o),
(387,603,o),
(330,603,q),
(205,603,l),
(205,383,l)
);
},
{
closed = 1;
nodes = (
(205,277,l),
(205,0,l),
(85,0,l),
(85,709,l),
(348,709,l),
(449,709,o),
(574,587,o),
(574,493,q),
(574,398,o),
(449,277,o),
(348,277,q)
);
}
);
userData = {
public.truetype.instructions = {
formatVersion = "1";
id = 4c9c964ea0c67be5fb016b41b3e94583eb51b1c526c63c9766ca0d817672eb1fcd1b4a796e2134304f62fb25ab7ea81867ab1b7a5154d64181d61153356ac272;
};
};
width = 602;
}
);
unicode = 80;
},
{
glyphname = Q;
lastChange = "2025-07-15 02:38:07 +0000";
layers = (
{
layerId = "2374D0AB-F754-483B-81AF-B87FF6AEB1B2";
shapes = (
{
closed = 1;
nodes = (
(42,467,o),
(145,638,o),
(307,724,o),
(497,724,o),
(659,638,o),
(763,467,o),
(763,243,o),
(659,71,o),
(497,-15,o),
(307,-15,o),
(145,71,o),
(42,243,o)
);
},
{
closed = 1;
nodes = (
(165,234,o),
(305,99,o),
(499,99,o),
(640,234,o),
(640,476,o),
(499,611,o),
(305,611,o),
(165,476,o)
);
},
{
closed = 1;
nodes = (
(503,-15,o),
(587,34,q),
(593,39,l),
(595,19,l),
(621,-13,o),
(661,-31,o),
(709,-31,cs),
(723,-31,l),
(723,73,l),
(719,73,ls),
(696,73,o),
(679,85,o),
(671,102,c),
(763,204,o),
(763,355,qs),
(763,467,o),
(659,638,o),
(497,724,o),
(307,724,o),
(145,638,o),
(42,467,o),
(42,243,o),
(145,71,o),
(307,-15,o),
(402,-15,qs)
);
},
{
closed = 1;
nodes = (
(667,385,l),
(667,125,ls),
(667,117,o),
(669,109,o),
(671,102,c),
(671,102,o),
(671,102,q),
(593,39,l),
(577,179,l),
(508,122,l),
(461,99,o),
(402,99,qs),
(305,99,o),
(165,234,o),
(165,476,o),
(305,611,o),
(499,611,o),
(570,544,qs),
(631,485,o),
(639,385,q)
);
},
{
closed = 1;
nodes = (
(640,370,o),
(639,385,q),
(557,385,l),
(557,349,l),
(577,179,l),
(591,191,l),
(640,258,o),
(640,355,qs)
);
}
);
userData = {
public.truetype.instructions = {
formatVersion = "1";
id = 4e50ad7e92af500a9c6664d25e6d3c2fc439eca83d72dbb4104452c43d90023aebb14446fdb55dbb269d73d506405a48702092ba33d0354bbf27e4ef5765af1f;
};
};
width = 805;
},
{
anchors = (
{
name = "Anchor-2";
pos = (1270,0);
}
);
layerId = m01;
shapes = (
{
closed = 1;
nodes = (
(311,94,o),
(205,203,o),
(205,349,cs),
(205,495,o),
(311,604,o),
(452,604,cs),
(592,604,o),
(697,495,o),
(697,349,cs),
(697,203,o),
(592,94,o),
(452,94,cs)
);
},
{
closed = 1;
nodes = (
(507,-54,o),
(545,-86,o),
(585,-86,q),
(673,-86,l),
(673,-174,l),
(579,-174,l),
(482,-174,o),
(396,-101,o),
(396,-15,q),
(507,-15,l)
);
},
{
closed = 1;
nodes = (
(691,19,o),
(820,178,o),
(820,349,cs),
(820,541,o),
(679,720,o),
(452,720,cs),
(223,720,o),
(82,541,o),
(82,349,cs),
(82,178,o),
(213,19,o),
(396,-15,c),
(507,-15,l)
);
}
);
userData = {
public.truetype.instructions = {
assembly = "NPUSHB[ ]	/* 44 values pushed */
14 3 2 0 3 1 76 0 3 4 0 4 3 0 128 0 4 4 2 97 0 2 2 51 77 0 0 0 1 96 0 1 1 50 1 78 38 38 42 33 38 5 9 27
CALL[ ]	/* CallFunction */";
formatVersion = "1";
id = "04409590062e04d58dbfc411dbfadd67985283cdce076f031602df9584515e1c97bc16d2308ab77c4edd638169dfe8cad2119534bbb61962958ae437fd29f7df";
};
};
width = 897;
},
{
anchors = (
{
name = "Anchor-2";
pos = (1208,0);
}
);
layerId = "897933B7-C84C-4064-92EC-D6ECCFA4703E";
shapes = (
{
closed = 1;
nodes = (
(294,171,o),
(221,246,o),
(221,345,cs),
(221,445,o),
(294,520,o),
(391,520,cs),
(486,520,o),
(558,445,o),
(558,345,cs),
(558,246,o),
(486,171,o),
(391,171,cs)
);
},
{
closed = 1;
nodes = (
(475,-54,o),
(483,-66,o),
(523,-66,q),
(611,-66,l),
(611,-204,l),
(517,-204,l),
(420,-204,o),
(304,-101,o),
(304,-15,q),
(475,-15,l)
);
},
{
closed = 1;
nodes = (
(659,19,o),
(758,178,o),
(758,349,cs),
(758,541,o),
(617,720,o),
(390,720,cs),
(161,720,o),
(20,541,o),
(20,349,cs),
(20,178,o),
(121,19,o),
(304,-15,c),
(475,-15,l)
);
}
);
userData = {
public.truetype.instructions = {
assembly = "NPUSHB[ ]	/* 44 values pushed */
14 3 2 0 3 1 76 0 3 4 0 4 3 0 128 0 4 4 2 97 0 2 2 51 77 0 0 0 1 96 0 1 1 50 1 78 38 38 42 33 38 5 9 27
CALL[ ]	/* CallFunction */";
formatVersion = "1";
id = "04409590062e04d58dbfc411dbfadd67985283cdce076f031602df9584515e1c97bc16d2308ab77c4edd638169dfe8cad2119534bbb61962958ae437fd29f7df";
};
};
width = 778;
},
{
anchors = (
{
name = "Anchor-2";
pos = (1270,0);
}
);
layerId = "25766E5E-5561-4FF8-A834-795F30B85D44";
shapes = (
{
closed = 1;
nodes = (
(311,94,o),
(205,203,o),
(205,349,cs),
(205,495,o),
(311,604,o),
(452,604,cs),
(592,604,o),
(697,495,o),
(697,349,cs),
(697,203,o),
(592,94,o),
(452,94,cs)
);
},
{
closed = 1;
nodes = (
(507,-54,o),
(545,-86,o),
(585,-86,q),
(673,-86,l),
(673,-174,l),
(579,-174,l),
(482,-174,o),
(396,-101,o),
(396,-15,q),
(507,-15,l)
);
},
{
closed = 1;
nodes = (
(691,19,o),
(820,178,o),
(820,349,cs),
(820,541,o),
(679,720,o),
(452,720,cs),
(223,720,o),
(82,541,o),
(82,349,cs),
(82,178,o),
(213,19,o),
(396,-15,c),
(507,-15,l)
);
}
);
userData = {
public.truetype.instructions = {
assembly = "NPUSHB[ ]	/* 44 values pushed */
14 3 2 0 3 1 76 0 3 4 0 4 3 0 128 0 4 4 2 97 0 2 2 51 77 0 0 0 1 96 0 1 1 50 1 78 38 38 42 33 38 5 9 27
CALL[ ]	/* CallFunction */";
formatVersion = "1";
id = "04409590062e04d58dbfc411dbfadd67985283cdce076f031602df9584515e1c97bc16d2308ab77c4edd638169dfe8cad2119534bbb61962958ae437fd29f7df";
};
};
width = 897;
}
);
unicode = 81;
},
{
glyphname = R;
lastChange = "2025-07-15 02:38:07 +0000";
layers = (
{
layerId = "2374D0AB-F754-483B-81AF-B87FF6AEB1B2";
shapes = (
{
closed = 1;
nodes = (
(183,0,l),
(183,304,l),
(184,304,l),
(180,304,l),
(337,304,l),
(463,0,l),
(582,0,l),
(452,315,l),
(531,345,o),
(582,421,o),
(582,506,cs),
(582,617,o),
(500,709,o),
(378,709,cs),
(180,709,l),
(184,709,l),
(68,709,l),
(68,0,l)
);
},
{
closed = 1;
nodes = (
(183,608,l),
(184,608,l),
(180,608,l),
(366,608,ls),
(426,608,o),
(467,567,o),
(467,506,cs),
(467,446,o),
(426,405,o),
(366,405,cs),
(180,405,l),
(184,405,l),
(183,405,l)
);
}
);
width = 639;
},
{
layerId = m01;
shapes = (
{
closed = 1;
nodes = (
(183,0,l),
(183,304,l),
(272,304,l),
(463,0,l),
(582,0,l),
(388,310,l),
(378,309,l),
(501,309,o),
(582,421,o),
(582,506,cs),
(582,617,o),
(500,709,o),
(378,709,cs),
(68,709,l),
(68,0,l)
);
},
{
closed = 1;
nodes = (
(183,608,l),
(366,608,ls),
(426,608,o),
(467,567,o),
(467,506,cs),
(467,446,o),
(426,405,o),
(366,405,cs),
(183,405,l)
);
}
);
width = 639;
},
{
layerId = "897933B7-C84C-4064-92EC-D6ECCFA4703E";
shapes = (
{
closed = 1;
nodes = (
(50,700,l),
(50,0,l),
(240,0,l),
(240,249,l),
(250,249,l),
(419,0,l),
(643,0,l),
(452,257,l),
(571,282,o),
(633,359,o),
(633,467,cs),
(633,608,o),
(540,700,o),
(362,700,cs)
);
},
{
closed = 1;
nodes = (
(407,530,o),
(441,510,o),
(441,467,cs),
(441,425,o),
(407,405,o),
(360,405,cs),
(240,405,l),
(240,530,l),
(360,530,ls)
);
}
);
width = 668;
},
{
layerId = "25766E5E-5561-4FF8-A834-795F30B85D44";
shapes = (
{
closed = 1;
nodes = (
(183,0,l),
(183,304,l),
(272,304,l),
(463,0,l),
(582,0,l),
(388,310,l),
(378,309,l),
(501,309,o),
(582,421,o),
(582,506,cs),
(582,617,o),
(500,709,o),
(378,709,cs),
(68,709,l),
(68,0,l)
);
},
{
closed = 1;
nodes = (
(183,608,l),
(366,608,ls),
(426,608,o),
(467,567,o),
(467,506,cs),
(467,446,o),
(426,405,o),
(366,405,cs),
(183,405,l)
);
}
);
width = 639;
}
);
unicode = 82;
},
{
glyphname = S;
lastChange = "2025-07-15 02:38:07 +0000";
layers = (
{
layerId = "2374D0AB-F754-483B-81AF-B87FF6AEB1B2";
shapes = (
{
closed = 1;
nodes = (
(404,0,ls),
(524,0,o),
(606,98,o),
(606,203,cs),
(606,320,o),
(524,405,o),
(404,405,cs),
(249,405,ls),
(188,405,o),
(147,446,o),
(147,506,cs),
(147,567,o),
(188,607,o),
(249,607,cs),
(546,607,l),
(546,709,l),
(237,709,ls),
(116,709,o),
(34,613,o),
(34,506,cs),
(34,389,o),
(116,304,o),
(237,304,cs),
(392,304,ls),
(452,304,o),
(493,263,o),
(493,203,cs),
(493,142,o),
(452,101,o),
(392,101,cs),
(46,101,l),
(46,0,l)
);
}
);
width = 662;
},
{
layerId = m01;
shapes = (
{
closed = 1;
nodes = (
(394,0,ls),
(514,0,o),
(596,98,o),
(596,203,cs),
(596,320,o),
(514,405,o),
(394,405,cs),
(249,405,ls),
(188,405,o),
(147,446,o),
(147,506,cs),
(147,567,o),
(188,607,o),
(249,607,cs),
(536,607,l),
(536,709,l),
(237,709,ls),
(116,709,o),
(34,613,o),
(34,506,cs),
(34,389,o),
(116,304,o),
(237,304,cs),
(382,304,ls),
(442,304,o),
(483,263,o),
(483,203,cs),
(483,142,o),
(442,101,o),
(382,101,cs),
(46,101,l),
(46,0,l)
);
}
);
width = 630;
},
{
layerId = "897933B7-C84C-4064-92EC-D6ECCFA4703E";
shapes = (
{
closed = 1;
nodes = (
(394,0,ls),
(514,0,o),
(596,98,o),
(596,203,cs),
(596,320,o),
(514,430,o),
(394,430,cs),
(309,430,ls),
(248,430,o),
(207,446,o),
(207,506,cs),
(207,567,o),
(248,557,o),
(309,557,cs),
(536,557,l),
(536,709,l),
(237,709,ls),
(116,709,o),
(34,613,o),
(34,506,cs),
(34,389,o),
(116,279,o),
(237,279,cs),
(322,279,ls),
(382,279,o),
(423,263,o),
(423,203,cs),
(423,142,o),
(382,151,o),
(322,151,cs),
(46,151,l),
(46,0,l)
);
}
);
width = 630;
},
{
layerId = "25766E5E-5561-4FF8-A834-795F30B85D44";
shapes = (
{
closed = 1;
nodes = (
(394,0,ls),
(514,0,o),
(596,98,o),
(596,203,cs),
(596,320,o),
(514,405,o),
(394,405,cs),
(249,405,ls),
(188,405,o),
(147,446,o),
(147,506,cs),
(147,567,o),
(188,607,o),
(249,607,cs),
(536,607,l),
(536,709,l),
(237,709,ls),
(116,709,o),
(34,613,o),
(34,506,cs),
(34,389,o),
(116,304,o),
(237,304,cs),
(382,304,ls),
(442,304,o),
(483,263,o),
(483,203,cs),
(483,142,o),
(442,101,o),
(382,101,cs),
(46,101,l),
(46,0,l)
);
}
);
width = 630;
}
);
unicode = 83;
},
{
glyphname = T;
lastChange = "2025-07-15 02:38:07 +0000";
layers = (
{
layerId = "2374D0AB-F754-483B-81AF-B87FF6AEB1B2";
shapes = (
{
closed = 1;
nodes = (
(363,596,l),
(363,0,l),
(243,0,l),
(243,596,l),
(13,596,l),
(13,709,l),
(594,709,l),
(594,596,l)
);
}
);
userData = {
public.truetype.instructions = {
formatVersion = "1";
id = "w607l594+596l363+596l363+0l243+0l243+596l13+596l13+709l594+709|";
};
};
width = 607;
},
{
layerId = m01;
shapes = (
{
closed = 1;
nodes = (
(363,596,l),
(363,0,l),
(243,0,l),
(243,596,l),
(13,596,l),
(13,709,l),
(594,709,l),
(594,596,l)
);
}
);
userData = {
public.truetype.instructions = {
formatVersion = "1";
id = "w607l594+596l363+596l363+0l243+0l243+596l13+596l13+709l594+709|";
};
};
width = 607;
},
{
layerId = "897933B7-C84C-4064-92EC-D6ECCFA4703E";
shapes = (
{
closed = 1;
nodes = (
(20,700,l),
(20,525,l),
(219,525,l),
(219,0,l),
(409,0,l),
(409,525,l),
(608,525,l),
(608,700,l)
);
}
);
width = 628;
},
{
layerId = "25766E5E-5561-4FF8-A834-795F30B85D44";
shapes = (
{
closed = 1;
nodes = (
(363,596,l),
(363,0,l),
(243,0,l),
(243,596,l),
(13,596,l),
(13,709,l),
(594,709,l),
(594,596,l)
);
}
);
userData = {
public.truetype.instructions = {
formatVersion = "1";
id = "w607l594+596l363+596l363+0l243+0l243+596l13+596l13+709l594+709|";
};
};
width = 607;
}
);
unicode = 84;
},
{
glyphname = U;
lastChange = "2025-07-15 02:38:07 +0000";
layers = (
{
layerId = "2374D0AB-F754-483B-81AF-B87FF6AEB1B2";
shapes = (
{
closed = 1;
nodes = (
(457,-15,o),
(225,-15,o),
(77,123,o),
(77,247,q),
(77,709,l),
(196,709,l),
(196,254,l),
(196,180,o),
(273,99,o),
(341,99,q),
(410,99,o),
(486,179,o),
(486,254,q),
(486,709,l),
(606,709,l),
(606,247,l),
(606,123,o)
);
}
);
userData = {
public.truetype.instructions = {
formatVersion = "1";
id = 2c99867dbcfdf013e0a82cf979ae984719967312d90aeffe1883b514231ea0a3466e2629cb6559af46401e5c549d565931030617fd058cae49677aa96d391cfe;
};
};
width = 683;
},
{
layerId = m01;
shapes = (
{
closed = 1;
nodes = (
(457,-15,o),
(225,-15,o),
(77,123,o),
(77,247,q),
(77,709,l),
(196,709,l),
(196,254,l),
(196,180,o),
(273,99,o),
(341,99,q),
(410,99,o),
(486,179,o),
(486,254,q),
(486,709,l),
(606,709,l),
(606,247,l),
(606,123,o)
);
}
);
userData = {
public.truetype.instructions = {
formatVersion = "1";
id = 2c99867dbcfdf013e0a82cf979ae984719967312d90aeffe1883b514231ea0a3466e2629cb6559af46401e5c549d565931030617fd058cae49677aa96d391cfe;
};
};
width = 683;
},
{
layerId = "897933B7-C84C-4064-92EC-D6ECCFA4703E";
shapes = (
{
closed = 1;
nodes = (
(438,700,l),
(438,291,ls),
(438,211,o),
(392,169,o),
(318,169,cs),
(245,169,o),
(199,211,o),
(199,291,cs),
(199,700,l),
(8,700,l),
(8,286,ls),
(8,95,o),
(117,-13,o),
(318,-13,cs),
(519,-13,o),
(628,95,o),
(628,286,cs),
(628,700,l)
);
}
);
width = 636;
},
{
layerId = "25766E5E-5561-4FF8-A834-795F30B85D44";
shapes = (
{
closed = 1;
nodes = (
(457,-15,o),
(225,-15,o),
(77,123,o),
(77,247,q),
(77,709,l),
(196,709,l),
(196,254,l),
(196,180,o),
(273,99,o),
(341,99,q),
(410,99,o),
(486,179,o),
(486,254,q),
(486,709,l),
(606,709,l),
(606,247,l),
(606,123,o)
);
}
);
userData = {
public.truetype.instructions = {
formatVersion = "1";
id = 2c99867dbcfdf013e0a82cf979ae984719967312d90aeffe1883b514231ea0a3466e2629cb6559af46401e5c549d565931030617fd058cae49677aa96d391cfe;
};
};
width = 683;
}
);
unicode = 85;
},
{
glyphname = V;
lastChange = "2025-07-15 02:38:07 +0000";
layers = (
{
layerId = "2374D0AB-F754-483B-81AF-B87FF6AEB1B2";
shapes = (
{
closed = 1;
nodes = (
(537,709,l),
(664,709,l),
(396,0,l),
(274,0,l),
(10,709,l),
(140,709,l),
(338,157,l)
);
}
);
userData = {
public.truetype.instructions = {
formatVersion = "1";
id = "w674l338+157l537+709l664+709l396+0l274+0l10+709l140+709|";
};
};
width = 674;
},
{
layerId = m01;
shapes = (
{
closed = 1;
nodes = (
(537,709,l),
(664,709,l),
(396,0,l),
(274,0,l),
(10,709,l),
(140,709,l),
(338,157,l)
);
}
);
userData = {
public.truetype.instructions = {
formatVersion = "1";
id = "w674l338+157l537+709l664+709l396+0l274+0l10+709l140+709|";
};
};
width = 674;
},
{
layerId = "897933B7-C84C-4064-92EC-D6ECCFA4703E";
shapes = (
{
closed = 1;
nodes = (
(541,700,l),
(374,199,l),
(207,700,l),
(5,700,l),
(260,0,l),
(484,0,l),
(739,700,l)
);
}
);
width = 744;
},
{
layerId = "25766E5E-5561-4FF8-A834-795F30B85D44";
shapes = (
{
closed = 1;
nodes = (
(537,709,l),
(664,709,l),
(396,0,l),
(274,0,l),
(10,709,l),
(140,709,l),
(338,157,l)
);
}
);
userData = {
public.truetype.instructions = {
formatVersion = "1";
id = "w674l338+157l537+709l664+709l396+0l274+0l10+709l140+709|";
};
};
width = 674;
}
);
unicode = 86;
},
{
glyphname = W;
lastChange = "2025-07-15 02:38:07 +0000";
layers = (
{
layerId = "2374D0AB-F754-483B-81AF-B87FF6AEB1B2";
shapes = (
{
closed = 1;
nodes = (
(880,709,l),
(1004,709,l),
(805,0,l),
(681,0,l),
(509,536,l),
(337,0,l),
(214,0,l),
(13,709,l),
(139,709,l),
(281,191,l),
(447,709,l),
(572,709,l),
(741,187,l)
);
}
);
userData = {
public.truetype.instructions = {
formatVersion = "1";
id = "w1017l741+187l880+709l1004+709l805+0l681+0l509+536l337+0l214+0l13+709l139+709l281+191l447+709l572+709|";
};
};
width = 1017;
},
{
layerId = m01;
shapes = (
{
closed = 1;
nodes = (
(342,-7,o),
(365,23,o),
(381,74,cs),
(540,580,l),
(700,74,ls),
(716,23,o),
(739,-7,o),
(788,-7,cs),
(836,-7,o),
(861,25,o),
(876,74,cs),
(1068,707,l),
(952,707,l),
(787,126,l),
(627,636,ls),
(612,684,o),
(582,710,o),
(541,710,cs),
(500,710,o),
(470,684,o),
(455,636,cs),
(294,126,l),
(129,707,l),
(13,707,l),
(205,74,ls),
(220,25,o),
(245,-7,o),
(293,-7,cs)
);
}
);
userData = {
public.truetype.instructions = {
formatVersion = "1";
id = "w1017l741+187l880+709l1004+709l805+0l681+0l509+536l337+0l214+0l13+709l139+709l281+191l447+709l572+709|";
};
};
width = 1081;
},
{
layerId = "897933B7-C84C-4064-92EC-D6ECCFA4703E";
shapes = (
{
closed = 1;
nodes = (
(897,700,l),
(778,230,l),
(652,700,l),
(449,700,l),
(323,231,l),
(204,700,l),
(8,700,l),
(208,0,l),
(432,0,l),
(549,410,l),
(666,0,l),
(890,0,l),
(1090,700,l)
);
}
);
width = 1098;
},
{
layerId = "25766E5E-5561-4FF8-A834-795F30B85D44";
shapes = (
{
closed = 1;
nodes = (
(342,-7,o),
(365,23,o),
(381,74,cs),
(540,580,l),
(700,74,ls),
(716,23,o),
(739,-7,o),
(788,-7,cs),
(836,-7,o),
(861,25,o),
(876,74,cs),
(1068,707,l),
(952,707,l),
(787,126,l),
(627,636,ls),
(612,684,o),
(582,710,o),
(541,710,cs),
(500,710,o),
(470,684,o),
(455,636,cs),
(294,126,l),
(129,707,l),
(13,707,l),
(205,74,ls),
(220,25,o),
(245,-7,o),
(293,-7,cs)
);
}
);
userData = {
public.truetype.instructions = {
formatVersion = "1";
id = "w1017l741+187l880+709l1004+709l805+0l681+0l509+536l337+0l214+0l13+709l139+709l281+191l447+709l572+709|";
};
};
width = 1081;
}
);
unicode = 87;
},
{
glyphname = X;
lastChange = "2025-07-15 02:38:07 +0000";
layers = (
{
layerId = "2374D0AB-F754-483B-81AF-B87FF6AEB1B2";
shapes = (
{
closed = 1;
nodes = (
(396,354,l),
(631,0,l),
(487,0,l),
(322,259,l),
(155,0,l),
(14,0,l),
(251,355,l),
(16,709,l),
(160,709,l),
(325,449,l),
(491,709,l),
(632,709,l)
);
}
);
userData = {
public.truetype.instructions = {
formatVersion = "1";
id = "w646l631+709l395+354l630+0l486+0l321+259l154+0l13+0l250+355l15+709l159+709l324+449l490+709|";
};
};
width = 646;
},
{
layerId = m01;
shapes = (
{
closed = 1;
nodes = (
(396,354,l),
(631,0,l),
(487,0,l),
(322,259,l),
(155,0,l),
(14,0,l),
(251,355,l),
(16,709,l),
(160,709,l),
(325,449,l),
(491,709,l),
(632,709,l)
);
}
);
userData = {
public.truetype.instructions = {
formatVersion = "1";
id = "w646l631+709l395+354l630+0l486+0l321+259l154+0l13+0l250+355l15+709l159+709l324+449l490+709|";
};
};
width = 646;
},
{
layerId = "897933B7-C84C-4064-92EC-D6ECCFA4703E";
shapes = (
{
closed = 1;
nodes = (
(464,700,l),
(342,493,l),
(220,700,l),
(5,700,l),
(226,352,l),
(5,0,l),
(218,0,l),
(340,208,l),
(463,0,l),
(678,0,l),
(456,353,l),
(678,700,l)
);
}
);
width = 683;
},
{
layerId = "25766E5E-5561-4FF8-A834-795F30B85D44";
shapes = (
{
closed = 1;
nodes = (
(396,354,l),
(631,0,l),
(487,0,l),
(322,259,l),
(155,0,l),
(14,0,l),
(251,355,l),
(16,709,l),
(160,709,l),
(325,449,l),
(491,709,l),
(632,709,l)
);
}
);
userData = {
public.truetype.instructions = {
formatVersion = "1";
id = "w646l631+709l395+354l630+0l486+0l321+259l154+0l13+0l250+355l15+709l159+709l324+449l490+709|";
};
};
width = 646;
}
);
unicode = 88;
},
{
glyphname = Y;
lastChange = "2025-07-15 02:38:07 +0000";
layers = (
{
layerId = "2374D0AB-F754-483B-81AF-B87FF6AEB1B2";
shapes = (
{
closed = 1;
nodes = (
(10,709,l),
(152,709,l),
(322,412,l),
(493,709,l),
(628,709,l),
(378,300,l),
(378,0,l),
(258,0,l),
(258,300,l)
);
}
);
userData = {
public.truetype.instructions = {
formatVersion = "1";
id = "w638l258+300l10+709l152+709l322+412l493+709l628+709l378+300l378+0l258+0|";
};
};
width = 638;
},
{
layerId = m01;
shapes = (
{
closed = 1;
nodes = (
(10,709,l),
(152,709,l),
(322,412,l),
(493,709,l),
(628,709,l),
(378,300,l),
(378,0,l),
(258,0,l),
(258,300,l)
);
}
);
userData = {
public.truetype.instructions = {
formatVersion = "1";
id = "w638l258+300l10+709l152+709l322+412l493+709l628+709l378+300l378+0l258+0|";
};
};
width = 638;
},
{
layerId = "897933B7-C84C-4064-92EC-D6ECCFA4703E";
shapes = (
{
closed = 1;
nodes = (
(503,700,l),
(362,436,l),
(220,700,l),
(2,700,l),
(266,263,l),
(266,0,l),
(456,0,l),
(456,265,l),
(714,700,l)
);
}
);
width = 716;
},
{
layerId = "25766E5E-5561-4FF8-A834-795F30B85D44";
shapes = (
{
closed = 1;
nodes = (
(10,709,l),
(152,709,l),
(322,412,l),
(493,709,l),
(628,709,l),
(378,300,l),
(378,0,l),
(258,0,l),
(258,300,l)
);
}
);
userData = {
public.truetype.instructions = {
formatVersion = "1";
id = "w638l258+300l10+709l152+709l322+412l493+709l628+709l378+300l378+0l258+0|";
};
};
width = 638;
}
);
unicode = 89;
},
{
glyphname = Z;
lastChange = "2025-07-15 02:38:07 +0000";
layers = (
{
layerId = "2374D0AB-F754-483B-81AF-B87FF6AEB1B2";
shapes = (
{
closed = 1;
nodes = (
(42,0,l),
(42,118,l),
(435,596,l),
(53,596,l),
(53,709,l),
(590,709,l),
(590,595,l),
(192,114,l),
(595,114,l),
(595,0,l)
);
}
);
userData = {
public.truetype.instructions = {
formatVersion = "1";
id = "w636l595+0l42+0l42+118l435+596l53+596l53+709l590+709l590+595l192+114l595+114|";
};
};
width = 636;
},
{
layerId = m01;
shapes = (
{
closed = 1;
nodes = (
(42,0,l),
(42,118,l),
(435,596,l),
(53,596,l),
(53,709,l),
(590,709,l),
(590,595,l),
(192,114,l),
(595,114,l),
(595,0,l)
);
}
);
userData = {
public.truetype.instructions = {
formatVersion = "1";
id = "w636l595+0l42+0l42+118l435+596l53+596l53+709l590+709l590+595l192+114l595+114|";
};
};
width = 636;
},
{
layerId = "897933B7-C84C-4064-92EC-D6ECCFA4703E";
shapes = (
{
closed = 1;
nodes = (
(30,700,l),
(30,531,l),
(358,531,l),
(30,149,l),
(30,0,l),
(610,0,l),
(610,169,l),
(283,169,l),
(610,551,l),
(610,700,l)
);
}
);
width = 640;
},
{
layerId = "25766E5E-5561-4FF8-A834-795F30B85D44";
shapes = (
{
closed = 1;
nodes = (
(42,0,l),
(42,118,l),
(435,596,l),
(53,596,l),
(53,709,l),
(590,709,l),
(590,595,l),
(192,114,l),
(595,114,l),
(595,0,l)
);
}
);
userData = {
public.truetype.instructions = {
formatVersion = "1";
id = "w636l595+0l42+0l42+118l435+596l53+596l53+709l590+709l590+595l192+114l595+114|";
};
};
width = 636;
}
);
unicode = 90;
},
{
glyphname = a;
lastChange = "2025-07-15 02:38:07 +0000";
layers = (
{
layerId = "2374D0AB-F754-483B-81AF-B87FF6AEB1B2";
shapes = (
{
closed = 1;
nodes = (
(363,-10,o),
(447,57,o),
(479,140,c),
(479,76,o),
(473,0,o),
(533,0,cs),
(547,0,l),
(547,12,l),
(543,12,ls),
(501,12,o),
(491,35,o),
(491,154,cs),
(491,202,l),
(492,208,ls),
(492,216,o),
(492,222,o),
(491,231,c),
(491,394,l),
(479,394,l),
(479,286,l),
(449,371,o),
(367,426,o),
(268,426,cs),
(148,426,o),
(45,318,o),
(45,208,cs),
(45,78,o),
(142,-10,o),
(268,-10,cs)
);
},
{
closed = 1;
nodes = (
(148,1,o),
(57,85,o),
(57,207,cs),
(57,312,o),
(153,415,o),
(268,415,cs),
(388,415,o),
(479,331,o),
(479,207,cs),
(479,104,o),
(381,1,o),
(268,1,cs)
);
},
{
closed = 0;
nodes = (
(491,206,l),
(491,394,l),
(479,394,l),
(479,206,l)
);
},
{
closed = 0;
nodes = (
(491,206,l),
(491,394,l)
);
}
);
width = 556;
},
{
layerId = m01;
shapes = (
{
closed = 1;
nodes = (
(327,-10,o),
(379,17,o),
(421,55,c),
(447,23,o),
(487,0,o),
(535,0,cs),
(549,0,l),
(549,104,l),
(545,104,ls),
(513,104,o),
(493,126,o),
(493,156,cs),
(493,416,l),
(383,416,l),
(383,380,l),
(357,406,o),
(315,426,o),
(269,426,cs),
(149,426,o),
(45,328,o),
(45,208,cs),
(45,78,o),
(139,-10,o),
(269,-10,cs)
);
},
{
closed = 1;
nodes = (
(207,94,o),
(159,146,o),
(159,208,cs),
(159,276,o),
(207,322,o),
(269,322,cs),
(341,322,o),
(383,270,o),
(383,208,cs),
(383,146,o),
(337,94,o),
(269,94,cs)
);
}
);
width = 599;
},
{
layerId = "897933B7-C84C-4064-92EC-D6ECCFA4703E";
shapes = (
{
closed = 1;
nodes = (
(327,-10,o),
(379,17,o),
(421,55,c),
(447,23,o),
(487,0,o),
(535,0,cs),
(549,0,l),
(549,134,l),
(545,134,ls),
(532,134,o),
(523,141,o),
(523,156,cs),
(523,416,l),
(383,416,l),
(383,380,l),
(357,406,o),
(315,426,o),
(269,426,cs),
(149,426,o),
(45,328,o),
(45,208,cs),
(45,78,o),
(139,-10,o),
(269,-10,cs)
);
},
{
closed = 1;
nodes = (
(244,136,o),
(211,171,o),
(211,213,cs),
(211,258,o),
(244,289,o),
(285,289,cs),
(333,289,o),
(362,254,o),
(362,213,cs),
(362,171,o),
(331,136,o),
(285,136,cs)
);
}
);
width = 599;
},
{
layerId = "25766E5E-5561-4FF8-A834-795F30B85D44";
shapes = (
{
closed = 1;
nodes = (
(327,-10,o),
(379,17,o),
(421,55,c),
(447,23,o),
(487,0,o),
(535,0,cs),
(549,0,l),
(549,104,l),
(545,104,ls),
(513,104,o),
(493,126,o),
(493,156,cs),
(493,416,l),
(383,416,l),
(383,380,l),
(357,406,o),
(315,426,o),
(269,426,cs),
(149,426,o),
(45,328,o),
(45,208,cs),
(45,78,o),
(139,-10,o),
(269,-10,cs)
);
},
{
closed = 1;
nodes = (
(207,94,o),
(159,146,o),
(159,208,cs),
(159,276,o),
(207,322,o),
(269,322,cs),
(341,322,o),
(383,270,o),
(383,208,cs),
(383,146,o),
(337,94,o),
(269,94,cs)
);
}
);
width = 599;
}
);
unicode = 97;
},
{
glyphname = b;
lastChange = "2025-07-15 02:38:07 +0000";
layers = (
{
layerId = "2374D0AB-F754-483B-81AF-B87FF6AEB1B2";
shapes = (
{
closed = 1;
nodes = (
(408,-10,o),
(512,88,o),
(512,208,cs),
(512,338,o),
(424,426,o),
(298,426,cs),
(246,426,o),
(200,408,o),
(176,380,c),
(176,728,l),
(64,728,l),
(64,208,ls),
(64,78,o),
(158,-10,o),
(288,-10,cs)
);
},
{
closed = 1;
nodes = (
(224,94,o),
(176,144,o),
(176,208,cs),
(176,274,o),
(224,322,o),
(288,322,cs),
(354,322,o),
(400,274,o),
(400,208,cs),
(400,144,o),
(354,94,o),
(288,94,cs)
);
}
);
width = 556;
},
{
layerId = m01;
shapes = (
{
closed = 1;
nodes = (
(408,-10,o),
(512,88,o),
(512,208,cs),
(512,338,o),
(424,426,o),
(298,426,cs),
(246,426,o),
(200,408,o),
(176,380,c),
(176,728,l),
(64,728,l),
(64,208,ls),
(64,78,o),
(158,-10,o),
(288,-10,cs)
);
},
{
closed = 1;
nodes = (
(224,94,o),
(176,144,o),
(176,208,cs),
(176,274,o),
(224,322,o),
(288,322,cs),
(354,322,o),
(400,274,o),
(400,208,cs),
(400,144,o),
(354,94,o),
(288,94,cs)
);
}
);
width = 556;
},
{
layerId = "897933B7-C84C-4064-92EC-D6ECCFA4703E";
shapes = (
{
closed = 1;
nodes = (
(408,-10,o),
(512,88,o),
(512,208,cs),
(512,338,o),
(424,426,o),
(298,426,cs),
(253,426,o),
(228,417,o),
(206,400,c),
(206,728,l),
(64,728,l),
(64,208,ls),
(64,78,o),
(158,-10,o),
(288,-10,cs)
);
},
{
closed = 1;
nodes = (
(244,136,o),
(211,171,o),
(211,213,cs),
(211,258,o),
(244,289,o),
(285,289,cs),
(333,289,o),
(362,254,o),
(362,213,cs),
(362,171,o),
(331,136,o),
(285,136,cs)
);
}
);
width = 556;
},
{
layerId = "25766E5E-5561-4FF8-A834-795F30B85D44";
shapes = (
{
closed = 1;
nodes = (
(408,-10,o),
(512,88,o),
(512,208,cs),
(512,338,o),
(424,426,o),
(298,426,cs),
(246,426,o),
(200,408,o),
(176,380,c),
(176,728,l),
(64,728,l),
(64,208,ls),
(64,78,o),
(158,-10,o),
(288,-10,cs)
);
},
{
closed = 1;
nodes = (
(224,94,o),
(176,144,o),
(176,208,cs),
(176,274,o),
(224,322,o),
(288,322,cs),
(354,322,o),
(400,274,o),
(400,208,cs),
(400,144,o),
(354,94,o),
(288,94,cs)
);
}
);
width = 556;
}
);
unicode = 98;
},
{
glyphname = c;
lastChange = "2025-07-15 02:38:07 +0000";
layers = (
{
layerId = "2374D0AB-F754-483B-81AF-B87FF6AEB1B2";
shapes = (
{
closed = 1;
nodes = (
(326,-10,o),
(382,14,o),
(422,56,c),
(348,128,l),
(328,108,o),
(298,94,o),
(268,94,cs),
(204,94,o),
(156,144,o),
(156,208,cs),
(156,274,o),
(204,322,o),
(268,322,cs),
(300,322,o),
(328,310,o),
(350,290,c),
(424,364,l),
(380,408,o),
(330,426,o),
(268,426,cs),
(148,426,o),
(44,328,o),
(44,208,cs),
(44,78,o),
(138,-10,o),
(268,-10,cs)
);
}
);
width = 464;
},
{
layerId = m01;
shapes = (
{
closed = 1;
nodes = (
(326,-10,o),
(382,14,o),
(422,56,c),
(348,128,l),
(328,108,o),
(298,94,o),
(268,94,cs),
(204,94,o),
(156,144,o),
(156,208,cs),
(156,274,o),
(204,322,o),
(268,322,cs),
(300,322,o),
(328,310,o),
(350,290,c),
(424,364,l),
(380,408,o),
(330,426,o),
(268,426,cs),
(148,426,o),
(44,328,o),
(44,208,cs),
(44,78,o),
(138,-10,o),
(268,-10,cs)
);
}
);
width = 464;
},
{
layerId = "897933B7-C84C-4064-92EC-D6ECCFA4703E";
shapes = (
{
closed = 1;
nodes = (
(326,-10,o),
(382,14,o),
(422,56,c),
(329,156,l),
(316,142,o),
(296,133,o),
(277,133,cs),
(234,133,o),
(203,166,o),
(203,208,cs),
(203,252,o),
(234,283,o),
(277,283,cs),
(297,283,o),
(316,275,o),
(330,262,c),
(424,364,l),
(380,408,o),
(330,426,o),
(268,426,cs),
(148,426,o),
(44,328,o),
(44,208,cs),
(44,78,o),
(138,-10,o),
(268,-10,cs)
);
}
);
width = 464;
},
{
layerId = "25766E5E-5561-4FF8-A834-795F30B85D44";
shapes = (
{
closed = 1;
nodes = (
(326,-10,o),
(382,14,o),
(422,56,c),
(348,128,l),
(328,108,o),
(298,94,o),
(268,94,cs),
(204,94,o),
(156,144,o),
(156,208,cs),
(156,274,o),
(204,322,o),
(268,322,cs),
(300,322,o),
(328,310,o),
(350,290,c),
(424,364,l),
(380,408,o),
(330,426,o),
(268,426,cs),
(148,426,o),
(44,328,o),
(44,208,cs),
(44,78,o),
(138,-10,o),
(268,-10,cs)
);
}
);
width = 464;
}
);
unicode = 99;
},
{
glyphname = d;
lastChange = "2025-07-15 02:38:07 +0000";
layers = (
{
layerId = "2374D0AB-F754-483B-81AF-B87FF6AEB1B2";
shapes = (
{
closed = 1;
nodes = (
(388,-10,o),
(492,88,o),
(492,208,cs),
(492,728,l),
(380,728,l),
(380,390,l),
(344,416,o),
(304,426,o),
(262,426,cs),
(144,426,o),
(44,328,o),
(44,208,cs),
(44,78,o),
(138,-10,o),
(268,-10,cs)
);
},
{
closed = 1;
nodes = (
(204,94,o),
(156,144,o),
(156,208,cs),
(156,274,o),
(204,322,o),
(268,322,cs),
(334,322,o),
(380,274,o),
(380,208,cs),
(380,144,o),
(334,94,o),
(268,94,cs)
);
}
);
width = 548;
},
{
layerId = m01;
shapes = (
{
closed = 1;
nodes = (
(388,-10,o),
(492,88,o),
(492,208,cs),
(492,728,l),
(380,728,l),
(380,390,l),
(344,416,o),
(304,426,o),
(262,426,cs),
(144,426,o),
(44,328,o),
(44,208,cs),
(44,78,o),
(138,-10,o),
(268,-10,cs)
);
},
{
closed = 1;
nodes = (
(204,94,o),
(156,144,o),
(156,208,cs),
(156,274,o),
(204,322,o),
(268,322,cs),
(334,322,o),
(380,274,o),
(380,208,cs),
(380,144,o),
(334,94,o),
(268,94,cs)
);
}
);
width = 548;
},
{
layerId = "897933B7-C84C-4064-92EC-D6ECCFA4703E";
shapes = (
{
closed = 1;
nodes = (
(398,-10,o),
(492,78,o),
(492,208,cs),
(492,728,l),
(350,728,l),
(350,400,l),
(328,417,o),
(303,426,o),
(258,426,cs),
(132,426,o),
(44,338,o),
(44,208,cs),
(44,88,o),
(148,-10,o),
(268,-10,cs)
);
},
{
closed = 1;
nodes = (
(225,136,o),
(194,171,o),
(194,213,cs),
(194,254,o),
(223,289,o),
(271,289,cs),
(312,289,o),
(345,258,o),
(345,213,cs),
(345,171,o),
(312,136,o),
(271,136,cs)
);
}
);
width = 556;
},
{
layerId = "25766E5E-5561-4FF8-A834-795F30B85D44";
shapes = (
{
closed = 1;
nodes = (
(388,-10,o),
(492,88,o),
(492,208,cs),
(492,728,l),
(380,728,l),
(380,390,l),
(344,416,o),
(304,426,o),
(262,426,cs),
(144,426,o),
(44,328,o),
(44,208,cs),
(44,78,o),
(138,-10,o),
(268,-10,cs)
);
},
{
closed = 1;
nodes = (
(204,94,o),
(156,144,o),
(156,208,cs),
(156,274,o),
(204,322,o),
(268,322,cs),
(334,322,o),
(380,274,o),
(380,208,cs),
(380,144,o),
(334,94,o),
(268,94,cs)
);
}
);
width = 548;
}
);
unicode = 100;
},
{
glyphname = e;
lastChange = "2025-07-15 02:38:07 +0000";
layers = (
{
layerId = "2374D0AB-F754-483B-81AF-B87FF6AEB1B2";
shapes = (
{
closed = 1;
nodes = (
(349,-9,o),
(408,27,o),
(451,73,c),
(371,139,l),
(341,107,o),
(314,90,o),
(264,90,cs),
(210,90,o),
(167,122,o),
(154,173,c),
(463,173,l),
(464,188,o),
(464,189,o),
(464,216,cs),
(464,330,o),
(381,425,o),
(256,425,cs),
(130,425,o),
(44,332,o),
(44,209,cs),
(44,73,o),
(137,-9,o),
(263,-9,cs)
);
},
{
closed = 1;
nodes = (
(308,330,o),
(338,296,o),
(349,256,c),
(157,256,l),
(171,299,o),
(206,330,o),
(256,330,cs)
);
}
);
userData = {
public.truetype.instructions = {
formatVersion = "1";
id = f2442038472d54d6dff73e29d00037df19e1072611230fe87cc1d627b4e4c0454433e124a7ffc2f6de768eac7e79d18521f6c1a693907d15e3c84440ee712a00;
};
};
width = 508;
},
{
layerId = m01;
shapes = (
{
closed = 1;
nodes = (
(349,-9,o),
(408,27,o),
(451,73,c),
(371,139,l),
(341,107,o),
(314,90,o),
(264,90,cs),
(210,90,o),
(167,122,o),
(154,173,c),
(463,173,l),
(464,188,o),
(464,189,o),
(464,216,cs),
(464,330,o),
(381,425,o),
(256,425,cs),
(130,425,o),
(44,332,o),
(44,209,cs),
(44,73,o),
(137,-9,o),
(263,-9,cs)
);
},
{
closed = 1;
nodes = (
(308,330,o),
(338,296,o),
(349,256,c),
(157,256,l),
(171,299,o),
(206,330,o),
(256,330,cs)
);
}
);
userData = {
public.truetype.instructions = {
formatVersion = "1";
id = f2442038472d54d6dff73e29d00037df19e1072611230fe87cc1d627b4e4c0454433e124a7ffc2f6de768eac7e79d18521f6c1a693907d15e3c84440ee712a00;
};
};
width = 508;
},
{
layerId = "897933B7-C84C-4064-92EC-D6ECCFA4703E";
shapes = (
{
closed = 1;
nodes = (
(349,-9,o),
(408,27,o),
(451,73,c),
(326,151,l),
(306,130,o),
(289,119,o),
(256,119,cs),
(220,119,o),
(192,140,o),
(184,173,c),
(463,173,l),
(464,188,o),
(464,189,o),
(464,216,cs),
(464,330,o),
(381,425,o),
(256,425,cs),
(130,425,o),
(44,332,o),
(44,209,cs),
(44,73,o),
(137,-9,o),
(263,-9,cs)
);
},
{
closed = 1;
nodes = (
(295,320,o),
(317,296,o),
(325,266,c),
(184,266,l),
(194,297,o),
(220,320,o),
(256,320,cs)
);
}
);
userData = {
public.truetype.instructions = {
formatVersion = "1";
id = f2442038472d54d6dff73e29d00037df19e1072611230fe87cc1d627b4e4c0454433e124a7ffc2f6de768eac7e79d18521f6c1a693907d15e3c84440ee712a00;
};
};
width = 508;
},
{
layerId = "25766E5E-5561-4FF8-A834-795F30B85D44";
shapes = (
{
closed = 1;
nodes = (
(349,-9,o),
(408,27,o),
(451,73,c),
(371,139,l),
(341,107,o),
(314,90,o),
(264,90,cs),
(210,90,o),
(167,122,o),
(154,173,c),
(463,173,l),
(464,188,o),
(464,189,o),
(464,216,cs),
(464,330,o),
(381,425,o),
(256,425,cs),
(130,425,o),
(44,332,o),
(44,209,cs),
(44,73,o),
(137,-9,o),
(263,-9,cs)
);
},
{
closed = 1;
nodes = (
(308,330,o),
(338,296,o),
(349,256,c),
(157,256,l),
(171,299,o),
(206,330,o),
(256,330,cs)
);
}
);
userData = {
public.truetype.instructions = {
formatVersion = "1";
id = f2442038472d54d6dff73e29d00037df19e1072611230fe87cc1d627b4e4c0454433e124a7ffc2f6de768eac7e79d18521f6c1a693907d15e3c84440ee712a00;
};
};
width = 508;
}
);
unicode = 101;
},
{
glyphname = f;
lastChange = "2025-07-15 02:38:07 +0000";
layers = (
{
layerId = "2374D0AB-F754-483B-81AF-B87FF6AEB1B2";
shapes = (
{
closed = 1;
nodes = (
(185,0,l),
(185,312,l),
(251,312,l),
(251,416,l),
(185,416,l),
(185,572,ls),
(185,603,o),
(206,624,o),
(237,624,cs),
(246,624,l),
(246,728,l),
(229,728,ls),
(138,728,o),
(73,663,o),
(73,572,cs),
(73,416,l),
(-3,416,l),
(-3,312,l),
(73,312,l),
(73,0,l)
);
}
);
width = 263;
},
{
layerId = m01;
shapes = (
{
closed = 1;
nodes = (
(185,0,l),
(185,312,l),
(251,312,l),
(251,416,l),
(185,416,l),
(185,572,ls),
(185,613,o),
(209,624,o),
(257,624,cs),
(266,624,l),
(266,728,l),
(229,728,ls),
(138,728,o),
(73,663,o),
(73,572,cs),
(73,416,l),
(-3,416,l),
(-3,312,l),
(73,312,l),
(73,0,l)
);
}
);
width = 263;
},
{
layerId = "897933B7-C84C-4064-92EC-D6ECCFA4703E";
shapes = (
{
closed = 1;
nodes = (
(195,0,l),
(195,282,l),
(261,282,l),
(261,416,l),
(195,416,l),
(195,537,ls),
(195,578,o),
(219,589,o),
(267,589,cs),
(276,589,l),
(276,728,l),
(239,728,ls),
(148,728,o),
(53,663,o),
(53,572,cs),
(53,416,l),
(-13,416,l),
(-13,282,l),
(53,282,l),
(53,0,l)
);
}
);
width = 263;
},
{
layerId = "25766E5E-5561-4FF8-A834-795F30B85D44";
shapes = (
{
closed = 1;
nodes = (
(200,0,l),
(200,312,l),
(266,312,l),
(266,416,l),
(200,416,l),
(200,572,ls),
(200,613,o),
(224,624,o),
(272,624,cs),
(281,624,l),
(281,728,l),
(244,728,ls),
(153,728,o),
(88,663,o),
(88,572,cs),
(88,416,l),
(12,416,l),
(12,312,l),
(88,312,l),
(88,0,l)
);
}
);
width = 293;
}
);
unicode = 102;
},
{
glyphname = g;
lastChange = "2025-07-15 02:38:07 +0000";
layers = (
{
layerId = "2374D0AB-F754-483B-81AF-B87FF6AEB1B2";
shapes = (
{
closed = 1;
nodes = (
(384,-218,o),
(488,-130,o),
(488,0,cs),
(488,208,ls),
(488,338,o),
(394,426,o),
(264,426,cs),
(144,426,o),
(40,328,o),
(40,208,cs),
(40,78,o),
(128,-10,o),
(254,-10,cs),
(306,-10,o),
(354,8,o),
(378,36,c),
(378,0,ls),
(378,-68,o),
(332,-120,o),
(264,-120,cs),
(196,-120,o),
(150,-72,o),
(150,-4,c),
(44,-4,l),
(44,-136,o),
(132,-218,o),
(264,-218,cs)
);
},
{
closed = 1;
nodes = (
(200,94,o),
(152,144,o),
(152,208,cs),
(152,274,o),
(200,322,o),
(264,322,cs),
(330,322,o),
(376,274,o),
(376,208,cs),
(376,144,o),
(330,94,o),
(264,94,cs)
);
},
{
closed = 0;
nodes = (
(488,0,l),
(488,208,l)
);
},
{
closed = 1;
nodes = (
(408,37,l),
(408,1,l),
(488,1,l),
(488,261,ls),
(488,291,o),
(508,313,o),
(540,313,cs),
(544,313,l),
(544,417,l),
(530,417,ls),
(482,417,o),
(442,399,o),
(416,367,c)
);
}
);
width = 556;
},
{
layerId = m01;
shapes = (
{
closed = 1;
nodes = (
(200,94,o),
(152,144,o),
(152,208,cs),
(152,274,o),
(200,322,o),
(264,322,cs),
(330,322,o),
(376,274,o),
(376,208,cs),
(376,144,o),
(330,94,o),
(264,94,cs)
);
},
{
closed = 1;
nodes = (
(488,261,ls),
(488,291,o),
(508,313,o),
(540,313,cs),
(544,313,l),
(544,417,l),
(530,417,ls),
(484,417,o),
(445,390,o),
(419,361,c),
(380,396,o),
(326,426,o),
(264,426,cs),
(144,426,o),
(40,328,o),
(40,208,cs),
(40,78,o),
(128,-10,o),
(254,-10,cs),
(306,-10,o),
(354,8,o),
(378,36,c),
(378,25,l),
(488,25,l)
);
},
{
closed = 1;
nodes = (
(488,-34,l),
(488,-113,o),
(396,-210,o),
(311,-210,q),
(95,-210,l),
(95,-112,l),
(294,-112,l),
(331,-112,o),
(378,-62,o),
(378,-22,q),
(378,25,l),
(488,25,l)
);
}
);
width = 556;
},
{
layerId = "897933B7-C84C-4064-92EC-D6ECCFA4703E";
shapes = (
{
closed = 1;
nodes = (
(508,221,ls),
(508,251,o),
(508,273,o),
(540,273,cs),
(544,273,l),
(544,417,l),
(530,417,ls),
(484,417,o),
(445,390,o),
(419,361,c),
(380,396,o),
(326,426,o),
(264,426,cs),
(144,426,o),
(40,328,o),
(40,208,cs),
(40,78,o),
(128,-10,o),
(254,-10,cs),
(306,-10,o),
(344,-2,o),
(368,26,c),
(368,15,l),
(508,25,l)
);
},
{
closed = 1;
nodes = (
(508,-34,l),
(508,-113,o),
(396,-210,o),
(311,-210,q),
(95,-210,l),
(95,-72,l),
(294,-72,l),
(331,-72,o),
(367,-46,o),
(368,-32,q),
(368,15,l),
(508,25,l)
);
},
{
closed = 1;
nodes = (
(234,126,o),
(201,161,o),
(201,203,cs),
(201,248,o),
(234,279,o),
(275,279,cs),
(323,279,o),
(352,244,o),
(352,203,cs),
(352,161,o),
(321,126,o),
(275,126,cs)
);
}
);
width = 556;
},
{
layerId = "25766E5E-5561-4FF8-A834-795F30B85D44";
shapes = (
{
closed = 1;
nodes = (
(200,94,o),
(152,144,o),
(152,208,cs),
(152,274,o),
(200,322,o),
(264,322,cs),
(330,322,o),
(376,274,o),
(376,208,cs),
(376,144,o),
(330,94,o),
(264,94,cs)
);
},
{
closed = 1;
nodes = (
(488,261,ls),
(488,291,o),
(508,313,o),
(540,313,cs),
(544,313,l),
(544,417,l),
(530,417,ls),
(484,417,o),
(445,390,o),
(419,361,c),
(380,396,o),
(326,426,o),
(264,426,cs),
(144,426,o),
(40,328,o),
(40,208,cs),
(40,78,o),
(128,-10,o),
(254,-10,cs),
(306,-10,o),
(354,8,o),
(378,36,c),
(378,25,l),
(488,25,l)
);
},
{
closed = 1;
nodes = (
(488,-34,l),
(488,-113,o),
(396,-210,o),
(311,-210,q),
(95,-210,l),
(95,-112,l),
(294,-112,l),
(331,-112,o),
(378,-62,o),
(378,-22,q),
(378,25,l),
(488,25,l)
);
}
);
width = 556;
}
);
unicode = 103;
},
{
glyphname = h;
lastChange = "2025-07-15 02:38:07 +0000";
layers = (
{
layerId = "2374D0AB-F754-483B-81AF-B87FF6AEB1B2";
shapes = (
{
closed = 1;
nodes = (
(184,0,l),
(184,208,ls),
(184,274,o),
(232,322,o),
(296,322,cs),
(362,322,o),
(408,274,o),
(408,208,cs),
(408,0,l),
(520,0,l),
(520,208,ls),
(520,338,o),
(432,426,o),
(306,426,cs),
(254,426,o),
(208,408,o),
(184,380,c),
(184,728,l),
(72,728,l),
(72,0,l)
);
}
);
userData = {
public.truetype.instructions = {
formatVersion = "1";
id = b79ff194f92655e30223915571a308e7beca183c3d02cfdcfdc4738d89903ecab3be8fef2242f96a6e9a308c4e2412b7fbf7cf4780a856cd52c55b8953503bc8;
};
};
width = 584;
},
{
layerId = m01;
shapes = (
{
closed = 1;
nodes = (
(184,0,l),
(184,208,ls),
(184,274,o),
(232,322,o),
(296,322,cs),
(362,322,o),
(408,274,o),
(408,208,cs),
(408,0,l),
(520,0,l),
(520,208,ls),
(520,338,o),
(432,426,o),
(306,426,cs),
(254,426,o),
(208,408,o),
(184,380,c),
(184,728,l),
(72,728,l),
(72,0,l)
);
}
);
userData = {
public.truetype.instructions = {
formatVersion = "1";
id = b79ff194f92655e30223915571a308e7beca183c3d02cfdcfdc4738d89903ecab3be8fef2242f96a6e9a308c4e2412b7fbf7cf4780a856cd52c55b8953503bc8;
};
};
width = 584;
},
{
layerId = "897933B7-C84C-4064-92EC-D6ECCFA4703E";
shapes = (
{
closed = 1;
nodes = (
(218,0,l),
(218,156,ls),
(218,202,o),
(251,235,o),
(295,235,cs),
(342,235,o),
(374,202,o),
(374,156,cs),
(374,0,l),
(520,0,l),
(520,208,ls),
(520,338,o),
(432,426,o),
(306,426,cs),
(254,426,o),
(233,418,o),
(204,400,c),
(204,728,l),
(62,728,l),
(62,0,l)
);
}
);
userData = {
public.truetype.instructions = {
formatVersion = "1";
id = b79ff194f92655e30223915571a308e7beca183c3d02cfdcfdc4738d89903ecab3be8fef2242f96a6e9a308c4e2412b7fbf7cf4780a856cd52c55b8953503bc8;
};
};
width = 584;
},
{
layerId = "25766E5E-5561-4FF8-A834-795F30B85D44";
shapes = (
{
closed = 1;
nodes = (
(184,0,l),
(184,208,ls),
(184,274,o),
(232,322,o),
(296,322,cs),
(362,322,o),
(408,274,o),
(408,208,cs),
(408,0,l),
(520,0,l),
(520,208,ls),
(520,338,o),
(432,426,o),
(306,426,cs),
(254,426,o),
(208,408,o),
(184,380,c),
(184,728,l),
(72,728,l),
(72,0,l)
);
}
);
userData = {
public.truetype.instructions = {
formatVersion = "1";
id = b79ff194f92655e30223915571a308e7beca183c3d02cfdcfdc4738d89903ecab3be8fef2242f96a6e9a308c4e2412b7fbf7cf4780a856cd52c55b8953503bc8;
};
};
width = 584;
}
);
unicode = 104;
},
{
glyphname = i;
lastChange = "2025-07-15 02:38:07 +0000";
layers = (
{
layerId = "2374D0AB-F754-483B-81AF-B87FF6AEB1B2";
shapes = (
{
closed = 1;
nodes = (
(166,600,o),
(196,632,o),
(196,670,cs),
(196,708,o),
(166,738,o),
(128,738,cs),
(90,738,o),
(58,708,o),
(58,670,cs),
(58,632,o),
(90,600,o),
(128,600,cs)
);
},
{
closed = 1;
nodes = (
(182,0,l),
(182,416,l),
(70,416,l),
(70,0,l)
);
}
);
width = 254;
},
{
layerId = m01;
shapes = (
{
closed = 1;
nodes = (
(166,500,o),
(196,532,o),
(196,570,cs),
(196,608,o),
(166,638,o),
(128,638,cs),
(90,638,o),
(58,608,o),
(58,570,cs),
(58,532,o),
(90,500,o),
(128,500,cs)
);
},
{
closed = 1;
nodes = (
(182,0,l),
(182,416,l),
(70,416,l),
(70,0,l)
);
}
);
width = 254;
},
{
layerId = "897933B7-C84C-4064-92EC-D6ECCFA4703E";
shapes = (
{
closed = 1;
nodes = (
(174,500,o),
(214,542,o),
(214,590,cs),
(214,638,o),
(174,677,o),
(126,677,cs),
(79,677,o),
(37,638,o),
(37,590,cs),
(37,542,o),
(79,500,o),
(126,500,cs)
);
},
{
closed = 1;
nodes = (
(202,0,l),
(202,416,l),
(50,416,l),
(50,0,l)
);
}
);
width = 254;
},
{
layerId = "25766E5E-5561-4FF8-A834-795F30B85D44";
shapes = (
{
closed = 1;
nodes = (
(166,500,o),
(196,532,o),
(196,570,cs),
(196,608,o),
(166,638,o),
(128,638,cs),
(90,638,o),
(58,608,o),
(58,570,cs),
(58,532,o),
(90,500,o),
(128,500,cs)
);
},
{
closed = 1;
nodes = (
(182,0,l),
(182,416,l),
(70,416,l),
(70,0,l)
);
}
);
width = 254;
}
);
unicode = 105;
},
{
glyphname = j;
lastChange = "2025-07-15 02:38:07 +0000";
layers = (
{
layerId = "2374D0AB-F754-483B-81AF-B87FF6AEB1B2";
shapes = (
{
closed = 1;
nodes = (
(138,600,o),
(168,632,o),
(168,670,cs),
(168,708,o),
(138,738,o),
(100,738,cs),
(62,738,o),
(30,708,o),
(30,670,cs),
(30,632,o),
(62,600,o),
(100,600,cs)
);
},
{
closed = 1;
nodes = (
(-2,-208,ls),
(88,-208,o),
(154,-144,o),
(154,-52,cs),
(154,416,l),
(42,416,l),
(42,-52,ls),
(42,-84,o),
(20,-104,o),
(-10,-104,cs),
(-20,-104,l),
(-20,-208,l)
);
}
);
width = 226;
},
{
layerId = m01;
shapes = (
{
closed = 1;
nodes = (
(138,500,o),
(168,532,o),
(168,570,cs),
(168,608,o),
(138,638,o),
(100,638,cs),
(62,638,o),
(30,608,o),
(30,570,cs),
(30,532,o),
(62,500,o),
(100,500,cs)
);
},
{
closed = 1;
nodes = (
(-2,-208,ls),
(88,-208,o),
(154,-144,o),
(154,-52,cs),
(154,416,l),
(42,416,l),
(42,-52,ls),
(42,-84,o),
(20,-104,o),
(-10,-104,cs),
(-40,-104,l),
(-40,-208,l)
);
}
);
width = 226;
},
{
layerId = "897933B7-C84C-4064-92EC-D6ECCFA4703E";
shapes = (
{
closed = 1;
nodes = (
(174,500,o),
(214,542,o),
(214,590,cs),
(214,638,o),
(174,677,o),
(126,677,cs),
(79,677,o),
(37,638,o),
(37,590,cs),
(37,542,o),
(79,500,o),
(126,500,cs)
);
},
{
closed = 1;
nodes = (
(-2,-208,ls),
(111,-208,o),
(202,-131,o),
(202,-52,cs),
(202,416,l),
(42,416,l),
(42,-12,ls),
(42,-44,o),
(20,-64,o),
(-10,-64,cs),
(-40,-64,l),
(-40,-208,l)
);
}
);
width = 226;
},
{
layerId = "25766E5E-5561-4FF8-A834-795F30B85D44";
shapes = (
{
closed = 1;
nodes = (
(138,500,o),
(168,532,o),
(168,570,cs),
(168,608,o),
(138,638,o),
(100,638,cs),
(62,638,o),
(30,608,o),
(30,570,cs),
(30,532,o),
(62,500,o),
(100,500,cs)
);
},
{
closed = 1;
nodes = (
(-2,-208,ls),
(88,-208,o),
(154,-144,o),
(154,-52,cs),
(154,416,l),
(42,416,l),
(42,-52,ls),
(42,-84,o),
(20,-104,o),
(-10,-104,cs),
(-40,-104,l),
(-40,-208,l)
);
}
);
width = 226;
}
);
unicode = 106;
},
{
glyphname = k;
lastChange = "2025-07-15 02:38:07 +0000";
layers = (
{
layerId = "2374D0AB-F754-483B-81AF-B87FF6AEB1B2";
shapes = (
{
closed = 1;
nodes = (
(285,400,l),
(124,240,l),
(124,728,l),
(25,728,l),
(25,0,l),
(124,0,l),
(124,98,l),
(154.58,128.51,l),
(284,0,l),
(422,0,l),
(224.91,199.15,l),
(422,400,l)
);
}
);
width = 450;
},
{
layerId = m01;
shapes = (
{
closed = 1;
nodes = (
(184,0,l),
(184,146,l),
(218,175,l),
(372,0,l),
(498,0,l),
(289,237,l),
(496,416,l),
(368,416,l),
(184,260,l),
(184,728,l),
(72,728,l),
(72,0,l)
);
}
);
width = 538;
},
{
layerId = "897933B7-C84C-4064-92EC-D6ECCFA4703E";
shapes = (
{
closed = 1;
nodes = (
(184,0,l),
(184,116,l),
(218,145,l),
(312,0,l),
(498,0,l),
(319,237,l),
(506,416,l),
(328,416,l),
(184,290,l),
(184,728,l),
(42,728,l),
(42,0,l)
);
}
);
width = 538;
},
{
layerId = "25766E5E-5561-4FF8-A834-795F30B85D44";
shapes = (
{
closed = 1;
nodes = (
(184,0,l),
(184,146,l),
(218,175,l),
(372,0,l),
(498,0,l),
(289,237,l),
(496,416,l),
(368,416,l),
(184,260,l),
(184,728,l),
(72,728,l),
(72,0,l)
);
}
);
width = 538;
}
);
unicode = 107;
},
{
glyphname = l;
lastChange = "2025-07-15 02:38:07 +0000";
layers = (
{
layerId = "2374D0AB-F754-483B-81AF-B87FF6AEB1B2";
shapes = (
{
closed = 1;
nodes = (
(180,200,l),
(180,728,l),
(68,728,l),
(68,200,l)
);
},
{
closed = 1;
nodes = (
(242,0,l),
(242,104,l),
(232,104,ls),
(200,104,o),
(180,126,o),
(180,156,cs),
(180,416,l),
(68,416,l),
(68,156,ls),
(68,66,o),
(132,0,o),
(224,0,cs)
);
}
);
width = 248;
},
{
layerId = m01;
shapes = (
{
closed = 1;
nodes = (
(262,0,l),
(262,104,l),
(232,104,ls),
(200,104,o),
(180,126,o),
(180,156,cs),
(180,728,l),
(68,728,l),
(68,156,ls),
(68,66,o),
(132,0,o),
(224,0,cs)
);
}
);
width = 248;
},
{
layerId = "897933B7-C84C-4064-92EC-D6ECCFA4703E";
shapes = (
{
closed = 1;
nodes = (
(262,0,l),
(262,144,l),
(232,144,ls),
(210,144,o),
(190,164,o),
(190,186,cs),
(190,728,l),
(48,728,l),
(48,156,ls),
(48,66,o),
(132,0,o),
(224,0,cs)
);
}
);
width = 248;
},
{
layerId = "25766E5E-5561-4FF8-A834-795F30B85D44";
shapes = (
{
closed = 1;
nodes = (
(254,0,l),
(254,104,l),
(224,104,ls),
(192,104,o),
(172,126,o),
(172,156,cs),
(172,728,l),
(60,728,l),
(60,156,ls),
(60,66,o),
(124,0,o),
(216,0,cs)
);
}
);
width = 294;
}
);
unicode = 108;
},
{
glyphname = m;
lastChange = "2025-07-15 02:38:07 +0000";
layers = (
{
layerId = "2374D0AB-F754-483B-81AF-B87FF6AEB1B2";
shapes = (
{
closed = 1;
nodes = (
(228,0,l),
(228,208,ls),
(228,274,o),
(246,322,o),
(310,322,cs),
(376,322,o),
(402,274,o),
(402,208,cs),
(402,0,l),
(514,0,l),
(514,208,ls),
(514,274,o),
(540,322,o),
(606,322,cs),
(670,322,o),
(688,274,o),
(688,208,cs),
(688,0,l),
(800,0,l),
(800,208,ls),
(800,338,o),
(738,426,o),
(608,426,cs),
(546,426,o),
(504,400,o),
(462,356,c),
(422,400,o),
(384,426,o),
(312,426,cs),
(198,426,o),
(116,338,o),
(116,208,cs),
(116,0,l)
);
},
{
closed = 1;
nodes = (
(162,399,o),
(122,417,o),
(74,417,cs),
(60,417,l),
(60,313,l),
(64,313,ls),
(96,313,o),
(116,291,o),
(116,261,cs),
(116,1,l),
(196,1,l),
(196,37,l),
(188,367,l)
);
}
);
width = 866;
},
{
layerId = m01;
shapes = (
{
closed = 1;
nodes = (
(228,0,l),
(228,208,ls),
(228,274,o),
(246,322,o),
(310,322,cs),
(376,322,o),
(402,274,o),
(402,208,cs),
(402,0,l),
(514,0,l),
(514,208,ls),
(514,274,o),
(540,322,o),
(606,322,cs),
(670,322,o),
(688,274,o),
(688,208,cs),
(688,0,l),
(800,0,l),
(800,208,ls),
(800,338,o),
(738,426,o),
(608,426,cs),
(546,426,o),
(504,400,o),
(462,356,c),
(422,400,o),
(384,426,o),
(312,426,cs),
(260,426,o),
(215,403,o),
(181,370,c),
(155,397,o),
(118,417,o),
(74,417,cs),
(60,417,l),
(60,313,l),
(64,313,ls),
(96,313,o),
(116,291,o),
(116,261,cs),
(116,0,l)
);
}
);
width = 866;
},
{
layerId = "897933B7-C84C-4064-92EC-D6ECCFA4703E";
shapes = (
{
closed = 1;
nodes = (
(266,0,l),
(266,143,ls),
(266,188,o),
(278,221,o),
(322,221,cs),
(368,221,o),
(386,188,o),
(386,143,cs),
(386,0,l),
(524,0,l),
(524,152,ls),
(524,200,o),
(543,235,o),
(591,235,cs),
(638,235,o),
(651,200,o),
(651,152,cs),
(651,0,l),
(800,0,l),
(800,208,ls),
(800,338,o),
(738,426,o),
(608,426,cs),
(546,426,o),
(504,400,o),
(462,356,c),
(422,400,o),
(384,426,o),
(312,426,cs),
(260,426,o),
(215,403,o),
(181,370,c),
(155,397,o),
(118,417,o),
(74,417,cs),
(60,417,l),
(60,253,l),
(64,253,ls),
(96,253,o),
(116,231,o),
(116,201,cs),
(116,0,l)
);
}
);
width = 866;
},
{
layerId = "25766E5E-5561-4FF8-A834-795F30B85D44";
shapes = (
{
closed = 1;
nodes = (
(228,0,l),
(228,208,ls),
(228,274,o),
(246,322,o),
(310,322,cs),
(376,322,o),
(402,274,o),
(402,208,cs),
(402,0,l),
(514,0,l),
(514,208,ls),
(514,274,o),
(540,322,o),
(606,322,cs),
(670,322,o),
(688,274,o),
(688,208,cs),
(688,0,l),
(800,0,l),
(800,208,ls),
(800,338,o),
(738,426,o),
(608,426,cs),
(546,426,o),
(504,400,o),
(462,356,c),
(422,400,o),
(384,426,o),
(312,426,cs),
(260,426,o),
(215,403,o),
(181,370,c),
(155,397,o),
(118,417,o),
(74,417,cs),
(60,417,l),
(60,313,l),
(64,313,ls),
(96,313,o),
(116,291,o),
(116,261,cs),
(116,0,l)
);
}
);
width = 866;
}
);
unicode = 109;
},
{
glyphname = n;
lastChange = "2025-07-15 02:38:07 +0000";
layers = (
{
layerId = "2374D0AB-F754-483B-81AF-B87FF6AEB1B2";
shapes = (
{
closed = 1;
nodes = (
(76,0,l),
(76,208,ls),
(76,327,o),
(133,412,o),
(238,413,cs),
(356,414,o),
(390,330,o),
(390,208,cs),
(390,0,l),
(402,0,l),
(402,208,ls),
(402,338,o),
(370,426,o),
(240,426,cs),
(155,426,o),
(99,377,o),
(76,299,c),
(77,358,o),
(74,414,o),
(22,414,cs),
(8,414,l),
(8,402,l),
(12,402,ls),
(54,402,o),
(64,379,o),
(64,260,cs),
(64,0,l)
);
},
{
closed = 0;
nodes = (
(64,208,l),
(64,0,l)
);
}
);
width = 576;
},
{
layerId = m01;
shapes = (
{
closed = 1;
nodes = (
(228,274,o),
(261,322,o),
(325,322,cs),
(391,322,o),
(422,274,o),
(422,208,cs),
(422,0,l),
(534,0,l),
(534,208,ls),
(534,338,o),
(457,426,o),
(327,426,cs),
(267,426,o),
(211,398,o),
(172,356,c),
(148,384,o),
(116,416,o),
(74,416,cs),
(60,416,l),
(60,312,l),
(64,312,ls),
(96,312,o),
(116,290,o),
(116,260,cs),
(116,0,l),
(228,0,l),
(228,208,ls)
);
}
);
width = 610;
},
{
layerId = "897933B7-C84C-4064-92EC-D6ECCFA4703E";
shapes = (
{
closed = 1;
nodes = (
(258,189,o),
(280,222,o),
(324,222,cs),
(369,222,o),
(391,189,o),
(391,144,cs),
(391,0,l),
(534,0,l),
(534,208,ls),
(534,338,o),
(457,426,o),
(327,426,cs),
(267,426,o),
(211,398,o),
(172,356,c),
(148,384,o),
(116,416,o),
(74,416,cs),
(60,416,l),
(60,252,l),
(64,252,ls),
(96,252,o),
(116,230,o),
(116,200,cs),
(116,0,l),
(258,0,l),
(258,144,ls)
);
}
);
width = 610;
},
{
layerId = "25766E5E-5561-4FF8-A834-795F30B85D44";
shapes = (
{
closed = 1;
nodes = (
(228,274,o),
(261,322,o),
(325,322,cs),
(391,322,o),
(422,274,o),
(422,208,cs),
(422,0,l),
(534,0,l),
(534,208,ls),
(534,338,o),
(457,426,o),
(327,426,cs),
(267,426,o),
(211,398,o),
(172,356,c),
(148,384,o),
(116,416,o),
(74,416,cs),
(60,416,l),
(60,312,l),
(64,312,ls),
(96,312,o),
(116,290,o),
(116,260,cs),
(116,0,l),
(228,0,l),
(228,208,ls)
);
}
);
width = 610;
}
);
unicode = 110;
},
{
glyphname = o;
lastChange = "2025-07-15 02:38:07 +0000";
layers = (
{
layerId = "2374D0AB-F754-483B-81AF-B87FF6AEB1B2";
shapes = (
{
closed = 1;
nodes = (
(388,-10,o),
(492,98,o),
(492,208,cs),
(492,338,o),
(395,426,o),
(268,426,cs),
(148,426,o),
(45,318,o),
(45,208,cs),
(45,78,o),
(142,-10,o),
(268,-10,cs)
);
},
{
closed = 1;
nodes = (
(148,1,o),
(57,85,o),
(57,207,cs),
(57,312,o),
(153,415,o),
(268,415,cs),
(388,415,o),
(479,331,o),
(479,207,cs),
(479,104,o),
(381,1,o),
(268,1,cs)
);
}
);
width = 536;
},
{
layerId = m01;
shapes = (
{
closed = 1;
nodes = (
(388,-10,o),
(492,88,o),
(492,208,cs),
(492,338,o),
(398,426,o),
(268,426,cs),
(148,426,o),
(44,328,o),
(44,208,cs),
(44,78,o),
(138,-10,o),
(268,-10,cs)
);
},
{
closed = 1;
nodes = (
(204,94,o),
(156,144,o),
(156,208,cs),
(156,274,o),
(204,322,o),
(268,322,cs),
(334,322,o),
(380,274,o),
(380,208,cs),
(380,144,o),
(334,94,o),
(268,94,cs)
);
}
);
width = 536;
},
{
layerId = "897933B7-C84C-4064-92EC-D6ECCFA4703E";
shapes = (
{
closed = 1;
nodes = (
(388,-10,o),
(492,88,o),
(492,208,cs),
(492,338,o),
(398,426,o),
(268,426,cs),
(148,426,o),
(44,328,o),
(44,208,cs),
(44,78,o),
(138,-10,o),
(268,-10,cs)
);
},
{
closed = 1;
nodes = (
(227,131,o),
(194,166,o),
(194,208,cs),
(194,253,o),
(227,284,o),
(268,284,cs),
(316,284,o),
(345,249,o),
(345,208,cs),
(345,166,o),
(314,131,o),
(268,131,cs)
);
}
);
width = 536;
},
{
layerId = "25766E5E-5561-4FF8-A834-795F30B85D44";
shapes = (
{
closed = 1;
nodes = (
(388,-10,o),
(492,88,o),
(492,208,cs),
(492,338,o),
(398,426,o),
(268,426,cs),
(148,426,o),
(44,328,o),
(44,208,cs),
(44,78,o),
(138,-10,o),
(268,-10,cs)
);
},
{
closed = 1;
nodes = (
(204,94,o),
(156,144,o),
(156,208,cs),
(156,274,o),
(204,322,o),
(268,322,cs),
(334,322,o),
(380,274,o),
(380,208,cs),
(380,144,o),
(334,94,o),
(268,94,cs)
);
}
);
width = 536;
}
);
unicode = 111;
},
{
glyphname = p;
lastChange = "2025-07-15 02:38:07 +0000";
layers = (
{
layerId = "2374D0AB-F754-483B-81AF-B87FF6AEB1B2";
shapes = (
{
closed = 1;
nodes = (
(156,-208,l),
(156,26,l),
(192,0,o),
(232,-10,o),
(274,-10,cs),
(392,-10,o),
(492,88,o),
(492,208,cs),
(492,338,o),
(398,426,o),
(268,426,cs),
(148,426,o),
(44,328,o),
(44,208,cs),
(44,-208,l)
);
},
{
closed = 1;
nodes = (
(204,94,o),
(156,144,o),
(156,208,cs),
(156,274,o),
(204,322,o),
(268,322,cs),
(334,322,o),
(380,274,o),
(380,208,cs),
(380,144,o),
(334,94,o),
(268,94,cs)
);
}
);
width = 556;
},
{
layerId = m01;
shapes = (
{
closed = 1;
nodes = (
(156,-208,l),
(156,26,l),
(192,0,o),
(232,-10,o),
(274,-10,cs),
(392,-10,o),
(492,88,o),
(492,208,cs),
(492,338,o),
(398,426,o),
(268,426,cs),
(148,426,o),
(44,328,o),
(44,208,cs),
(44,-208,l)
);
},
{
closed = 1;
nodes = (
(204,94,o),
(156,144,o),
(156,208,cs),
(156,274,o),
(204,322,o),
(268,322,cs),
(334,322,o),
(380,274,o),
(380,208,cs),
(380,144,o),
(334,94,o),
(268,94,cs)
);
}
);
width = 556;
},
{
layerId = "897933B7-C84C-4064-92EC-D6ECCFA4703E";
shapes = (
{
closed = 1;
nodes = (
(158,426,o),
(64,338,o),
(64,208,cs),
(64,-312,l),
(206,-312,l),
(206,16,l),
(228,-1,o),
(253,-10,o),
(298,-10,cs),
(424,-10,o),
(512,78,o),
(512,208,cs),
(512,328,o),
(408,426,o),
(288,426,cs)
);
},
{
closed = 1;
nodes = (
(331,280,o),
(362,245,o),
(362,203,cs),
(362,162,o),
(333,127,o),
(285,127,cs),
(244,127,o),
(211,158,o),
(211,203,cs),
(211,245,o),
(244,280,o),
(285,280,cs)
);
}
);
width = 556;
},
{
layerId = "25766E5E-5561-4FF8-A834-795F30B85D44";
shapes = (
{
closed = 1;
nodes = (
(156,-208,l),
(156,26,l),
(192,0,o),
(232,-10,o),
(274,-10,cs),
(392,-10,o),
(492,88,o),
(492,208,cs),
(492,338,o),
(398,426,o),
(268,426,cs),
(148,426,o),
(44,328,o),
(44,208,cs),
(44,-208,l)
);
},
{
closed = 1;
nodes = (
(204,94,o),
(156,144,o),
(156,208,cs),
(156,274,o),
(204,322,o),
(268,322,cs),
(334,322,o),
(380,274,o),
(380,208,cs),
(380,144,o),
(334,94,o),
(268,94,cs)
);
}
);
width = 536;
}
);
unicode = 112;
},
{
glyphname = q;
lastChange = "2025-07-15 02:38:07 +0000";
layers = (
{
layerId = "2374D0AB-F754-483B-81AF-B87FF6AEB1B2";
shapes = (
{
closed = 1;
nodes = (
(512,-208,l),
(512,208,ls),
(512,338,o),
(418,426,o),
(288,426,cs),
(168,426,o),
(64,328,o),
(64,208,cs),
(64,78,o),
(152,-10,o),
(278,-10,cs),
(330,-10,o),
(376,8,o),
(400,36,c),
(400,-208,l)
);
},
{
closed = 1;
nodes = (
(224,94,o),
(176,144,o),
(176,208,cs),
(176,274,o),
(224,322,o),
(288,322,cs),
(354,322,o),
(400,274,o),
(400,208,cs),
(400,144,o),
(354,94,o),
(288,94,cs)
);
}
);
width = 556;
},
{
layerId = m01;
shapes = (
{
closed = 1;
nodes = (
(512,-208,l),
(512,208,ls),
(512,338,o),
(418,426,o),
(288,426,cs),
(168,426,o),
(64,328,o),
(64,208,cs),
(64,78,o),
(152,-10,o),
(278,-10,cs),
(330,-10,o),
(376,8,o),
(400,36,c),
(400,-208,l)
);
},
{
closed = 1;
nodes = (
(224,94,o),
(176,144,o),
(176,208,cs),
(176,274,o),
(224,322,o),
(288,322,cs),
(354,322,o),
(400,274,o),
(400,208,cs),
(400,144,o),
(354,94,o),
(288,94,cs)
);
}
);
width = 556;
},
{
layerId = "897933B7-C84C-4064-92EC-D6ECCFA4703E";
shapes = (
{
closed = 1;
nodes = (
(148,426,o),
(44,328,o),
(44,208,cs),
(44,78,o),
(132,-10,o),
(258,-10,cs),
(303,-10,o),
(328,-1,o),
(350,16,c),
(350,-312,l),
(492,-312,l),
(492,208,ls),
(492,338,o),
(398,426,o),
(268,426,cs)
);
},
{
closed = 1;
nodes = (
(312,280,o),
(345,245,o),
(345,203,cs),
(345,158,o),
(312,127,o),
(271,127,cs),
(223,127,o),
(194,162,o),
(194,203,cs),
(194,245,o),
(225,280,o),
(271,280,cs)
);
}
);
width = 556;
},
{
layerId = "25766E5E-5561-4FF8-A834-795F30B85D44";
shapes = (
{
closed = 1;
nodes = (
(482,-208,l),
(482,208,ls),
(482,338,o),
(388,426,o),
(258,426,cs),
(138,426,o),
(34,328,o),
(34,208,cs),
(34,78,o),
(122,-10,o),
(248,-10,cs),
(300,-10,o),
(346,8,o),
(370,36,c),
(370,-208,l)
);
},
{
closed = 1;
nodes = (
(194,94,o),
(146,144,o),
(146,208,cs),
(146,274,o),
(194,322,o),
(258,322,cs),
(324,322,o),
(370,274,o),
(370,208,cs),
(370,144,o),
(324,94,o),
(258,94,cs)
);
}
);
width = 526;
}
);
unicode = 113;
},
{
glyphname = r;
lastChange = "2025-07-15 02:38:07 +0000";
layers = (
{
layerId = "2374D0AB-F754-483B-81AF-B87FF6AEB1B2";
shapes = (
{
closed = 1;
nodes = (
(176,0,l),
(176,260,ls),
(176,292,o),
(198,312,o),
(228,312,cs),
(260,312,l),
(260,416,l),
(220,416,ls),
(130,416,o),
(64,352,o),
(64,260,cs),
(64,0,l)
);
}
);
width = 288;
},
{
layerId = m01;
shapes = (
{
closed = 1;
nodes = (
(176,0,l),
(176,260,ls),
(176,292,o),
(198,312,o),
(228,312,cs),
(260,312,l),
(260,416,l),
(220,416,ls),
(130,416,o),
(64,352,o),
(64,260,cs),
(64,0,l)
);
}
);
width = 288;
},
{
layerId = "897933B7-C84C-4064-92EC-D6ECCFA4703E";
shapes = (
{
closed = 1;
nodes = (
(176,0,l),
(176,220,ls),
(176,247,o),
(205,272,o),
(228,272,cs),
(260,272,l),
(260,416,l),
(220,416,ls),
(114,416,o),
(34,344,o),
(34,260,cs),
(34,0,l)
);
}
);
width = 288;
},
{
layerId = "25766E5E-5561-4FF8-A834-795F30B85D44";
shapes = (
{
closed = 1;
nodes = (
(176,0,l),
(176,260,ls),
(176,292,o),
(198,312,o),
(228,312,cs),
(260,312,l),
(260,416,l),
(220,416,ls),
(130,416,o),
(64,352,o),
(64,260,cs),
(64,0,l)
);
}
);
width = 288;
}
);
unicode = 114;
},
{
glyphname = s;
lastChange = "2025-07-15 02:38:07 +0000";
layers = (
{
layerId = "2374D0AB-F754-483B-81AF-B87FF6AEB1B2";
shapes = (
{
closed = 1;
nodes = (
(197,0,l),
(264,0,ls),
(334,0,o),
(392,62,o),
(392,128,cs),
(392,202,o),
(334,256,o),
(264,256,cs),
(197,256,l),
(182,256,ls),
(162,256,o),
(148,270,o),
(148,290,cs),
(148,308,o),
(164,322,o),
(182,322,cs),
(197,322,l),
(340,322,l),
(340,416,l),
(197,416,l),
(172,416,ls),
(102,416,o),
(44,356,o),
(44,288,cs),
(44,216,o),
(102,160,o),
(172,160,cs),
(197,160,l),
(254,160,ls),
(274,160,o),
(288,146,o),
(288,128,cs),
(288,108,o),
(274,94,o),
(254,94,cs),
(197,94,l),
(56,94,l),
(56,0,l)
);
}
);
userData = {
public.verticalOrigin = 800;
};
width = 456;
},
{
layerId = m01;
shapes = (
{
closed = 1;
nodes = (
(197,0,l),
(264,0,ls),
(334,0,o),
(392,62,o),
(392,128,cs),
(392,202,o),
(334,256,o),
(264,256,cs),
(197,256,l),
(182,256,ls),
(162,256,o),
(148,270,o),
(148,290,cs),
(148,308,o),
(164,322,o),
(182,322,cs),
(197,322,l),
(340,322,l),
(340,416,l),
(197,416,l),
(172,416,ls),
(102,416,o),
(44,356,o),
(44,288,cs),
(44,216,o),
(102,160,o),
(172,160,cs),
(197,160,l),
(254,160,ls),
(274,160,o),
(288,146,o),
(288,128,cs),
(288,108,o),
(274,94,o),
(254,94,cs),
(197,94,l),
(56,94,l),
(56,0,l)
);
}
);
userData = {
public.verticalOrigin = 800;
};
width = 456;
},
{
layerId = "897933B7-C84C-4064-92EC-D6ECCFA4703E";
shapes = (
{
closed = 1;
nodes = (
(197,0,l),
(264,0,ls),
(334,0,o),
(392,72,o),
(392,138,cs),
(392,212,o),
(334,266,o),
(264,266,cs),
(247,266,l),
(232,266,ls),
(212,266,o),
(198,280,o),
(198,300,cs),
(198,318,o),
(214,332,o),
(232,332,cs),
(247,332,l),
(340,332,l),
(340,436,l),
(197,436,l),
(172,436,ls),
(102,436,o),
(44,366,o),
(44,298,cs),
(44,226,o),
(102,170,o),
(172,170,cs),
(177,170,l),
(184,170,ls),
(204,170,o),
(218,156,o),
(218,138,cs),
(218,118,o),
(204,104,o),
(184,104,cs),
(177,104,l),
(56,104,l),
(56,0,l)
);
}
);
userData = {
public.verticalOrigin = 800;
};
width = 456;
},
{
layerId = "25766E5E-5561-4FF8-A834-795F30B85D44";
shapes = (
{
closed = 1;
nodes = (
(197,0,l),
(264,0,ls),
(334,0,o),
(392,62,o),
(392,128,cs),
(392,202,o),
(334,256,o),
(264,256,cs),
(197,256,l),
(182,256,ls),
(162,256,o),
(148,270,o),
(148,290,cs),
(148,308,o),
(164,322,o),
(182,322,cs),
(197,322,l),
(340,322,l),
(340,416,l),
(197,416,l),
(172,416,ls),
(102,416,o),
(44,356,o),
(44,288,cs),
(44,216,o),
(102,160,o),
(172,160,cs),
(197,160,l),
(254,160,ls),
(274,160,o),
(288,146,o),
(288,128,cs),
(288,108,o),
(274,94,o),
(254,94,cs),
(197,94,l),
(56,94,l),
(56,0,l)
);
}
);
userData = {
public.verticalOrigin = 800;
};
width = 436;
}
);
unicode = 115;
},
{
glyphname = t;
lastChange = "2025-07-15 02:38:07 +0000";
layers = (
{
layerId = "2374D0AB-F754-483B-81AF-B87FF6AEB1B2";
shapes = (
{
closed = 1;
nodes = (
(229,200,l),
(229,728,l),
(117,728,l),
(117,200,l)
);
},
{
closed = 1;
nodes = (
(291,0,l),
(291,104,l),
(281,104,ls),
(249,104,o),
(229,126,o),
(229,156,cs),
(229,416,l),
(117,416,l),
(117,156,ls),
(117,66,o),
(181,0,o),
(273,0,cs)
);
},
{
closed = 1;
nodes = (
(315,312,l),
(315,416,l),
(229,416,l),
(229,728,l),
(117,728,l),
(117,416,l),
(117,416,l),
(117,312,l),
(117,312,l),
(229,312,l)
);
},
{
closed = 0;
nodes = (
(117,549,l)
);
},
{
closed = 1;
nodes = (
(17,312,l),
(17,412,l),
(42,412,l),
(79,412,o),
(117,484,o),
(117,518,q),
(117,581,l),
(117,312,l)
);
}
);
width = 359;
},
{
layerId = m01;
shapes = (
{
closed = 1;
nodes = (
(311,0,l),
(311,104,l),
(281,104,ls),
(249,104,o),
(229,126,o),
(229,156,cs),
(229,382,l),
(334,382,l),
(334,469,l),
(229,469,l),
(229,666,l),
(117,666,l),
(117,469,l),
(27,469,l),
(27,382,l),
(117,382,l),
(117,156,ls),
(117,66,o),
(181,0,o),
(273,0,cs)
);
}
);
width = 359;
},
{
layerId = "897933B7-C84C-4064-92EC-D6ECCFA4703E";
shapes = (
{
closed = 1;
nodes = (
(311,0,l),
(311,144,l),
(281,144,ls),
(249,144,o),
(229,166,o),
(229,196,cs),
(229,352,l),
(324,352,l),
(324,479,l),
(229,479,l),
(229,666,l),
(87,666,l),
(87,479,l),
(7,479,l),
(7,352,l),
(87,352,l),
(87,156,ls),
(87,66,o),
(181,0,o),
(273,0,cs)
);
}
);
width = 359;
},
{
layerId = "25766E5E-5561-4FF8-A834-795F30B85D44";
shapes = (
{
closed = 1;
nodes = (
(311,0,l),
(311,104,l),
(281,104,ls),
(249,104,o),
(229,126,o),
(229,156,cs),
(229,312,l),
(334,312,l),
(334,416,l),
(229,416,l),
(229,616,l),
(117,616,l),
(117,416,l),
(27,416,l),
(27,312,l),
(117,312,l),
(117,156,ls),
(117,66,o),
(181,0,o),
(273,0,cs)
);
}
);
width = 359;
}
);
unicode = 116;
},
{
glyphname = u;
lastChange = "2025-07-15 02:38:07 +0000";
layers = (
{
layerId = "2374D0AB-F754-483B-81AF-B87FF6AEB1B2";
shapes = (
{
closed = 1;
nodes = (
(382,416,l),
(382,218,ls),
(382,152,o),
(344,104,o),
(280,104,cs),
(214,104,o),
(178,152,o),
(178,218,cs),
(178,416,l),
(66,416,l),
(66,218,ls),
(66,88,o),
(148,0,o),
(278,0,cs),
(392,0,o),
(494,88,o),
(494,218,cs),
(494,416,l)
);
},
{
closed = 1;
nodes = (
(448,28,o),
(488,10,o),
(536,10,cs),
(550,10,l),
(550,114,l),
(546,114,ls),
(514,114,o),
(494,136,o),
(494,166,cs),
(494,416,l),
(414,416,l),
(414,390,l),
(422,60,l)
);
}
);
width = 610;
},
{
layerId = m01;
shapes = (
{
closed = 1;
nodes = (
(382,218,ls),
(382,152,o),
(359,104,o),
(295,104,cs),
(229,104,o),
(208,152,o),
(208,218,cs),
(208,416,l),
(96,416,l),
(96,218,ls),
(96,88,o),
(163,0,o),
(293,0,cs),
(348,0,o),
(397,21,o),
(433,57,c),
(459,29,o),
(494,0,o),
(536,0,cs),
(550,0,l),
(550,104,l),
(546,104,ls),
(514,104,o),
(494,136,o),
(494,166,cs),
(494,416,l),
(382,416,l)
);
}
);
width = 610;
},
{
layerId = "897933B7-C84C-4064-92EC-D6ECCFA4703E";
shapes = (
{
closed = 1;
nodes = (
(359,267,ls),
(359,218,o),
(341,182,o),
(293,182,cs),
(244,182,o),
(228,218,o),
(228,267,cs),
(228,416,l),
(96,416,l),
(96,218,ls),
(96,88,o),
(163,0,o),
(293,0,cs),
(348,0,o),
(397,21,o),
(433,57,c),
(459,29,o),
(494,0,o),
(536,0,cs),
(550,0,l),
(550,134,l),
(546,134,ls),
(514,134,o),
(494,166,o),
(494,196,cs),
(494,416,l),
(359,416,l)
);
}
);
width = 610;
},
{
layerId = "25766E5E-5561-4FF8-A834-795F30B85D44";
shapes = (
{
closed = 1;
nodes = (
(382,218,ls),
(382,152,o),
(359,104,o),
(295,104,cs),
(229,104,o),
(208,152,o),
(208,218,cs),
(208,416,l),
(96,416,l),
(96,218,ls),
(96,88,o),
(163,0,o),
(293,0,cs),
(348,0,o),
(397,21,o),
(433,57,c),
(459,29,o),
(494,0,o),
(536,0,cs),
(550,0,l),
(550,104,l),
(546,104,ls),
(514,104,o),
(494,136,o),
(494,166,cs),
(494,416,l),
(382,416,l)
);
}
);
width = 610;
}
);
unicode = 117;
},
{
glyphname = v;
lastChange = "2025-07-15 02:38:07 +0000";
layers = (
{
layerId = "2374D0AB-F754-483B-81AF-B87FF6AEB1B2";
shapes = (
{
closed = 1;
nodes = (
(302,0,l),
(470,416,l),
(358,416,l),
(246,114,l),
(134,416,l),
(22,416,l),
(190,0,l)
);
}
);
width = 492;
},
{
layerId = m01;
shapes = (
{
closed = 1;
nodes = (
(302,0,l),
(470,416,l),
(358,416,l),
(246,114,l),
(134,416,l),
(22,416,l),
(190,0,l)
);
}
);
width = 492;
},
{
layerId = "897933B7-C84C-4064-92EC-D6ECCFA4703E";
shapes = (
{
closed = 1;
nodes = (
(312,0,l),
(480,416,l),
(348,416,l),
(246,164,l),
(144,416,l),
(12,416,l),
(180,0,l)
);
}
);
width = 492;
},
{
layerId = "25766E5E-5561-4FF8-A834-795F30B85D44";
shapes = (
{
closed = 1;
nodes = (
(302,0,l),
(470,416,l),
(358,416,l),
(246,114,l),
(134,416,l),
(22,416,l),
(190,0,l)
);
}
);
width = 492;
}
);
unicode = 118;
},
{
glyphname = w;
lastChange = "2025-07-15 02:38:07 +0000";
layers = (
{
layerId = "2374D0AB-F754-483B-81AF-B87FF6AEB1B2";
shapes = (
{
closed = 1;
nodes = (
(414,416,l),
(512,128,l),
(595,416,l),
(696,416,l),
(562,0,l),
(463,0,l),
(360,299,l),
(259,0,l),
(157,0,l),
(22,416,l),
(128,416,l),
(213,128,l),
(311,416,l)
);
}
);
userData = {
public.truetype.instructions = {
formatVersion = "1";
id = "w814l351+487l471+487l586+150l683+487l801+487l645+0l529+0l408+350l290+0l171+0l13+487l137+487l236+150|";
};
};
width = 718;
},
{
layerId = m01;
shapes = (
{
closed = 1;
nodes = (
(414,416,l),
(512,128,l),
(595,416,l),
(696,416,l),
(562,0,l),
(463,0,l),
(360,299,l),
(259,0,l),
(157,0,l),
(22,416,l),
(128,416,l),
(213,128,l),
(311,416,l)
);
}
);
userData = {
public.truetype.instructions = {
formatVersion = "1";
id = "w814l351+487l471+487l586+150l683+487l801+487l645+0l529+0l408+350l290+0l171+0l13+487l137+487l236+150|";
};
};
width = 718;
},
{
layerId = "897933B7-C84C-4064-92EC-D6ECCFA4703E";
shapes = (
{
closed = 1;
nodes = (
(427,416,l),
(512,188,l),
(575,416,l),
(706,416,l),
(572,0,l),
(453,0,l),
(360,239,l),
(269,0,l),
(147,0,l),
(12,416,l),
(148,416,l),
(213,188,l),
(298,416,l)
);
}
);
userData = {
public.truetype.instructions = {
formatVersion = "1";
id = "w814l351+487l471+487l586+150l683+487l801+487l645+0l529+0l408+350l290+0l171+0l13+487l137+487l236+150|";
};
};
width = 718;
},
{
layerId = "25766E5E-5561-4FF8-A834-795F30B85D44";
shapes = (
{
closed = 1;
nodes = (
(414,416,l),
(512,128,l),
(595,416,l),
(696,416,l),
(562,0,l),
(463,0,l),
(360,299,l),
(259,0,l),
(157,0,l),
(22,416,l),
(128,416,l),
(213,128,l),
(311,416,l)
);
}
);
userData = {
public.truetype.instructions = {
formatVersion = "1";
id = "w814l351+487l471+487l586+150l683+487l801+487l645+0l529+0l408+350l290+0l171+0l13+487l137+487l236+150|";
};
};
width = 718;
}
);
unicode = 119;
},
{
glyphname = x;
lastChange = "2025-07-15 02:38:07 +0000";
layers = (
{
layerId = "2374D0AB-F754-483B-81AF-B87FF6AEB1B2";
shapes = (
{
closed = 1;
nodes = (
(132,0,l),
(220,124,l),
(308,0,l),
(428,0,l),
(280,208,l),
(428,416,l),
(308,416,l),
(220,292,l),
(132,416,l),
(12,416,l),
(160,208,l),
(12,0,l)
);
}
);
width = 440;
},
{
layerId = m01;
shapes = (
{
closed = 1;
nodes = (
(132,0,l),
(220,124,l),
(308,0,l),
(428,0,l),
(280,208,l),
(428,416,l),
(308,416,l),
(220,292,l),
(132,416,l),
(12,416,l),
(160,208,l),
(12,0,l)
);
}
);
width = 440;
},
{
layerId = "897933B7-C84C-4064-92EC-D6ECCFA4703E";
shapes = (
{
closed = 1;
nodes = (
(142,0,l),
(220,114,l),
(298,0,l),
(438,0,l),
(290,208,l),
(438,416,l),
(298,416,l),
(220,302,l),
(142,416,l),
(2,416,l),
(150,208,l),
(2,0,l)
);
}
);
width = 440;
},
{
layerId = "25766E5E-5561-4FF8-A834-795F30B85D44";
shapes = (
{
closed = 1;
nodes = (
(132,0,l),
(220,124,l),
(308,0,l),
(428,0,l),
(280,208,l),
(428,416,l),
(308,416,l),
(220,292,l),
(132,416,l),
(12,416,l),
(160,208,l),
(12,0,l)
);
}
);
width = 440;
}
);
unicode = 120;
},
{
glyphname = y;
lastChange = "2025-07-15 02:38:07 +0000";
layers = (
{
layerId = "2374D0AB-F754-483B-81AF-B87FF6AEB1B2";
shapes = (
{
closed = 1;
nodes = (
(342,171,ls),
(342,117,o),
(297,73,o),
(244,73,cs),
(189,73,o),
(145,117,o),
(145,171,cs),
(145,416,l),
(36,416,l),
(36,171,ls),
(36,56,o),
(138,-26,o),
(243,-26,cs),
(282,-26,o),
(318,-24,o),
(342,-1,c),
(342,-32,l),
(451,-32,l),
(451,416,l),
(342,416,l)
);
},
{
closed = 1;
nodes = (
(348,-245,o),
(451,-158,o),
(452,-28,cs),
(452,-28,o),
(452,-27,o),
(452,-27,cs),
(452,-26,o),
(452,-25,o),
(452,-25,c),
(341,-28,l),
(341,-28,o),
(342,-27,o),
(342,-27,cs),
(342,-27,o),
(342,-28,o),
(342,-28,cs),
(341,-96,o),
(296,-147,o),
(228,-147,cs),
(160,-147,o),
(114,-99,o),
(114,-31,c),
(8,-31,l),
(8,-163,o),
(96,-245,o),
(228,-245,cs)
);
},
{
closed = 0;
nodes = (
(452,-27,l)
);
},
{
closed = 1;
nodes = (
(452,-26,l),
(372,-26,l)
);
}
);
width = 466;
},
{
layerId = m01;
shapes = (
{
closed = 1;
nodes = (
(342,191,ls),
(342,137,o),
(297,93,o),
(244,93,cs),
(189,93,o),
(145,137,o),
(145,191,cs),
(145,416,l),
(36,416,l),
(36,191,ls),
(36,76,o),
(138,-6,o),
(243,-6,cs),
(282,-6,o),
(318,-4,o),
(342,19,c),
(342,16,l),
(451,-4,l),
(451,416,l),
(342,416,l)
);
},
{
closed = 1;
nodes = (
(451,-34,l),
(451,-113,o),
(360,-210,o),
(275,-210,q),
(59,-210,l),
(59,-112,l),
(258,-112,l),
(295,-112,o),
(342,-72,o),
(342,-22,q),
(342,16,l),
(451,-4,l)
);
}
);
width = 466;
},
{
layerId = "897933B7-C84C-4064-92EC-D6ECCFA4703E";
shapes = (
{
closed = 1;
nodes = (
(321,250,ls),
(321,211,o),
(288,178,o),
(249,178,cs),
(209,178,o),
(176,211,o),
(176,250,cs),
(176,416,l),
(36,416,l),
(36,191,ls),
(36,76,o),
(138,-6,o),
(243,-6,cs),
(282,-6,o),
(300,1,o),
(322,16,c),
(322,13,l),
(461,-4,l),
(461,416,l),
(321,416,l)
);
},
{
closed = 1;
nodes = (
(461,-34,l),
(455,-113,o),
(360,-210,o),
(275,-210,q),
(59,-210,l),
(59,-72,l),
(258,-72,l),
(297,-66,o),
(324,-22,o),
(322,15,q),
(322,13,l),
(461,-4,l)
);
}
);
width = 466;
},
{
layerId = "25766E5E-5561-4FF8-A834-795F30B85D44";
shapes = (
{
closed = 1;
nodes = (
(342,191,ls),
(342,137,o),
(297,93,o),
(244,93,cs),
(189,93,o),
(145,137,o),
(145,191,cs),
(145,416,l),
(36,416,l),
(36,191,ls),
(36,76,o),
(138,-6,o),
(243,-6,cs),
(282,-6,o),
(318,-4,o),
(342,19,c),
(342,16,l),
(451,-4,l),
(451,416,l),
(342,416,l)
);
},
{
closed = 1;
nodes = (
(451,-34,l),
(451,-113,o),
(360,-210,o),
(275,-210,q),
(59,-210,l),
(59,-112,l),
(258,-112,l),
(295,-112,o),
(342,-72,o),
(342,-22,q),
(342,16,l),
(451,-4,l)
);
}
);
width = 466;
}
);
unicode = 121;
},
{
glyphname = z;
lastChange = "2025-07-15 02:38:07 +0000";
layers = (
{
layerId = "2374D0AB-F754-483B-81AF-B87FF6AEB1B2";
shapes = (
{
closed = 1;
nodes = (
(464,0,l),
(464,94,l),
(182,94,l),
(454,326,l),
(454,416,l),
(44,416,l),
(44,322,l),
(310,322,l),
(38,92,l),
(38,0,l)
);
}
);
width = 502;
},
{
layerId = m01;
shapes = (
{
closed = 1;
nodes = (
(464,0,l),
(464,94,l),
(182,94,l),
(454,326,l),
(454,416,l),
(44,416,l),
(44,322,l),
(310,322,l),
(38,92,l),
(38,0,l)
);
}
);
width = 502;
},
{
layerId = "897933B7-C84C-4064-92EC-D6ECCFA4703E";
shapes = (
{
closed = 1;
nodes = (
(464,0,l),
(464,104,l),
(212,104,l),
(454,306,l),
(454,426,l),
(44,426,l),
(44,312,l),
(280,312,l),
(38,112,l),
(38,0,l)
);
}
);
width = 502;
},
{
layerId = "25766E5E-5561-4FF8-A834-795F30B85D44";
shapes = (
{
closed = 1;
nodes = (
(464,0,l),
(464,94,l),
(182,94,l),
(454,326,l),
(454,416,l),
(44,416,l),
(44,322,l),
(310,322,l),
(38,92,l),
(38,0,l)
);
}
);
width = 502;
}
);
unicode = 122;
},
{
glyphname = "a-bopomofo";
lastChange = "2025-07-15 02:38:07 +0000";
layers = (
{
layerId = "2374D0AB-F754-483B-81AF-B87FF6AEB1B2";
shapes = (
{
closed = 1;
nodes = (
(700,221,ls),
(700,184,o),
(670,156,o),
(634,156,cs),
(598,156,o),
(569,184,o),
(569,221,cs),
(569,443,l),
(460,443,l),
(460,221,ls),
(460,163,o),
(489,109,o),
(537,76,cs),
(585,44,o),
(646,38,o),
(700,59,c),
(700,-42,ls),
(700,-79,o),
(670,-107,o),
(634,-107,cs),
(598,-107,o),
(569,-79,o),
(569,-42,c),
(460,-42,l),
(460,-139,o),
(538,-216,o),
(634,-216,cs),
(730,-216,o),
(809,-139,o),
(809,-42,cs),
(809,443,l),
(700,443,l)
);
}
);
width = 430;
},
{
layerId = m01;
shapes = (
{
closed = 1;
nodes = (
(536,21,l),
(536,421,l),
(602,476,o),
(753,616,o),
(820,686,q),
(748,743,l),
(694,682,o),
(558,555,o),
(497,502,q),
(471,527,o),
(382,608,o),
(276,703,o),
(224,748,q),
(165,686,l),
(215,641,o),
(317,544,o),
(410,452,o),
(445,413,q),
(445,21,l)
);
}
);
vertWidth = 1000;
width = 1000;
},
{
layerId = "897933B7-C84C-4064-92EC-D6ECCFA4703E";
width = 600;
},
{
layerId = "25766E5E-5561-4FF8-A834-795F30B85D44";
shapes = (
{
closed = 1;
nodes = (
(536,21,l),
(536,421,l),
(602,476,o),
(753,616,o),
(820,686,q),
(748,743,l),
(694,682,o),
(558,555,o),
(497,502,q),
(471,527,o),
(382,608,o),
(276,703,o),
(224,748,q),
(165,686,l),
(215,641,o),
(317,544,o),
(410,452,o),
(445,413,q),
(445,21,l)
);
}
);
vertWidth = 1000;
width = 1000;
}
);
unicode = 12570;
},
{
glyphname = "ai-bopomofo";
lastChange = "2025-07-15 02:38:07 +0000";
layers = (
{
layerId = "2374D0AB-F754-483B-81AF-B87FF6AEB1B2";
width = 1000;
},
{
layerId = m01;
shapes = (
{
closed = 1;
nodes = (
(731,-39,l),
(760,35,o),
(824,256,o),
(840,339,qs),
(848,379,o),
(809,424,o),
(769,424,qs),
(524,424,l),
(540,480,o),
(563,605,o),
(570,673,q),
(844,673,l),
(844,757,l),
(105,757,l),
(105,673,l),
(485,673,l),
(478,603,o),
(455,479,o),
(438,424,q),
(267,424,ls),
(251,424,o),
(227,442,o),
(234,458,q),
(292,625,l),
(208,642,l),
(199,610,o),
(157,484,o),
(140,437,qs),
(126,395,o),
(170,344,o),
(213,344,qs),
(409,344,l),
(369,249,o),
(244,112,o),
(152,64,q),
(196,-10,l),
(307,50,o),
(453,223,o),
(498,344,q),
(711,344,ls),
(743,344,o),
(738,313,qs),
(727,244,o),
(672,54,o),
(650,-5,q)
);
}
);
vertWidth = 1000;
width = 1000;
},
{
layerId = "897933B7-C84C-4064-92EC-D6ECCFA4703E";
width = 600;
},
{
layerId = "25766E5E-5561-4FF8-A834-795F30B85D44";
shapes = (
{
closed = 1;
nodes = (
(731,-39,l),
(760,35,o),
(824,256,o),
(840,339,qs),
(848,379,o),
(809,424,o),
(769,424,qs),
(524,424,l),
(540,480,o),
(563,605,o),
(570,673,q),
(844,673,l),
(844,757,l),
(105,757,l),
(105,673,l),
(485,673,l),
(478,603,o),
(455,479,o),
(438,424,q),
(267,424,ls),
(251,424,o),
(227,442,o),
(234,458,q),
(292,625,l),
(208,642,l),
(199,610,o),
(157,484,o),
(140,437,qs),
(126,395,o),
(170,344,o),
(213,344,qs),
(409,344,l),
(369,249,o),
(244,112,o),
(152,64,q),
(196,-10,l),
(307,50,o),
(453,223,o),
(498,344,q),
(711,344,ls),
(743,344,o),
(738,313,qs),
(727,244,o),
(672,54,o),
(650,-5,q)
);
}
);
vertWidth = 1000;
width = 1000;
}
);
unicode = 12574;
},
{
glyphname = "an-bopomofo";
lastChange = "2025-07-15 02:38:07 +0000";
layers = (
{
layerId = "2374D0AB-F754-483B-81AF-B87FF6AEB1B2";
width = 1000;
},
{
layerId = m01;
shapes = (
{
closed = 1;
nodes = (
(699,-46,l),
(734,16,o),
(825,223,o),
(847,306,qs),
(858,346,o),
(819,392,o),
(778,392,qs),
(645,392,l),
(666,455,o),
(707,593,o),
(723,657,qs),
(734,698,o),
(696,743,o),
(655,743,qs),
(151,743,l),
(151,663,l),
(601,663,ls),
(617,663,o),
(631,645,o),
(627,631,qs),
(611,574,o),
(574,448,o),
(555,392,q),
(317,392,ls),
(301,392,o),
(288,411,o),
(295,426,qs),
(309,458,o),
(356,576,o),
(368,610,q),
(282,633,l),
(262,581,o),
(210,449,o),
(190,405,qs),
(173,364,o),
(201,312,o),
(246,312,qs),
(722,312,ls),
(737,312,o),
(751,295,o),
(746,279,qs),
(728,219,o),
(649,44,o),
(623,-10,q)
);
}
);
vertWidth = 1000;
width = 1000;
},
{
layerId = "897933B7-C84C-4064-92EC-D6ECCFA4703E";
width = 600;
},
{
layerId = "25766E5E-5561-4FF8-A834-795F30B85D44";
shapes = (
{
closed = 1;
nodes = (
(699,-46,l),
(734,16,o),
(825,223,o),
(847,306,qs),
(858,346,o),
(819,392,o),
(778,392,qs),
(645,392,l),
(666,455,o),
(707,593,o),
(723,657,qs),
(734,698,o),
(696,743,o),
(655,743,qs),
(151,743,l),
(151,663,l),
(601,663,ls),
(617,663,o),
(631,645,o),
(627,631,qs),
(611,574,o),
(574,448,o),
(555,392,q),
(317,392,ls),
(301,392,o),
(288,411,o),
(295,426,qs),
(309,458,o),
(356,576,o),
(368,610,q),
(282,633,l),
(262,581,o),
(210,449,o),
(190,405,qs),
(173,364,o),
(201,312,o),
(246,312,qs),
(722,312,ls),
(737,312,o),
(751,295,o),
(746,279,qs),
(728,219,o),
(649,44,o),
(623,-10,q)
);
}
);
vertWidth = 1000;
width = 1000;
}
);
unicode = 12578;
},
{
glyphname = "ang-bopomofo";
lastChange = "2025-07-15 02:38:07 +0000";
layers = (
{
layerId = "2374D0AB-F754-483B-81AF-B87FF6AEB1B2";
width = 1000;
},
{
layerId = m01;
shapes = (
{
closed = 1;
nodes = (
(434,243,o),
(470,365,qs),
(472,372,o),
(476,385,o),
(477,390,q),
(477,127,ls),
(477,74,o),
(501,13,o),
(561,-12,o),
(615,-12,qs),
(691,-12,o),
(778,-11,o),
(844,-11,o),
(872,-11,q),
(872,70,l),
(863,70,o),
(830,70,o),
(783,69,o),
(692,69,o),
(613,69,qs),
(586,69,o),
(565,93,o),
(565,124,qs),
(565,387,ls),
(565,415,o),
(547,443,o),
(520,443,qs),
(497,443,o),
(487,428,q),
(492,452,o),
(498,496,o),
(501,528,q),
(864,528,l),
(864,610,l),
(506,610,l),
(506,778,l),
(421,778,l),
(421,610,l),
(106,610,l),
(106,528,l),
(416,528,l),
(410,468,o),
(377,344,o),
(310,223,o),
(198,110,o),
(112,60,q),
(157,-16,l),
(276,54,o)
);
}
);
vertWidth = 1000;
width = 1000;
},
{
layerId = "897933B7-C84C-4064-92EC-D6ECCFA4703E";
width = 600;
},
{
layerId = "25766E5E-5561-4FF8-A834-795F30B85D44";
shapes = (
{
closed = 1;
nodes = (
(434,243,o),
(470,365,qs),
(472,372,o),
(476,385,o),
(477,390,q),
(477,127,ls),
(477,74,o),
(501,13,o),
(561,-12,o),
(615,-12,qs),
(691,-12,o),
(778,-11,o),
(844,-11,o),
(872,-11,q),
(872,70,l),
(863,70,o),
(830,70,o),
(783,69,o),
(692,69,o),
(613,69,qs),
(586,69,o),
(565,93,o),
(565,124,qs),
(565,387,ls),
(565,415,o),
(547,443,o),
(520,443,qs),
(497,443,o),
(487,428,q),
(492,452,o),
(498,496,o),
(501,528,q),
(864,528,l),
(864,610,l),
(506,610,l),
(506,778,l),
(421,778,l),
(421,610,l),
(106,610,l),
(106,528,l),
(416,528,l),
(410,468,o),
(377,344,o),
(310,223,o),
(198,110,o),
(112,60,q),
(157,-16,l),
(276,54,o)
);
}
);
vertWidth = 1000;
width = 1000;
}
);
unicode = 12580;
},
{
glyphname = "au-bopomofo";
lastChange = "2025-07-15 02:38:07 +0000";
layers = (
{
layerId = "2374D0AB-F754-483B-81AF-B87FF6AEB1B2";
width = 1000;
},
{
layerId = m01;
shapes = (
{
closed = 1;
nodes = (
(892,21,l),
(710,319,l),
(637,284,l),
(718,138,o),
(716,149,q),
(619,136,o),
(409,108,o),
(315,96,q),
(420,185,o),
(649,426,o),
(746,547,q),
(674,601,l),
(649,567,o),
(577,481,o),
(550,449,q),
(285,426,l),
(348,489,o),
(471,633,o),
(521,709,q),
(446,755,l),
(405,693,o),
(318,577,o),
(247,492,o),
(229,476,qs),
(185,433,l),
(168,419,o),
(153,381,o),
(157,367,qs),
(169,330,o),
(221,337,qs),
(252,341,o),
(380,356,o),
(485,367,q),
(448,327,o),
(369,247,o),
(298,181,o),
(271,160,qs),
(246,138,o),
(204,104,o),
(187,92,qs),
(167,79,o),
(153,49,o),
(156,32,qs),
(159,14,o),
(195,-2,o),
(223,2,qs),
(253,7,o),
(379,25,o),
(594,56,o),
(757,78,q),
(816,-22,l)
);
}
);
vertWidth = 1000;
width = 1000;
},
{
layerId = "897933B7-C84C-4064-92EC-D6ECCFA4703E";
width = 600;
},
{
layerId = "25766E5E-5561-4FF8-A834-795F30B85D44";
shapes = (
{
closed = 1;
nodes = (
(892,21,l),
(710,319,l),
(637,284,l),
(718,138,o),
(716,149,q),
(619,136,o),
(409,108,o),
(315,96,q),
(420,185,o),
(649,426,o),
(746,547,q),
(674,601,l),
(649,567,o),
(577,481,o),
(550,449,q),
(285,426,l),
(348,489,o),
(471,633,o),
(521,709,q),
(446,755,l),
(405,693,o),
(318,577,o),
(247,492,o),
(229,476,qs),
(185,433,l),
(168,419,o),
(153,381,o),
(157,367,qs),
(169,330,o),
(221,337,qs),
(252,341,o),
(380,356,o),
(485,367,q),
(448,327,o),
(369,247,o),
(298,181,o),
(271,160,qs),
(246,138,o),
(204,104,o),
(187,92,qs),
(167,79,o),
(153,49,o),
(156,32,qs),
(159,14,o),
(195,-2,o),
(223,2,qs),
(253,7,o),
(379,25,o),
(594,56,o),
(757,78,q),
(816,-22,l)
);
}
);
vertWidth = 1000;
width = 1000;
}
);
unicode = 12576;
},
{
glyphname = "b-bopomofo";
lastChange = "2025-07-15 02:38:07 +0000";
layers = (
{
layerId = "2374D0AB-F754-483B-81AF-B87FF6AEB1B2";
shapes = (
{
closed = 1;
nodes = (
(242,462,o),
(242,476,qs),
(242,478,o),
(244,486,qs),
(295,661,l),
(309,693,o),
(284,729,o),
(261,728,qs),
(235,728,o),
(222,685,qs),
(159,472,ls),
(153,452,o),
(153,439,qs),
(153,387,o),
(231,387,qs),
(733,387,ls),
(757,387,o),
(769,367,o),
(769,346,qs),
(769,298,o),
(742,144,qs),
(717,-9,o),
(672,-38,qs),
(628,-67,o),
(569,-67,qs),
(509,-67,o),
(392,-18,qs),
(382,-14,o),
(354,-14,o),
(344,-26,qs),
(334,-39,o),
(334,-64,o),
(338,-71,qs),
(343,-80,o),
(352,-85,q),
(362,-93,o),
(412,-109,qs),
(463,-127,o),
(540,-142,o),
(573,-142,qs),
(629,-142,o),
(688,-115,qs),
(746,-88,o),
(774,-30,qs),
(788,-1,o),
(813,95,o),
(824,164,qs),
(835,233,o),
(847,327,o),
(847,355,qs),
(847,410,o),
(826,436,qs),
(806,462,o),
(758,462,qs),
(265,462,ls)
);
}
);
vertWidth = 1000;
width = 1000;
},
{
layerId = m01;
shapes = (
{
closed = 1;
nodes = (
(721,-18,o),
(741,33,qs),
(765,94,o),
(808,345,o),
(818,494,qs),
(823,576,o),
(742,576,qs),
(306,576,ls),
(290,576,o),
(276,595,o),
(283,610,q),
(342,780,l),
(251,803,l),
(192,623,o),
(181,588,qs),
(167,545,o),
(202,495,o),
(245,495,qs),
(688,495,ls),
(720,495,o),
(717,464,qs),
(704,342,o),
(676,134,o),
(659,87,qs),
(646,56,o),
(545,43,o),
(474,41,q),
(468,-53,l),
(567,-53,o)
);
}
);
vertWidth = 1000;
width = 1000;
},
{
layerId = "897933B7-C84C-4064-92EC-D6ECCFA4703E";
width = 600;
},
{
layerId = "25766E5E-5561-4FF8-A834-795F30B85D44";
shapes = (
{
closed = 1;
nodes = (
(721,-18,o),
(741,33,qs),
(765,94,o),
(808,345,o),
(818,494,qs),
(823,576,o),
(742,576,qs),
(306,576,ls),
(290,576,o),
(276,595,o),
(283,610,q),
(342,780,l),
(251,803,l),
(192,623,o),
(181,588,qs),
(167,545,o),
(202,495,o),
(245,495,qs),
(688,495,ls),
(720,495,o),
(717,464,qs),
(704,342,o),
(676,134,o),
(659,87,qs),
(646,56,o),
(545,43,o),
(474,41,q),
(468,-53,l),
(567,-53,o)
);
}
);
vertWidth = 1000;
width = 1000;
}
);
note = uni3105;
unicode = 12549;
},
{
glyphname = "c-bopomofo";
lastChange = "2025-07-15 02:38:07 +0000";
layers = (
{
layerId = "2374D0AB-F754-483B-81AF-B87FF6AEB1B2";
width = 1000;
},
{
layerId = m01;
shapes = (
{
closed = 1;
nodes = (
(596,-30,l),
(637,31,o),
(736,209,o),
(764,292,qs),
(778,332,o),
(741,380,o),
(698,380,qs),
(392,380,ls),
(375,380,o),
(363,398,o),
(370,414,qs),
(387,449,o),
(419,521,o),
(435,559,q),
(852,559,l),
(852,643,l),
(469,643,l),
(480,672,o),
(509,752,o),
(515,772,q),
(430,800,l),
(420,766,o),
(386,675,o),
(374,643,q),
(123,643,l),
(123,559,l),
(343,559,l),
(327,519,o),
(288,437,o),
(263,389,qs),
(241,348,o),
(271,296,o),
(317,296,qs),
(631,296,ls),
(647,296,o),
(660,278,o),
(654,262,qs),
(633,204,o),
(550,66,o),
(521,17,q)
);
}
);
width = 1000;
},
{
layerId = "897933B7-C84C-4064-92EC-D6ECCFA4703E";
width = 600;
},
{
layerId = "25766E5E-5561-4FF8-A834-795F30B85D44";
shapes = (
{
closed = 1;
nodes = (
(596,-30,l),
(637,31,o),
(736,209,o),
(764,292,qs),
(778,332,o),
(741,380,o),
(698,380,qs),
(392,380,ls),
(375,380,o),
(363,398,o),
(370,414,qs),
(387,449,o),
(419,521,o),
(435,559,q),
(852,559,l),
(852,643,l),
(469,643,l),
(480,672,o),
(509,752,o),
(515,772,q),
(430,800,l),
(420,766,o),
(386,675,o),
(374,643,q),
(123,643,l),
(123,559,l),
(343,559,l),
(327,519,o),
(288,437,o),
(263,389,qs),
(241,348,o),
(271,296,o),
(317,296,qs),
(631,296,ls),
(647,296,o),
(660,278,o),
(654,262,qs),
(633,204,o),
(550,66,o),
(521,17,q)
);
}
);
width = 1000;
}
);
unicode = 12568;
},
{
glyphname = "ch-bopomofo";
lastChange = "2025-07-15 02:38:07 +0000";
layers = (
{
layerId = "2374D0AB-F754-483B-81AF-B87FF6AEB1B2";
width = 1000;
},
{
layerId = m01;
shapes = (
{
closed = 1;
nodes = (
(580,683,o),
(653,756,q),
(583,806,l),
(522,744,o),
(301,593,o),
(200,547,q),
(237,473,l),
(344,522,o)
);
},
{
closed = 1;
nodes = (
(577,-15,l),
(577,413,l),
(639,459,o),
(764,576,o),
(808,625,q),
(737,676,l),
(672,600,o),
(482,443,o),
(291,331,o),
(193,290,q),
(228,207,l),
(297,238,o),
(429,310,o),
(490,350,q),
(490,-15,l)
);
}
);
vertWidth = 1000;
width = 1000;
},
{
layerId = "897933B7-C84C-4064-92EC-D6ECCFA4703E";
width = 600;
},
{
layerId = "25766E5E-5561-4FF8-A834-795F30B85D44";
shapes = (
{
closed = 1;
nodes = (
(580,683,o),
(653,756,q),
(583,806,l),
(522,744,o),
(301,593,o),
(200,547,q),
(237,473,l),
(344,522,o)
);
},
{
closed = 1;
nodes = (
(577,-15,l),
(577,413,l),
(639,459,o),
(764,576,o),
(808,625,q),
(737,676,l),
(672,600,o),
(482,443,o),
(291,331,o),
(193,290,q),
(228,207,l),
(297,238,o),
(429,310,o),
(490,350,q),
(490,-15,l)
);
}
);
vertWidth = 1000;
width = 1000;
}
);
unicode = 12564;
},
{
glyphname = "d-bopomofo";
lastChange = "2025-07-15 02:38:07 +0000";
layers = (
{
layerId = "2374D0AB-F754-483B-81AF-B87FF6AEB1B2";
width = 1000;
},
{
layerId = m01;
shapes = (
{
closed = 1;
nodes = (
(653,-24,q),
(702,-20,o),
(762,35,o),
(796,153,o),
(818,346,o),
(829,488,qs),
(833,531,o),
(793,576,o),
(754,576,qs),
(313,576,ls),
(297,576,o),
(283,595,o),
(290,610,q),
(354,783,l),
(261,803,l),
(188,586,ls),
(174,546,o),
(208,497,o),
(251,497,qs),
(438,497,l),
(408,329,o),
(246,98,o),
(119,37,q),
(163,-38,l),
(260,11,o),
(415,172,o),
(503,367,o),
(526,497,q),
(712,497,ls),
(743,497,o),
(740,465,qs),
(729,334,o),
(710,172,o),
(685,87,o),
(647,56,o),
(617,56,qs),
(607,56,o),
(554,59,q),
(530,-20,l),
(595,-26,o)
);
}
);
vertWidth = 1000;
width = 1000;
},
{
layerId = "897933B7-C84C-4064-92EC-D6ECCFA4703E";
width = 600;
},
{
layerId = "25766E5E-5561-4FF8-A834-795F30B85D44";
shapes = (
{
closed = 1;
nodes = (
(653,-24,q),
(702,-20,o),
(762,35,o),
(796,153,o),
(818,346,o),
(829,488,qs),
(833,531,o),
(793,576,o),
(754,576,qs),
(313,576,ls),
(297,576,o),
(283,595,o),
(290,610,q),
(354,783,l),
(261,803,l),
(188,586,ls),
(174,546,o),
(208,497,o),
(251,497,qs),
(438,497,l),
(408,329,o),
(246,98,o),
(119,37,q),
(163,-38,l),
(260,11,o),
(415,172,o),
(503,367,o),
(526,497,q),
(712,497,ls),
(743,497,o),
(740,465,qs),
(729,334,o),
(710,172,o),
(685,87,o),
(647,56,o),
(617,56,qs),
(607,56,o),
(554,59,q),
(530,-20,l),
(595,-26,o)
);
}
);
vertWidth = 1000;
width = 1000;
}
);
unicode = 12553;
},
{
glyphname = "e-bopomofo";
lastChange = "2025-07-15 02:38:07 +0000";
layers = (
{
layerId = "2374D0AB-F754-483B-81AF-B87FF6AEB1B2";
width = 1000;
},
{
layerId = m01;
shapes = (
{
closed = 1;
nodes = (
(814,126,q),
(750,187,l),
(634,92,o),
(449,92,qs),
(341,92,o),
(220,166,o),
(220,233,qs),
(220,303,o),
(366,369,o),
(493,356,qs),
(554,351,o),
(554,407,qs),
(554,569,l),
(851,569,l),
(851,650,l),
(554,650,l),
(554,779,l),
(464,779,l),
(464,650,l),
(134,650,l),
(134,569,l),
(464,569,l),
(464,427,l),
(365,435,o),
(217,390,o),
(135,295,o),
(135,227,qs),
(135,161,o),
(215,62,o),
(361,8,o),
(460,7,qs),
(686,7,o)
);
}
);
vertWidth = 1000;
width = 1000;
},
{
layerId = "897933B7-C84C-4064-92EC-D6ECCFA4703E";
width = 600;
},
{
layerId = "25766E5E-5561-4FF8-A834-795F30B85D44";
shapes = (
{
closed = 1;
nodes = (
(814,126,q),
(750,187,l),
(634,92,o),
(449,92,qs),
(341,92,o),
(220,166,o),
(220,233,qs),
(220,303,o),
(366,369,o),
(493,356,qs),
(554,351,o),
(554,407,qs),
(554,569,l),
(851,569,l),
(851,650,l),
(554,650,l),
(554,779,l),
(464,779,l),
(464,650,l),
(134,650,l),
(134,569,l),
(464,569,l),
(464,427,l),
(365,435,o),
(217,390,o),
(135,295,o),
(135,227,qs),
(135,161,o),
(215,62,o),
(361,8,o),
(460,7,qs),
(686,7,o)
);
}
);
vertWidth = 1000;
width = 1000;
}
);
unicode = 12572;
},
{
glyphname = "eh-bopomofo";
lastChange = "2025-07-15 02:38:07 +0000";
layers = (
{
layerId = "2374D0AB-F754-483B-81AF-B87FF6AEB1B2";
width = 1000;
},
{
layerId = m01;
shapes = (
{
closed = 1;
nodes = (
(759,77,l),
(426,77,ls),
(378,77,o),
(342,116,o),
(342,167,qs),
(342,457,l),
(610,457,l),
(602,402,o),
(557,263,o),
(541,219,q),
(623,181,l),
(642,235,o),
(689,394,o),
(694,457,q),
(871,457,l),
(871,542,l),
(704,542,l),
(707,588,o),
(709,675,o),
(709,714,q),
(625,715,l),
(625,676,o),
(623,588,o),
(619,542,q),
(342,542,l),
(342,714,l),
(255,714,l),
(255,542,l),
(95,542,l),
(95,457,l),
(255,457,l),
(255,166,ls),
(255,101,o),
(289,26,o),
(366,-4,o),
(431,-4,qs),
(759,-4,l)
);
}
);
vertWidth = 1000;
width = 1000;
},
{
layerId = "897933B7-C84C-4064-92EC-D6ECCFA4703E";
width = 600;
},
{
layerId = "25766E5E-5561-4FF8-A834-795F30B85D44";
shapes = (
{
closed = 1;
nodes = (
(759,77,l),
(426,77,ls),
(378,77,o),
(342,116,o),
(342,167,qs),
(342,457,l),
(610,457,l),
(602,402,o),
(557,263,o),
(541,219,q),
(623,181,l),
(642,235,o),
(689,394,o),
(694,457,q),
(871,457,l),
(871,542,l),
(704,542,l),
(707,588,o),
(709,675,o),
(709,714,q),
(625,715,l),
(625,676,o),
(623,588,o),
(619,542,q),
(342,542,l),
(342,714,l),
(255,714,l),
(255,542,l),
(95,542,l),
(95,457,l),
(255,457,l),
(255,166,ls),
(255,101,o),
(289,26,o),
(366,-4,o),
(431,-4,qs),
(759,-4,l)
);
}
);
vertWidth = 1000;
width = 1000;
}
);
unicode = 12573;
},
{
glyphname = "ei-bopomofo";
lastChange = "2025-07-15 02:38:07 +0000";
layers = (
{
layerId = "2374D0AB-F754-483B-81AF-B87FF6AEB1B2";
width = 1000;
},
{
layerId = m01;
shapes = (
{
closed = 1;
nodes = (
(838,98,l),
(751,162,o),
(591,340,o),
(482,543,o),
(441,672,qs),
(427,716,o),
(361,735,o),
(324,711,qs),
(286,686,o),
(155,613,o),
(108,593,q),
(148,512,l),
(188,532,o),
(297,597,o),
(331,617,qs),
(359,636,o),
(370,602,qs),
(417,466,o),
(534,256,o),
(696,77,o),
(778,15,q)
);
}
);
vertWidth = 1000;
width = 1000;
},
{
layerId = "897933B7-C84C-4064-92EC-D6ECCFA4703E";
width = 600;
},
{
layerId = "25766E5E-5561-4FF8-A834-795F30B85D44";
shapes = (
{
closed = 1;
nodes = (
(838,98,l),
(751,162,o),
(591,340,o),
(482,543,o),
(441,672,qs),
(427,716,o),
(361,735,o),
(324,711,qs),
(286,686,o),
(155,613,o),
(108,593,q),
(148,512,l),
(188,532,o),
(297,597,o),
(331,617,qs),
(359,636,o),
(370,602,qs),
(417,466,o),
(534,256,o),
(696,77,o),
(778,15,q)
);
}
);
vertWidth = 1000;
width = 1000;
}
);
unicode = 12575;
},
{
glyphname = "en-bopomofo";
lastChange = "2025-07-15 02:38:07 +0000";
layers = (
{
layerId = "2374D0AB-F754-483B-81AF-B87FF6AEB1B2";
width = 1000;
},
{
layerId = m01;
shapes = (
{
closed = 1;
nodes = (
(697,-25,l),
(731,45,o),
(824,272,o),
(849,369,qs),
(859,410,o),
(820,455,o),
(779,455,qs),
(294,455,ls),
(277,455,o),
(266,473,o),
(273,489,qs),
(300,542,o),
(379,690,o),
(399,749,q),
(309,770,l),
(293,709,o),
(212,553,o),
(168,470,qs),
(146,429,o),
(175,376,o),
(221,376,qs),
(729,376,ls),
(744,376,o),
(758,358,o),
(754,343,qs),
(735,269,o),
(649,74,o),
(621,9,q)
);
}
);
vertWidth = 1000;
width = 1000;
},
{
layerId = "897933B7-C84C-4064-92EC-D6ECCFA4703E";
width = 600;
},
{
layerId = "25766E5E-5561-4FF8-A834-795F30B85D44";
shapes = (
{
closed = 1;
nodes = (
(697,-25,l),
(731,45,o),
(824,272,o),
(849,369,qs),
(859,410,o),
(820,455,o),
(779,455,qs),
(294,455,ls),
(277,455,o),
(266,473,o),
(273,489,qs),
(300,542,o),
(379,690,o),
(399,749,q),
(309,770,l),
(293,709,o),
(212,553,o),
(168,470,qs),
(146,429,o),
(175,376,o),
(221,376,qs),
(729,376,ls),
(744,376,o),
(758,358,o),
(754,343,qs),
(735,269,o),
(649,74,o),
(621,9,q)
);
}
);
vertWidth = 1000;
width = 1000;
}
);
unicode = 12579;
},
{
glyphname = "eng-bopomofo";
lastChange = "2025-07-15 02:38:07 +0000";
layers = (
{
layerId = "2374D0AB-F754-483B-81AF-B87FF6AEB1B2";
width = 1000;
},
{
layerId = m01;
shapes = (
{
closed = 1;
nodes = (
(321,13,o),
(409,15,qs),
(480,17,o),
(711,24,o),
(844,28,q),
(843,111,l),
(708,108,o),
(416,101,o),
(280,98,qs),
(262,97,o),
(251,118,o),
(261,133,qs),
(338,249,o),
(489,537,o),
(552,690,q),
(461,720,l),
(429,635,o),
(354,472,o),
(282,331,o),
(223,230,o),
(207,207,qs),
(188,179,o),
(155,133,o),
(143,116,qs),
(124,90,o),
(122,40,o),
(157,7,o),
(193,8,qs),
(221,8,o)
);
}
);
vertWidth = 1000;
width = 1000;
},
{
layerId = "897933B7-C84C-4064-92EC-D6ECCFA4703E";
width = 600;
},
{
layerId = "25766E5E-5561-4FF8-A834-795F30B85D44";
shapes = (
{
closed = 1;
nodes = (
(321,13,o),
(409,15,qs),
(480,17,o),
(711,24,o),
(844,28,q),
(843,111,l),
(708,108,o),
(416,101,o),
(280,98,qs),
(262,97,o),
(251,118,o),
(261,133,qs),
(338,249,o),
(489,537,o),
(552,690,q),
(461,720,l),
(429,635,o),
(354,472,o),
(282,331,o),
(223,230,o),
(207,207,qs),
(188,179,o),
(155,133,o),
(143,116,qs),
(124,90,o),
(122,40,o),
(157,7,o),
(193,8,qs),
(221,8,o)
);
}
);
vertWidth = 1000;
width = 1000;
}
);
unicode = 12581;
},
{
glyphname = "er-bopomofo";
lastChange = "2025-07-15 02:38:07 +0000";
layers = (
{
layerId = "2374D0AB-F754-483B-81AF-B87FF6AEB1B2";
width = 1000;
},
{
layerId = m01;
shapes = (
{
closed = 1;
nodes = (
(882,88,l),
(696,88,ls),
(668,88,o),
(646,119,o),
(646,162,qs),
(646,758,l),
(556,758,l),
(556,167,ls),
(556,105,o),
(582,33,o),
(644,4,o),
(698,4,qs),
(882,4,l)
);
},
{
closed = 1;
nodes = (
(328,156,o),
(374,286,o),
(390,422,o),
(390,490,qs),
(390,757,l),
(302,757,l),
(302,490,ls),
(302,435,o),
(289,321,o),
(250,210,o),
(163,109,o),
(99,66,q),
(150,-11,l),
(226,39,o)
);
}
);
width = 1000;
},
{
layerId = "897933B7-C84C-4064-92EC-D6ECCFA4703E";
width = 600;
},
{
layerId = "25766E5E-5561-4FF8-A834-795F30B85D44";
shapes = (
{
closed = 1;
nodes = (
(882,88,l),
(696,88,ls),
(668,88,o),
(646,119,o),
(646,162,qs),
(646,758,l),
(556,758,l),
(556,167,ls),
(556,105,o),
(582,33,o),
(644,4,o),
(698,4,qs),
(882,4,l)
);
},
{
closed = 1;
nodes = (
(328,156,o),
(374,286,o),
(390,422,o),
(390,490,qs),
(390,757,l),
(302,757,l),
(302,490,ls),
(302,435,o),
(289,321,o),
(250,210,o),
(163,109,o),
(99,66,q),
(150,-11,l),
(226,39,o)
);
}
);
width = 1000;
}
);
unicode = 12582;
},
{
glyphname = "f-bopomofo";
lastChange = "2025-07-15 02:38:07 +0000";
layers = (
{
layerId = "2374D0AB-F754-483B-81AF-B87FF6AEB1B2";
width = 1000;
},
{
layerId = m01;
shapes = (
{
closed = 1;
nodes = (
(873,88,l),
(323,88,l),
(216,90,o),
(216,181,qs),
(216,612,ls),
(216,641,o),
(245,641,qs),
(858,641,l),
(858,725,l),
(201,725,ls),
(123,725,o),
(123,647,qs),
(123,186,l),
(122,2,o),
(334,2,q),
(873,2,l)
);
}
);
vertWidth = 1000;
width = 1000;
},
{
layerId = "897933B7-C84C-4064-92EC-D6ECCFA4703E";
width = 600;
},
{
layerId = "25766E5E-5561-4FF8-A834-795F30B85D44";
shapes = (
{
closed = 1;
nodes = (
(873,88,l),
(323,88,l),
(216,90,o),
(216,181,qs),
(216,612,ls),
(216,641,o),
(245,641,qs),
(858,641,l),
(858,725,l),
(201,725,ls),
(123,725,o),
(123,647,qs),
(123,186,l),
(122,2,o),
(334,2,q),
(873,2,l)
);
}
);
vertWidth = 1000;
width = 1000;
}
);
unicode = 12552;
},
{
glyphname = "g-bopomofo";
lastChange = "2025-07-15 02:38:07 +0000";
layers = (
{
layerId = "2374D0AB-F754-483B-81AF-B87FF6AEB1B2";
width = 1000;
},
{
layerId = m01;
shapes = (
{
closed = 1;
nodes = (
(487,31,o),
(473,53,qs),
(446,102,o),
(371,215,o),
(286,332,o),
(243,385,qs),
(226,407,o),
(241,427,qs),
(262,456,ls),
(306,520,o),
(398,655,o),
(437,722,q),
(449,747,o),
(441,784,o),
(420,792,qs),
(374,809,o),
(350,760,q),
(313,695,o),
(213,535,o),
(163,461,qs),
(126,405,o),
(166,351,qs),
(231,263,o),
(346,81,o),
(385,7,qs),
(411,-43,o),
(455,-22,qs),
(478,-9,o)
);
},
{
closed = 1;
nodes = (
(821,46,o),
(807,69,qs),
(761,141,o),
(637,309,o),
(575,383,qs),
(559,402,o),
(574,424,qs),
(604,466,ls),
(648,523,o),
(734,644,o),
(770,703,qs),
(784,727,o),
(777,765,o),
(757,774,qs),
(733,785,o),
(696,767,o),
(682,744,qs),
(646,683,o),
(546,531,o),
(494,461,qs),
(453,406,o),
(496,350,qs),
(563,267,o),
(680,94,o),
(718,23,qs),
(732,-1,o),
(769,-16,o),
(791,-4,qs),
(814,7,o)
);
}
);
vertWidth = 1000;
width = 1000;
},
{
layerId = "897933B7-C84C-4064-92EC-D6ECCFA4703E";
width = 600;
},
{
layerId = "25766E5E-5561-4FF8-A834-795F30B85D44";
shapes = (
{
closed = 1;
nodes = (
(487,31,o),
(473,53,qs),
(446,102,o),
(371,215,o),
(286,332,o),
(243,385,qs),
(226,407,o),
(241,427,qs),
(262,456,ls),
(306,520,o),
(398,655,o),
(437,722,q),
(449,747,o),
(441,784,o),
(420,792,qs),
(374,809,o),
(350,760,q),
(313,695,o),
(213,535,o),
(163,461,qs),
(126,405,o),
(166,351,qs),
(231,263,o),
(346,81,o),
(385,7,qs),
(411,-43,o),
(455,-22,qs),
(478,-9,o)
);
},
{
closed = 1;
nodes = (
(821,46,o),
(807,69,qs),
(761,141,o),
(637,309,o),
(575,383,qs),
(559,402,o),
(574,424,qs),
(604,466,ls),
(648,523,o),
(734,644,o),
(770,703,qs),
(784,727,o),
(777,765,o),
(757,774,qs),
(733,785,o),
(696,767,o),
(682,744,qs),
(646,683,o),
(546,531,o),
(494,461,qs),
(453,406,o),
(496,350,qs),
(563,267,o),
(680,94,o),
(718,23,qs),
(732,-1,o),
(769,-16,o),
(791,-4,qs),
(814,7,o)
);
}
);
vertWidth = 1000;
width = 1000;
}
);
unicode = 12557;
},
{
glyphname = "h-bopomofo";
lastChange = "2025-07-15 02:38:07 +0000";
layers = (
{
layerId = "2374D0AB-F754-483B-81AF-B87FF6AEB1B2";
width = 1000;
},
{
layerId = m01;
shapes = (
{
closed = 1;
nodes = (
(136,-23,o),
(150,-1,qs),
(195,66,o),
(239,224,o),
(254,383,o),
(254,451,qs),
(254,604,ls),
(254,633,o),
(283,633,qs),
(820,633,l),
(820,716,l),
(248,716,ls),
(170,716,o),
(170,637,qs),
(170,452,ls),
(170,392,o),
(158,253,o),
(120,113,o),
(79,50,q),
(69,37,o),
(67,-8,o),
(81,-18,qs),
(99,-29,o)
);
}
);
vertWidth = 1000;
width = 1000;
},
{
layerId = "897933B7-C84C-4064-92EC-D6ECCFA4703E";
width = 600;
},
{
layerId = "25766E5E-5561-4FF8-A834-795F30B85D44";
shapes = (
{
closed = 1;
nodes = (
(136,-23,o),
(150,-1,qs),
(195,66,o),
(239,224,o),
(254,383,o),
(254,451,qs),
(254,604,ls),
(254,633,o),
(283,633,qs),
(820,633,l),
(820,716,l),
(248,716,ls),
(170,716,o),
(170,637,qs),
(170,452,ls),
(170,392,o),
(158,253,o),
(120,113,o),
(79,50,q),
(69,37,o),
(67,-8,o),
(81,-18,qs),
(99,-29,o)
);
}
);
vertWidth = 1000;
width = 1000;
}
);
unicode = 12559;
},
{
glyphname = "i-bopomofo";
lastChange = "2025-07-15 02:38:07 +0000";
layers = (
{
layerId = "2374D0AB-F754-483B-81AF-B87FF6AEB1B2";
width = 1000;
},
{
layerId = m01;
shapes = (
{
closed = 1;
nodes = (
(866,420,l),
(134,420,l),
(134,333,l),
(866,333,l)
);
}
);
vertWidth = 1000;
width = 1000;
},
{
layerId = "897933B7-C84C-4064-92EC-D6ECCFA4703E";
width = 600;
},
{
layerId = "25766E5E-5561-4FF8-A834-795F30B85D44";
shapes = (
{
closed = 1;
nodes = (
(866,420,l),
(134,420,l),
(134,333,l),
(866,333,l)
);
}
);
vertWidth = 1000;
width = 1000;
}
);
unicode = 12583;
},
{
glyphname = "iu-bopomofo";
lastChange = "2025-07-15 02:38:07 +0000";
layers = (
{
layerId = "2374D0AB-F754-483B-81AF-B87FF6AEB1B2";
width = 1000;
},
{
layerId = m01;
shapes = (
{
closed = 1;
nodes = (
(843,13,o),
(843,92,qs),
(843,707,l),
(755,707,l),
(755,124,ls),
(755,97,o),
(729,97,qs),
(270,97,ls),
(240,97,o),
(240,126,qs),
(240,703,l),
(152,703,l),
(152,92,ls),
(152,54,o),
(196,12,o),
(236,13,qs),
(765,13,ls)
);
}
);
vertWidth = 1000;
width = 1000;
},
{
layerId = "897933B7-C84C-4064-92EC-D6ECCFA4703E";
width = 600;
},
{
layerId = "25766E5E-5561-4FF8-A834-795F30B85D44";
shapes = (
{
closed = 1;
nodes = (
(843,13,o),
(843,92,qs),
(843,707,l),
(755,707,l),
(755,124,ls),
(755,97,o),
(729,97,qs),
(270,97,ls),
(240,97,o),
(240,126,qs),
(240,703,l),
(152,703,l),
(152,92,ls),
(152,54,o),
(196,12,o),
(236,13,qs),
(765,13,ls)
);
}
);
vertWidth = 1000;
width = 1000;
}
);
unicode = 12585;
},
{
glyphname = "j-bopomofo";
lastChange = "2025-07-15 02:38:07 +0000";
layers = (
{
layerId = "2374D0AB-F754-483B-81AF-B87FF6AEB1B2";
width = 1000;
},
{
layerId = m01;
shapes = (
{
closed = 1;
nodes = (
(734,-56,l),
(734,749,l),
(648,749,l),
(648,334,l),
(431,289,o),
(358,272,qs),
(344,269,o),
(326,282,o),
(326,298,qs),
(326,701,l),
(243,701,l),
(243,241,ls),
(243,200,o),
(288,163,o),
(328,173,qs),
(355,180,o),
(434,201,o),
(648,252,q),
(648,-56,l)
);
}
);
vertWidth = 1000;
width = 1000;
},
{
layerId = "897933B7-C84C-4064-92EC-D6ECCFA4703E";
width = 600;
},
{
layerId = "25766E5E-5561-4FF8-A834-795F30B85D44";
shapes = (
{
closed = 1;
nodes = (
(734,-56,l),
(734,749,l),
(648,749,l),
(648,334,l),
(431,289,o),
(358,272,qs),
(344,269,o),
(326,282,o),
(326,298,qs),
(326,701,l),
(243,701,l),
(243,241,ls),
(243,200,o),
(288,163,o),
(328,173,qs),
(355,180,o),
(434,201,o),
(648,252,q),
(648,-56,l)
);
}
);
vertWidth = 1000;
width = 1000;
}
);
unicode = 12560;
},
{
glyphname = "k-bopomofo";
lastChange = "2025-07-15 02:38:07 +0000";
layers = (
{
layerId = "2374D0AB-F754-483B-81AF-B87FF6AEB1B2";
width = 1000;
},
{
layerId = m01;
shapes = (
{
closed = 1;
nodes = (
(643,-9,o),
(665,19,qs),
(691,51,o),
(732,166,o),
(761,310,o),
(768,386,qs),
(771,426,o),
(731,468,o),
(692,468,qs),
(386,468,ls),
(367,468,o),
(358,489,o),
(367,504,qs),
(390,541,o),
(437,623,o),
(459,663,q),
(851,663,l),
(851,746,l),
(130,746,l),
(130,663,l),
(359,663,l),
(333,617,o),
(279,529,o),
(253,482,qs),
(231,442,o),
(260,388,o),
(307,388,qs),
(649,388,ls),
(681,388,o),
(676,356,qs),
(657,231,o),
(613,91,o),
(591,70,qs),
(578,57,o),
(546,51,o),
(526,51,qs),
(510,51,o),
(442,53,o),
(405,55,q),
(395,-25,l),
(436,-27,o),
(530,-27,o),
(553,-26,qs),
(588,-24,o)
);
}
);
vertWidth = 1000;
width = 1000;
},
{
layerId = "897933B7-C84C-4064-92EC-D6ECCFA4703E";
width = 600;
},
{
layerId = "25766E5E-5561-4FF8-A834-795F30B85D44";
shapes = (
{
closed = 1;
nodes = (
(643,-9,o),
(665,19,qs),
(691,51,o),
(732,166,o),
(761,310,o),
(768,386,qs),
(771,426,o),
(731,468,o),
(692,468,qs),
(386,468,ls),
(367,468,o),
(358,489,o),
(367,504,qs),
(390,541,o),
(437,623,o),
(459,663,q),
(851,663,l),
(851,746,l),
(130,746,l),
(130,663,l),
(359,663,l),
(333,617,o),
(279,529,o),
(253,482,qs),
(231,442,o),
(260,388,o),
(307,388,qs),
(649,388,ls),
(681,388,o),
(676,356,qs),
(657,231,o),
(613,91,o),
(591,70,qs),
(578,57,o),
(546,51,o),
(526,51,qs),
(510,51,o),
(442,53,o),
(405,55,q),
(395,-25,l),
(436,-27,o),
(530,-27,o),
(553,-26,qs),
(588,-24,o)
);
}
);
vertWidth = 1000;
width = 1000;
}
);
unicode = 12558;
},
{
glyphname = "l-bopomofo";
lastChange = "2025-07-15 02:38:07 +0000";
layers = (
{
layerId = "2374D0AB-F754-483B-81AF-B87FF6AEB1B2";
width = 1000;
},
{
layerId = m01;
shapes = (
{
closed = 1;
nodes = (
(642,-25,o),
(659,-24,qs),
(690,-21,o),
(729,-1,o),
(746,18,qs),
(767,42,o),
(801,149,o),
(827,341,o),
(836,491,qs),
(839,532,o),
(800,576,o),
(761,576,qs),
(548,576,l),
(556,617,o),
(579,742,o),
(584,788,q),
(497,798,l),
(492,749,o),
(470,618,o),
(461,576,q),
(289,576,ls),
(273,576,o),
(261,594,o),
(266,609,qs),
(276,639,o),
(304,751,o),
(311,784,q),
(227,797,l),
(220,764,o),
(188,635,o),
(172,587,qs),
(158,545,o),
(192,496,o),
(234,496,qs),
(443,496,l),
(403,340,o),
(228,111,o),
(114,46,q),
(158,-34,l),
(289,46,o),
(488,313,o),
(532,496,q),
(724,496,ls),
(754,496,o),
(751,464,qs),
(737,287,o),
(698,97,o),
(672,73,qs),
(652,56,o),
(623,56,qs),
(602,56,o),
(558,59,q),
(558,-25,l),
(591,-26,o)
);
}
);
vertWidth = 1000;
width = 1000;
},
{
layerId = "897933B7-C84C-4064-92EC-D6ECCFA4703E";
width = 600;
},
{
layerId = "25766E5E-5561-4FF8-A834-795F30B85D44";
shapes = (
{
closed = 1;
nodes = (
(642,-25,o),
(659,-24,qs),
(690,-21,o),
(729,-1,o),
(746,18,qs),
(767,42,o),
(801,149,o),
(827,341,o),
(836,491,qs),
(839,532,o),
(800,576,o),
(761,576,qs),
(548,576,l),
(556,617,o),
(579,742,o),
(584,788,q),
(497,798,l),
(492,749,o),
(470,618,o),
(461,576,q),
(289,576,ls),
(273,576,o),
(261,594,o),
(266,609,qs),
(276,639,o),
(304,751,o),
(311,784,q),
(227,797,l),
(220,764,o),
(188,635,o),
(172,587,qs),
(158,545,o),
(192,496,o),
(234,496,qs),
(443,496,l),
(403,340,o),
(228,111,o),
(114,46,q),
(158,-34,l),
(289,46,o),
(488,313,o),
(532,496,q),
(724,496,ls),
(754,496,o),
(751,464,qs),
(737,287,o),
(698,97,o),
(672,73,qs),
(652,56,o),
(623,56,qs),
(602,56,o),
(558,59,q),
(558,-25,l),
(591,-26,o)
);
}
);
vertWidth = 1000;
width = 1000;
}
);
unicode = 12556;
},
{
glyphname = "m-bopomofo";
lastChange = "2025-07-15 02:38:07 +0000";
layers = (
{
layerId = "2374D0AB-F754-483B-81AF-B87FF6AEB1B2";
shapes = (
{
closed = 1;
nodes = (
(883,616,o),
(865,639,o),
(831,652,o),
(804,652,qs),
(193,652,ls),
(142,652,o),
(109,614,o),
(109,566,qs),
(124,-43,ls),
(124,-59,o),
(144,-83,o),
(162,-83,qs),
(201,-83,o),
(201,-39,qs),
(185,561,ls),
(185,578,o),
(200,578,qs),
(796,578,ls),
(813,578,o),
(813,561,qs),
(790,-41,ls),
(789,-66,o),
(810,-84,o),
(828,-84,qs),
(847,-84,o),
(864,-65,o),
(866,-43,qs),
(889,565,ls),
(889,584,o)
);
}
);
vertWidth = 1000;
width = 1000;
},
{
layerId = m01;
shapes = (
{
closed = 1;
nodes = (
(222,0,l),
(222,622,ls),
(222,651,o),
(251,651,qs),
(728,651,ls),
(757,651,o),
(757,622,qs),
(757,0,l),
(852,0,l),
(852,658,ls),
(852,736,o),
(773,736,qs),
(210,736,ls),
(132,736,o),
(132,658,qs),
(132,0,l)
);
}
);
vertWidth = 1000;
width = 1000;
},
{
layerId = "897933B7-C84C-4064-92EC-D6ECCFA4703E";
width = 600;
},
{
layerId = "25766E5E-5561-4FF8-A834-795F30B85D44";
shapes = (
{
closed = 1;
nodes = (
(222,0,l),
(222,622,ls),
(222,651,o),
(251,651,qs),
(728,651,ls),
(757,651,o),
(757,622,qs),
(757,0,l),
(852,0,l),
(852,658,ls),
(852,736,o),
(773,736,qs),
(210,736,ls),
(132,736,o),
(132,658,qs),
(132,0,l)
);
}
);
vertWidth = 1000;
width = 1000;
}
);
note = uni3107;
unicode = 12551;
},
{
glyphname = "n-bopomofo";
lastChange = "2025-07-15 02:38:07 +0000";
layers = (
{
layerId = "2374D0AB-F754-483B-81AF-B87FF6AEB1B2";
width = 1000;
},
{
layerId = m01;
shapes = (
{
closed = 1;
nodes = (
(698,-9,o),
(720,11,qs),
(759,48,o),
(823,227,o),
(852,388,qs),
(859,430,o),
(821,476,o),
(780,476,qs),
(531,476,ls),
(485,476,o),
(627,695,o),
(598,752,o),
(549,752,qs),
(156,752,l),
(156,669,l),
(459,669,ls),
(477,669,o),
(483,648,o),
(475,633,qs),
(398,491,ls),
(347,397,o),
(453,395,qs),
(731,395,ls),
(746,395,o),
(761,378,o),
(758,362,qs),
(712,116,o),
(648,67,qs),
(637,58,o),
(609,54,o),
(592,54,qs),
(577,54,o),
(527,56,o),
(498,57,q),
(493,-25,l),
(534,-27,o),
(597,-27,o),
(616,-26,qs),
(651,-24,o)
);
}
);
vertWidth = 1000;
width = 1000;
},
{
layerId = "897933B7-C84C-4064-92EC-D6ECCFA4703E";
width = 600;
},
{
layerId = "25766E5E-5561-4FF8-A834-795F30B85D44";
shapes = (
{
closed = 1;
nodes = (
(698,-9,o),
(720,11,qs),
(759,48,o),
(823,227,o),
(852,388,qs),
(859,430,o),
(821,476,o),
(780,476,qs),
(531,476,ls),
(485,476,o),
(627,695,o),
(598,752,o),
(549,752,qs),
(156,752,l),
(156,669,l),
(459,669,ls),
(477,669,o),
(483,648,o),
(475,633,qs),
(398,491,ls),
(347,397,o),
(453,395,qs),
(731,395,ls),
(746,395,o),
(761,378,o),
(758,362,qs),
(712,116,o),
(648,67,qs),
(637,58,o),
(609,54,o),
(592,54,qs),
(577,54,o),
(527,56,o),
(498,57,q),
(493,-25,l),
(534,-27,o),
(597,-27,o),
(616,-26,qs),
(651,-24,o)
);
}
);
vertWidth = 1000;
width = 1000;
}
);
unicode = 12555;
},
{
glyphname = "o-bopomofo";
lastChange = "2025-07-15 02:38:07 +0000";
layers = (
{
layerId = "2374D0AB-F754-483B-81AF-B87FF6AEB1B2";
width = 1000;
},
{
layerId = m01;
shapes = (
{
closed = 1;
nodes = (
(814,130,q),
(750,188,l),
(695,142,o),
(544,93,o),
(449,93,qs),
(340,93,o),
(220,167,o),
(220,234,qs),
(220,304,o),
(368,382,o),
(495,377,qs),
(554,374,o),
(554,428,qs),
(554,617,l),
(836,617,l),
(836,699,l),
(137,699,l),
(137,617,l),
(464,617,l),
(464,448,l),
(364,449,o),
(216,396,o),
(135,296,o),
(135,227,qs),
(135,160,o),
(214,62,o),
(360,8,o),
(460,7,qs),
(685,7,o)
);
}
);
vertWidth = 1000;
width = 1000;
},
{
layerId = "897933B7-C84C-4064-92EC-D6ECCFA4703E";
width = 600;
},
{
layerId = "25766E5E-5561-4FF8-A834-795F30B85D44";
shapes = (
{
closed = 1;
nodes = (
(814,130,q),
(750,188,l),
(695,142,o),
(544,93,o),
(449,93,qs),
(340,93,o),
(220,167,o),
(220,234,qs),
(220,304,o),
(368,382,o),
(495,377,qs),
(554,374,o),
(554,428,qs),
(554,617,l),
(836,617,l),
(836,699,l),
(137,699,l),
(137,617,l),
(464,617,l),
(464,448,l),
(364,449,o),
(216,396,o),
(135,296,o),
(135,227,qs),
(135,160,o),
(214,62,o),
(360,8,o),
(460,7,qs),
(685,7,o)
);
}
);
vertWidth = 1000;
width = 1000;
}
);
unicode = 12571;
},
{
glyphname = "ou-bopomofo";
lastChange = "2025-07-15 02:38:07 +0000";
layers = (
{
layerId = "2374D0AB-F754-483B-81AF-B87FF6AEB1B2";
width = 1000;
},
{
layerId = m01;
shapes = (
{
closed = 1;
nodes = (
(547,218,q),
(608,159,o),
(747,14,o),
(785,-33,q),
(861,28,l),
(820,77,o),
(671,227,o),
(609,284,q),
(745,437,o),
(819,628,qs),
(836,669,o),
(799,717,o),
(756,717,qs),
(191,717,l),
(191,633,l),
(688,633,ls),
(705,633,o),
(718,615,o),
(711,599,qs),
(651,466,o),
(542,342,q),
(394,478,o),
(299,552,q),
(242,491,l),
(323,428,o),
(481,280,q),
(405,208,o),
(219,76,o),
(129,38,q),
(169,-45,l),
(371,45,o)
);
}
);
vertWidth = 1000;
width = 1000;
},
{
layerId = "897933B7-C84C-4064-92EC-D6ECCFA4703E";
width = 600;
},
{
layerId = "25766E5E-5561-4FF8-A834-795F30B85D44";
shapes = (
{
closed = 1;
nodes = (
(547,218,q),
(608,159,o),
(747,14,o),
(785,-33,q),
(861,28,l),
(820,77,o),
(671,227,o),
(609,284,q),
(745,437,o),
(819,628,qs),
(836,669,o),
(799,717,o),
(756,717,qs),
(191,717,l),
(191,633,l),
(688,633,ls),
(705,633,o),
(718,615,o),
(711,599,qs),
(651,466,o),
(542,342,q),
(394,478,o),
(299,552,q),
(242,491,l),
(323,428,o),
(481,280,q),
(405,208,o),
(219,76,o),
(129,38,q),
(169,-45,l),
(371,45,o)
);
}
);
vertWidth = 1000;
width = 1000;
}
);
unicode = 12577;
},
{
glyphname = "p-bopomofo";
lastChange = "2025-07-15 02:38:07 +0000";
layers = (
{
layerId = "2374D0AB-F754-483B-81AF-B87FF6AEB1B2";
shapes = (
{
closed = 1;
nodes = (
(747,-91,o),
(787,-128,qs),
(814,-153,o),
(843,-153,o),
(855,-140,qs),
(867,-127,o),
(867,-106,o),
(861,-96,qs),
(857,-90,o),
(816,-50,o),
(756,5,o),
(682,68,o),
(646,98,q),
(691,143,o),
(756,237,o),
(776,288,qs),
(817,390,o),
(817,431,qs),
(817,463,o),
(774,491,o),
(726,491,qs),
(354,491,l),
(432,687,ls),
(438,703,o),
(438,731,o),
(424,740,qs),
(410,749,o),
(398,749,qs),
(375,749,o),
(360,715,qs),
(278,509,ls),
(266,479,o),
(266,461,qs),
(266,416,o),
(342,416,qs),
(718,416,ls),
(731,416,o),
(731,404,qs),
(731,377,o),
(696,301,qs),
(662,227,o),
(583,148,q),
(547,177,o),
(464,240,o),
(416,275,qs),
(321,344,o),
(308,350,qs),
(295,357,o),
(282,357,qs),
(270,357,o),
(249,334,o),
(249,321,qs),
(249,301,o),
(272,284,qs),
(324,250,o),
(448,156,o),
(523,96,q),
(379,-13,o),
(185,-63,qs),
(156,-70,o),
(131,-89,o),
(131,-106,qs),
(131,-147,o),
(164,-147,qs),
(200,-147,o),
(338,-97,qs),
(474,-48,o),
(587,44,q),
(648,-6,o)
);
}
);
vertWidth = 1000;
width = 1000;
},
{
layerId = m01;
shapes = (
{
closed = 1;
nodes = (
(454,98,o),
(523,158,q),
(714,-16,o),
(745,-51,q),
(825,4,l),
(810,22,o),
(607,212,o),
(593,223,q),
(651,284,o),
(740,424,o),
(771,500,qs),
(787,540,o),
(751,590,o),
(707,590,qs),
(339,590,ls),
(323,590,o),
(310,608,o),
(315,624,q),
(373,776,l),
(282,793,l),
(211,597,ls),
(197,558,o),
(234,508,o),
(276,508,qs),
(635,508,ls),
(652,508,o),
(665,490,o),
(657,474,qs),
(633,423,o),
(569,329,o),
(522,281,q),
(490,308,o),
(294,469,q),
(238,407,l),
(276,375,o),
(417,252,o),
(456,220,q),
(391,163,o),
(220,54,o),
(123,21,q),
(157,-60,l),
(257,-22,o)
);
}
);
vertWidth = 1000;
width = 1000;
},
{
layerId = "897933B7-C84C-4064-92EC-D6ECCFA4703E";
width = 600;
},
{
layerId = "25766E5E-5561-4FF8-A834-795F30B85D44";
shapes = (
{
closed = 1;
nodes = (
(454,98,o),
(523,158,q),
(714,-16,o),
(745,-51,q),
(825,4,l),
(810,22,o),
(607,212,o),
(593,223,q),
(651,284,o),
(740,424,o),
(771,500,qs),
(787,540,o),
(751,590,o),
(707,590,qs),
(339,590,ls),
(323,590,o),
(310,608,o),
(315,624,q),
(373,776,l),
(282,793,l),
(211,597,ls),
(197,558,o),
(234,508,o),
(276,508,qs),
(635,508,ls),
(652,508,o),
(665,490,o),
(657,474,qs),
(633,423,o),
(569,329,o),
(522,281,q),
(490,308,o),
(294,469,q),
(238,407,l),
(276,375,o),
(417,252,o),
(456,220,q),
(391,163,o),
(220,54,o),
(123,21,q),
(157,-60,l),
(257,-22,o)
);
}
);
vertWidth = 1000;
width = 1000;
}
);
note = uni3106;
unicode = 12550;
},
{
glyphname = "q-bopomofo";
lastChange = "2025-07-15 02:38:07 +0000";
layers = (
{
layerId = "2374D0AB-F754-483B-81AF-B87FF6AEB1B2";
width = 1000;
},
{
layerId = m01;
shapes = (
{
closed = 1;
nodes = (
(698,43,l),
(368,384,ls),
(347,406,o),
(367,426,qs),
(407,467,ls),
(467,529,o),
(653,720,q),
(582,780,l),
(545,738,o),
(441,626,o),
(340,517,o),
(289,463,qs),
(235,405,o),
(289,351,qs),
(629,-12,l)
);
}
);
vertWidth = 1000;
width = 1000;
},
{
layerId = "897933B7-C84C-4064-92EC-D6ECCFA4703E";
width = 600;
},
{
layerId = "25766E5E-5561-4FF8-A834-795F30B85D44";
shapes = (
{
closed = 1;
nodes = (
(698,43,l),
(368,384,ls),
(347,406,o),
(367,426,qs),
(407,467,ls),
(467,529,o),
(653,720,q),
(582,780,l),
(545,738,o),
(441,626,o),
(340,517,o),
(289,463,qs),
(235,405,o),
(289,351,qs),
(629,-12,l)
);
}
);
vertWidth = 1000;
width = 1000;
}
);
unicode = 12561;
},
{
glyphname = "r-bopomofo";
lastChange = "2025-07-15 02:38:07 +0000";
layers = (
{
layerId = "2374D0AB-F754-483B-81AF-B87FF6AEB1B2";
width = 1000;
},
{
layerId = m01;
shapes = (
{
closed = 1;
nodes = (
(823,6,o),
(823,83,qs),
(823,681,ls),
(823,759,o),
(745,759,qs),
(234,759,ls),
(156,759,o),
(156,681,qs),
(156,82,ls),
(156,44,o),
(198,5,o),
(235,6,qs),
(746,6,ls)
);
},
{
closed = 1;
nodes = (
(245,122,qs),
(245,643,ls),
(245,673,o),
(274,673,qs),
(700,673,ls),
(729,673,o),
(729,643,qs),
(729,120,ls),
(729,93,o),
(703,93,qs),
(274,93,ls),
(245,93,o)
);
},
{
closed = 1;
nodes = (
(580,313,l),
(555,358,o),
(482,466,o),
(445,513,q),
(377,468,l),
(410,421,o),
(478,312,o),
(503,269,q)
);
}
);
vertWidth = 1000;
width = 1000;
},
{
layerId = "897933B7-C84C-4064-92EC-D6ECCFA4703E";
width = 600;
},
{
layerId = "25766E5E-5561-4FF8-A834-795F30B85D44";
shapes = (
{
closed = 1;
nodes = (
(823,6,o),
(823,83,qs),
(823,681,ls),
(823,759,o),
(745,759,qs),
(234,759,ls),
(156,759,o),
(156,681,qs),
(156,82,ls),
(156,44,o),
(198,5,o),
(235,6,qs),
(746,6,ls)
);
},
{
closed = 1;
nodes = (
(245,122,qs),
(245,643,ls),
(245,673,o),
(274,673,qs),
(700,673,ls),
(729,673,o),
(729,643,qs),
(729,120,ls),
(729,93,o),
(703,93,qs),
(274,93,ls),
(245,93,o)
);
},
{
closed = 1;
nodes = (
(580,313,l),
(555,358,o),
(482,466,o),
(445,513,q),
(377,468,l),
(410,421,o),
(478,312,o),
(503,269,q)
);
}
);
vertWidth = 1000;
width = 1000;
}
);
unicode = 12566;
},
{
glyphname = "s-bopomofo";
lastChange = "2025-07-15 02:38:07 +0000";
layers = (
{
layerId = "2374D0AB-F754-483B-81AF-B87FF6AEB1B2";
width = 1000;
},
{
layerId = m01;
shapes = (
{
closed = 1;
nodes = (
(872,78,l),
(727,345,l),
(654,294,l),
(707,195,l),
(263,123,ls),
(248,121,o),
(239,136,o),
(247,147,qs),
(277,194,o),
(346,324,o),
(416,475,o),
(481,634,o),
(507,709,q),
(412,737,l),
(394,682,o),
(346,558,o),
(295,434,o),
(246,324,o),
(206,243,o),
(195,224,qs),
(135,124,ls),
(107,78,o),
(146,21,o),
(198,29,qs),
(746,117,l),
(764,80,l),
(794,26,l)
);
}
);
vertWidth = 1000;
width = 1000;
},
{
layerId = "25766E5E-5561-4FF8-A834-795F30B85D44";
shapes = (
{
closed = 1;
nodes = (
(872,78,l),
(727,345,l),
(654,294,l),
(707,195,l),
(263,123,ls),
(248,121,o),
(239,136,o),
(247,147,qs),
(277,194,o),
(346,324,o),
(416,475,o),
(481,634,o),
(507,709,q),
(412,737,l),
(394,682,o),
(346,558,o),
(295,434,o),
(246,324,o),
(206,243,o),
(195,224,qs),
(135,124,ls),
(107,78,o),
(146,21,o),
(198,29,qs),
(746,117,l),
(764,80,l),
(794,26,l)
);
}
);
vertWidth = 1000;
width = 1000;
}
);
unicode = 12569;
},
{
glyphname = "sh-bopomofo";
lastChange = "2025-07-15 02:38:07 +0000";
layers = (
{
layerId = "2374D0AB-F754-483B-81AF-B87FF6AEB1B2";
width = 1000;
},
{
layerId = m01;
shapes = (
{
closed = 1;
nodes = (
(145,-23,l),
(272,115,o),
(279,356,qs),
(279,385,o),
(309,385,qs),
(772,385,ls),
(851,385,o),
(851,464,qs),
(851,675,ls),
(851,753,o),
(772,753,qs),
(190,753,l),
(190,670,l),
(734,670,ls),
(764,670,o),
(764,640,qs),
(764,498,ls),
(764,468,o),
(734,468,qs),
(268,468,ls),
(189,468,o),
(189,390,qs),
(189,375,ls),
(189,330,o),
(174,214,o),
(128,92,o),
(79,37,q)
);
}
);
vertWidth = 1000;
width = 1000;
},
{
layerId = "25766E5E-5561-4FF8-A834-795F30B85D44";
shapes = (
{
closed = 1;
nodes = (
(145,-23,l),
(272,115,o),
(279,356,qs),
(279,385,o),
(309,385,qs),
(772,385,ls),
(851,385,o),
(851,464,qs),
(851,675,ls),
(851,753,o),
(772,753,qs),
(190,753,l),
(190,670,l),
(734,670,ls),
(764,670,o),
(764,640,qs),
(764,498,ls),
(764,468,o),
(734,468,qs),
(268,468,ls),
(189,468,o),
(189,390,qs),
(189,375,ls),
(189,330,o),
(174,214,o),
(128,92,o),
(79,37,q)
);
}
);
vertWidth = 1000;
width = 1000;
}
);
unicode = 12565;
},
{
glyphname = "t-bopomofo";
lastChange = "2025-07-15 02:38:07 +0000";
layers = (
{
layerId = "2374D0AB-F754-483B-81AF-B87FF6AEB1B2";
width = 1000;
},
{
layerId = m01;
shapes = (
{
closed = 1;
nodes = (
(851,36,l),
(833,73,o),
(677,276,o),
(657,293,q),
(601,236,l),
(618,214,o),
(675,155,o),
(685,139,q),
(597,129,o),
(420,109,o),
(331,98,qs),
(314,96,o),
(300,116,o),
(308,132,qs),
(352,215,o),
(436,405,o),
(474,502,q),
(896,502,l),
(896,586,l),
(505,586,l),
(518,621,o),
(577,771,q),
(482,796,l),
(420,627,o),
(405,586,q),
(90,586,l),
(90,502,l),
(375,502,l),
(330,387,o),
(240,192,o),
(188,103,qs),
(161,57,o),
(176,27,qs),
(184,10,o),
(218,-9,o),
(252,-2,qs),
(278,3,o),
(386,19,o),
(580,45,o),
(733,65,q),
(752,35,ls),
(766,10,o),
(783,-17,o),
(787,-22,q)
);
}
);
vertWidth = 1000;
width = 1000;
},
{
layerId = "25766E5E-5561-4FF8-A834-795F30B85D44";
shapes = (
{
closed = 1;
nodes = (
(851,36,l),
(833,73,o),
(677,276,o),
(657,293,q),
(601,236,l),
(618,214,o),
(675,155,o),
(685,139,q),
(597,129,o),
(420,109,o),
(331,98,qs),
(314,96,o),
(300,116,o),
(308,132,qs),
(352,215,o),
(436,405,o),
(474,502,q),
(896,502,l),
(896,586,l),
(505,586,l),
(518,621,o),
(577,771,q),
(482,796,l),
(420,627,o),
(405,586,q),
(90,586,l),
(90,502,l),
(375,502,l),
(330,387,o),
(240,192,o),
(188,103,qs),
(161,57,o),
(176,27,qs),
(184,10,o),
(218,-9,o),
(252,-2,qs),
(278,3,o),
(386,19,o),
(580,45,o),
(733,65,q),
(752,35,ls),
(766,10,o),
(783,-17,o),
(787,-22,q)
);
}
);
vertWidth = 1000;
width = 1000;
}
);
unicode = 12554;
},
{
glyphname = "u-bopomofo";
lastChange = "2025-07-15 02:38:07 +0000";
layers = (
{
layerId = "2374D0AB-F754-483B-81AF-B87FF6AEB1B2";
width = 1000;
},
{
layerId = m01;
shapes = (
{
closed = 1;
nodes = (
(464,218,o),
(533,300,q),
(604,224,o),
(710,98,o),
(752,41,q),
(838,103,l),
(795,159,o),
(671,298,o),
(594,377,q),
(701,525,o),
(785,698,q),
(700,730,l),
(633,586,o),
(529,440,q),
(468,499,o),
(341,617,o),
(282,669,q),
(223,606,l),
(288,548,o),
(413,426,o),
(472,365,q),
(403,284,o),
(246,144,o),
(162,91,q),
(220,11,l),
(306,72,o)
);
}
);
vertWidth = 1000;
width = 1000;
},
{
layerId = "25766E5E-5561-4FF8-A834-795F30B85D44";
shapes = (
{
closed = 1;
nodes = (
(464,218,o),
(533,300,q),
(604,224,o),
(710,98,o),
(752,41,q),
(838,103,l),
(795,159,o),
(671,298,o),
(594,377,q),
(701,525,o),
(785,698,q),
(700,730,l),
(633,586,o),
(529,440,q),
(468,499,o),
(341,617,o),
(282,669,q),
(223,606,l),
(288,548,o),
(413,426,o),
(472,365,q),
(403,284,o),
(246,144,o),
(162,91,q),
(220,11,l),
(306,72,o)
);
}
);
vertWidth = 1000;
width = 1000;
}
);
unicode = 12584;
},
{
glyphname = "x-bopomofo";
lastChange = "2025-07-15 02:38:07 +0000";
layers = (
{
layerId = "2374D0AB-F754-483B-81AF-B87FF6AEB1B2";
width = 1000;
},
{
layerId = m01;
shapes = (
{
closed = 1;
nodes = (
(536,22,l),
(536,646,l),
(844,646,l),
(844,730,l),
(136,730,l),
(136,646,l),
(441,646,l),
(441,22,l)
);
}
);
vertWidth = 1000;
width = 1000;
},
{
layerId = "25766E5E-5561-4FF8-A834-795F30B85D44";
shapes = (
{
closed = 1;
nodes = (
(536,22,l),
(536,646,l),
(844,646,l),
(844,730,l),
(136,730,l),
(136,646,l),
(441,646,l),
(441,22,l)
);
}
);
vertWidth = 1000;
width = 1000;
}
);
unicode = 12562;
},
{
glyphname = "z-bopomofo";
lastChange = "2025-07-15 02:38:07 +0000";
layers = (
{
layerId = "2374D0AB-F754-483B-81AF-B87FF6AEB1B2";
width = 1000;
},
{
layerId = m01;
shapes = (
{
closed = 1;
nodes = (
(475,-15,l),
(475,649,l),
(742,649,ls),
(771,649,o),
(771,617,q),
(765,514,o),
(753,385,o),
(738,318,o),
(729,308,qs),
(719,296,o),
(698,288,o),
(682,288,qs),
(666,288,o),
(640,288,o),
(624,289,q),
(614,207,l),
(639,206,o),
(708,207,o),
(723,209,qs),
(750,212,o),
(784,229,o),
(799,247,qs),
(816,267,o),
(838,348,o),
(852,458,o),
(860,585,o),
(863,649,qs),
(865,689,o),
(824,730,o),
(786,730,qs),
(162,730,l),
(162,649,l),
(385,649,l),
(385,-15,l)
);
}
);
vertWidth = 1000;
width = 1000;
},
{
layerId = "25766E5E-5561-4FF8-A834-795F30B85D44";
shapes = (
{
closed = 1;
nodes = (
(475,-15,l),
(475,649,l),
(742,649,ls),
(771,649,o),
(771,617,q),
(765,514,o),
(753,385,o),
(738,318,o),
(729,308,qs),
(719,296,o),
(698,288,o),
(682,288,qs),
(666,288,o),
(640,288,o),
(624,289,q),
(614,207,l),
(639,206,o),
(708,207,o),
(723,209,qs),
(750,212,o),
(784,229,o),
(799,247,qs),
(816,267,o),
(838,348,o),
(852,458,o),
(860,585,o),
(863,649,qs),
(865,689,o),
(824,730,o),
(786,730,qs),
(162,730,l),
(162,649,l),
(385,649,l),
(385,-15,l)
);
}
);
vertWidth = 1000;
width = 1000;
}
);
unicode = 12567;
},
{
glyphname = "zh-bopomofo";
lastChange = "2025-07-15 02:38:07 +0000";
layers = (
{
layerId = "2374D0AB-F754-483B-81AF-B87FF6AEB1B2";
width = 1000;
},
{
layerId = m01;
shapes = (
{
closed = 1;
nodes = (
(864,83,l),
(529,83,l),
(529,249,l),
(752,249,ls),
(830,249,o),
(830,327,qs),
(830,658,l),
(740,658,l),
(740,359,ls),
(740,330,o),
(711,330,qs),
(529,330,l),
(529,762,l),
(444,762,l),
(444,330,l),
(274,330,ls),
(245,330,o),
(245,359,qs),
(245,658,l),
(159,658,l),
(159,327,ls),
(159,249,o),
(237,249,qs),
(444,249,l),
(444,83,l),
(113,83,l),
(113,0,l),
(864,0,l)
);
}
);
vertWidth = 1000;
width = 1000;
},
{
layerId = "25766E5E-5561-4FF8-A834-795F30B85D44";
shapes = (
{
closed = 1;
nodes = (
(864,83,l),
(529,83,l),
(529,249,l),
(752,249,ls),
(830,249,o),
(830,327,qs),
(830,658,l),
(740,658,l),
(740,359,ls),
(740,330,o),
(711,330,qs),
(529,330,l),
(529,762,l),
(444,762,l),
(444,330,l),
(274,330,ls),
(245,330,o),
(245,359,qs),
(245,658,l),
(159,658,l),
(159,327,ls),
(159,249,o),
(237,249,qs),
(444,249,l),
(444,83,l),
(113,83,l),
(113,0,l),
(864,0,l)
);
}
);
vertWidth = 1000;
width = 1000;
}
);
unicode = 12563;
},
{
glyphname = zero;
lastChange = "2025-07-15 02:38:07 +0000";
layers = (
{
layerId = "2374D0AB-F754-483B-81AF-B87FF6AEB1B2";
width = 600;
},
{
layerId = m01;
shapes = (
{
closed = 1;
nodes = (
(460,-10,o),
(551,133,o),
(551,340,cs),
(551,548,o),
(460,691,o),
(300,691,cs),
(141,691,o),
(49,548,o),
(49,340,cs),
(49,133,o),
(141,-10,o),
(300,-10,cs)
);
},
{
closed = 1;
nodes = (
(200,88,o),
(156,192,o),
(156,340,cs),
(156,489,o),
(200,592,o),
(300,592,cs),
(401,592,o),
(444,489,o),
(444,340,cs),
(444,192,o),
(401,88,o),
(300,88,cs)
);
}
);
width = 601;
},
{
layerId = "25766E5E-5561-4FF8-A834-795F30B85D44";
shapes = (
{
closed = 1;
nodes = (
(460,-10,o),
(551,133,o),
(551,340,cs),
(551,548,o),
(460,691,o),
(300,691,cs),
(141,691,o),
(49,548,o),
(49,340,cs),
(49,133,o),
(141,-10,o),
(300,-10,cs)
);
},
{
closed = 1;
nodes = (
(200,88,o),
(156,192,o),
(156,340,cs),
(156,489,o),
(200,592,o),
(300,592,cs),
(401,592,o),
(444,489,o),
(444,340,cs),
(444,192,o),
(401,88,o),
(300,88,cs)
);
}
);
width = 601;
}
);
unicode = 48;
},
{
glyphname = one;
lastChange = "2025-07-15 02:38:07 +0000";
layers = (
{
layerId = "2374D0AB-F754-483B-81AF-B87FF6AEB1B2";
width = 600;
},
{
layerId = m01;
shapes = (
{
closed = 1;
nodes = (
(468,0,l),
(37,0,l),
(37,95,l),
(199,95,l),
(199,496,l),
(190,483,o),
(140,474,o),
(116,474,q),
(61,474,l),
(61,578,l),
(111,578,l),
(154,578,o),
(199,626,o),
(205,681,q),
(305,681,l),
(305,95,l),
(468,95,l)
);
}
);
userData = {
public.truetype.instructions = {
assembly = "NPUSHB[ ]	/* 46 values pushed */
5 1 2 3 1 76 0 3 0 2 1 3 2 105 0 4 4 45 77 6 5 2 1 1 0 96 0 0 0 46 0 78 0 0 0 16 0 16 18 33 35 17 17 7 9 27
CALL[ ]	/* CallFunction */";
formatVersion = "1";
id = f25bae9e093362dfb11b3f126f8b8f0c62bb2b5dd820522e4909b22296b70303128d9a51bf3b48067b4fa4583d486aa50182b8ac4ec2f44d5c7c617f18a8bcd2;
};
};
width = 528;
},
{
layerId = "25766E5E-5561-4FF8-A834-795F30B85D44";
shapes = (
{
closed = 1;
nodes = (
(468,0,l),
(37,0,l),
(37,95,l),
(199,95,l),
(199,496,l),
(190,483,o),
(140,474,o),
(116,474,q),
(61,474,l),
(61,578,l),
(111,578,l),
(154,578,o),
(199,626,o),
(205,681,q),
(305,681,l),
(305,95,l),
(468,95,l)
);
}
);
userData = {
public.truetype.instructions = {
assembly = "NPUSHB[ ]	/* 46 values pushed */
5 1 2 3 1 76 0 3 0 2 1 3 2 105 0 4 4 45 77 6 5 2 1 1 0 96 0 0 0 46 0 78 0 0 0 16 0 16 18 33 35 17 17 7 9 27
CALL[ ]	/* CallFunction */";
formatVersion = "1";
id = f25bae9e093362dfb11b3f126f8b8f0c62bb2b5dd820522e4909b22296b70303128d9a51bf3b48067b4fa4583d486aa50182b8ac4ec2f44d5c7c617f18a8bcd2;
};
};
width = 528;
}
);
unicode = 49;
},
{
glyphname = two;
lastChange = "2025-07-15 02:38:07 +0000";
layers = (
{
layerId = "2374D0AB-F754-483B-81AF-B87FF6AEB1B2";
width = 600;
},
{
layerId = m01;
shapes = (
{
closed = 1;
nodes = (
(492,0,l),
(492,99,l),
(191,99,l),
(191,100,l),
(282,165,ls),
(423,265,o),
(499,362,o),
(499,468,cs),
(499,609,o),
(400,691,o),
(266,691,cs),
(105,691,o),
(20,581,o),
(19,448,c),
(126,448,l),
(129,528,o),
(173,594,o),
(266,594,cs),
(333,594,o),
(392,548,o),
(392,468,cs),
(392,382,o),
(328,311,o),
(186,203,cs),
(36,89,l),
(36,0,l)
);
}
);
width = 529;
},
{
layerId = "25766E5E-5561-4FF8-A834-795F30B85D44";
shapes = (
{
closed = 1;
nodes = (
(492,0,l),
(492,99,l),
(191,99,l),
(191,100,l),
(282,165,ls),
(423,265,o),
(499,362,o),
(499,468,cs),
(499,609,o),
(400,691,o),
(266,691,cs),
(105,691,o),
(20,581,o),
(19,448,c),
(126,448,l),
(129,528,o),
(173,594,o),
(266,594,cs),
(333,594,o),
(392,548,o),
(392,468,cs),
(392,382,o),
(328,311,o),
(186,203,cs),
(36,89,l),
(36,0,l)
);
}
);
width = 529;
}
);
unicode = 50;
},
{
glyphname = three;
lastChange = "2025-07-15 02:38:07 +0000";
layers = (
{
layerId = "2374D0AB-F754-483B-81AF-B87FF6AEB1B2";
width = 600;
},
{
layerId = m01;
shapes = (
{
closed = 1;
nodes = (
(417,-10,o),
(517,68,o),
(517,181,cs),
(517,291,o),
(444,340,o),
(392,354,c),
(392,356,l),
(430,370,o),
(491,418,o),
(491,510,cs),
(491,623,o),
(405,691,o),
(283,691,cs),
(120,691,o),
(62,571,o),
(59,491,c),
(168,491,l),
(175,544,o),
(206,594,o),
(282,594,cs),
(338,594,o),
(384,559,o),
(384,496,cs),
(384,430,o),
(332,399,o),
(259,399,cs),
(219,399,l),
(219,304,l),
(271,304,ls),
(344,304,o),
(410,269,o),
(410,194,cs),
(410,127,o),
(357,86,o),
(285,86,cs),
(217,86,o),
(164,126,o),
(152,194,c),
(38,194,l),
(45,84,o),
(132,-10,o),
(285,-10,cs)
);
}
);
width = 560;
},
{
layerId = "25766E5E-5561-4FF8-A834-795F30B85D44";
shapes = (
{
closed = 1;
nodes = (
(417,-10,o),
(517,68,o),
(517,181,cs),
(517,291,o),
(444,340,o),
(392,354,c),
(392,356,l),
(430,370,o),
(491,418,o),
(491,510,cs),
(491,623,o),
(405,691,o),
(283,691,cs),
(120,691,o),
(62,571,o),
(59,491,c),
(168,491,l),
(175,544,o),
(206,594,o),
(282,594,cs),
(338,594,o),
(384,559,o),
(384,496,cs),
(384,430,o),
(332,399,o),
(259,399,cs),
(219,399,l),
(219,304,l),
(271,304,ls),
(344,304,o),
(410,269,o),
(410,194,cs),
(410,127,o),
(357,86,o),
(285,86,cs),
(217,86,o),
(164,126,o),
(152,194,c),
(38,194,l),
(45,84,o),
(132,-10,o),
(285,-10,cs)
);
}
);
width = 560;
}
);
unicode = 51;
},
{
glyphname = four;
lastChange = "2025-07-15 02:38:07 +0000";
layers = (
{
layerId = "2374D0AB-F754-483B-81AF-B87FF6AEB1B2";
width = 600;
},
{
layerId = m01;
shapes = (
{
closed = 1;
nodes = (
(461,0,l),
(461,149,l),
(554,149,l),
(554,245,l),
(461,245,l),
(461,681,l),
(319,681,l),
(19,233,l),
(19,149,l),
(354,149,l),
(354,0,l)
);
},
{
closed = 1;
nodes = (
(131,246,l),
(141,254,o),
(156,274,o),
(169,294,cs),
(339,549,l),
(344,558,o),
(348,565,o),
(352,574,c),
(354,574,l),
(354,245,l),
(131,245,l)
);
}
);
width = 585;
},
{
layerId = "25766E5E-5561-4FF8-A834-795F30B85D44";
shapes = (
{
closed = 1;
nodes = (
(461,0,l),
(461,149,l),
(554,149,l),
(554,245,l),
(461,245,l),
(461,681,l),
(319,681,l),
(19,233,l),
(19,149,l),
(354,149,l),
(354,0,l)
);
},
{
closed = 1;
nodes = (
(131,246,l),
(141,254,o),
(156,274,o),
(169,294,cs),
(339,549,l),
(344,558,o),
(348,565,o),
(352,574,c),
(354,574,l),
(354,245,l),
(131,245,l)
);
}
);
width = 585;
}
);
unicode = 52;
},
{
glyphname = five;
lastChange = "2025-07-15 02:38:07 +0000";
layers = (
{
layerId = "2374D0AB-F754-483B-81AF-B87FF6AEB1B2";
width = 600;
},
{
layerId = m01;
shapes = (
{
closed = 1;
nodes = (
(414,-10,o),
(535,63,o),
(535,227,cs),
(535,378,o),
(423,446,o),
(331,446,cs),
(244,446,o),
(198,414,o),
(185,403,c),
(183,403,l),
(213,584,l),
(491,584,l),
(491,681,l),
(126,681,l),
(65,290,l),
(174,290,l),
(209,335,o),
(251,357,o),
(303,357,cs),
(369,357,o),
(429,307,o),
(429,220,cs),
(429,130,o),
(365,83,o),
(297,83,cs),
(230,83,o),
(172,121,o),
(162,192,c),
(49,192,l),
(59,79,o),
(149,-10,o),
(297,-10,cs)
);
}
);
width = 565;
},
{
layerId = "25766E5E-5561-4FF8-A834-795F30B85D44";
shapes = (
{
closed = 1;
nodes = (
(414,-10,o),
(535,63,o),
(535,227,cs),
(535,378,o),
(423,446,o),
(331,446,cs),
(244,446,o),
(198,414,o),
(185,403,c),
(183,403,l),
(213,584,l),
(491,584,l),
(491,681,l),
(126,681,l),
(65,290,l),
(174,290,l),
(209,335,o),
(251,357,o),
(303,357,cs),
(369,357,o),
(429,307,o),
(429,220,cs),
(429,130,o),
(365,83,o),
(297,83,cs),
(230,83,o),
(172,121,o),
(162,192,c),
(49,192,l),
(59,79,o),
(149,-10,o),
(297,-10,cs)
);
}
);
width = 565;
}
);
unicode = 53;
},
{
glyphname = six;
lastChange = "2025-07-15 02:38:07 +0000";
layers = (
{
layerId = "2374D0AB-F754-483B-81AF-B87FF6AEB1B2";
width = 600;
},
{
layerId = m01;
shapes = (
{
closed = 1;
nodes = (
(414,-10,o),
(513,87,o),
(513,215,cs),
(513,345,o),
(414,432,o),
(309,432,cs),
(277,432,o),
(252,425,o),
(231,413,c),
(229,415,l),
(390,681,l),
(270,681,l),
(120,406,ls),
(70,316,o),
(55,266,o),
(55,214,cs),
(55,87,o),
(154,-10,o),
(284,-10,cs)
);
},
{
closed = 1;
nodes = (
(213,86,o),
(161,140,o),
(161,214,cs),
(161,287,o),
(213,342,o),
(284,342,cs),
(354,342,o),
(407,287,o),
(407,214,cs),
(407,140,o),
(354,86,o),
(284,86,cs)
);
}
);
width = 542;
},
{
layerId = "25766E5E-5561-4FF8-A834-795F30B85D44";
shapes = (
{
closed = 1;
nodes = (
(414,-10,o),
(513,87,o),
(513,215,cs),
(513,345,o),
(414,432,o),
(309,432,cs),
(277,432,o),
(252,425,o),
(231,413,c),
(229,415,l),
(390,681,l),
(270,681,l),
(120,406,ls),
(70,316,o),
(55,266,o),
(55,214,cs),
(55,87,o),
(154,-10,o),
(284,-10,cs)
);
},
{
closed = 1;
nodes = (
(213,86,o),
(161,140,o),
(161,214,cs),
(161,287,o),
(213,342,o),
(284,342,cs),
(354,342,o),
(407,287,o),
(407,214,cs),
(407,140,o),
(354,86,o),
(284,86,cs)
);
}
);
width = 542;
}
);
unicode = 54;
},
{
glyphname = seven;
lastChange = "2025-07-15 02:38:07 +0000";
layers = (
{
layerId = "2374D0AB-F754-483B-81AF-B87FF6AEB1B2";
width = 600;
},
{
layerId = m01;
shapes = (
{
closed = 1;
nodes = (
(68,0,l),
(178,0,l),
(459,593,l),
(459,681,l),
(17,681,l),
(17,584,l),
(346,584,l),
(347,583,l),
(343,577,o),
(337,567,o),
(330,553,cs)
);
}
);
width = 477;
},
{
layerId = "25766E5E-5561-4FF8-A834-795F30B85D44";
shapes = (
{
closed = 1;
nodes = (
(68,0,l),
(178,0,l),
(459,593,l),
(459,681,l),
(17,681,l),
(17,584,l),
(346,584,l),
(347,583,l),
(343,577,o),
(337,567,o),
(330,553,cs)
);
}
);
width = 477;
}
);
unicode = 55;
},
{
glyphname = eight;
lastChange = "2025-07-15 02:38:07 +0000";
layers = (
{
layerId = "2374D0AB-F754-483B-81AF-B87FF6AEB1B2";
width = 600;
},
{
layerId = m01;
shapes = (
{
closed = 1;
nodes = (
(412,-10,o),
(517,71,o),
(517,192,cs),
(517,286,o),
(443,348,o),
(386,366,c),
(386,368,l),
(430,385,o),
(483,436,o),
(483,508,cs),
(483,610,o),
(407,691,o),
(280,691,cs),
(153,691,o),
(77,610,o),
(77,508,cs),
(77,436,o),
(131,385,o),
(174,368,c),
(174,366,l),
(117,348,o),
(43,286,o),
(43,192,cs),
(43,71,o),
(148,-10,o),
(280,-10,cs)
);
},
{
closed = 1;
nodes = (
(207,85,o),
(151,131,o),
(151,196,cs),
(151,263,o),
(207,316,o),
(280,316,cs),
(354,316,o),
(409,263,o),
(409,196,cs),
(409,131,o),
(353,85,o),
(280,85,cs)
);
},
{
closed = 1;
nodes = (
(222,411,o),
(183,452,o),
(183,505,cs),
(183,554,o),
(220,597,o),
(280,597,cs),
(340,597,o),
(377,554,o),
(377,505,cs),
(377,452,o),
(338,411,o),
(280,411,cs)
);
}
);
width = 560;
},
{
layerId = "25766E5E-5561-4FF8-A834-795F30B85D44";
shapes = (
{
closed = 1;
nodes = (
(412,-10,o),
(517,71,o),
(517,192,cs),
(517,286,o),
(443,348,o),
(386,366,c),
(386,368,l),
(430,385,o),
(483,436,o),
(483,508,cs),
(483,610,o),
(407,691,o),
(280,691,cs),
(153,691,o),
(77,610,o),
(77,508,cs),
(77,436,o),
(131,385,o),
(174,368,c),
(174,366,l),
(117,348,o),
(43,286,o),
(43,192,cs),
(43,71,o),
(148,-10,o),
(280,-10,cs)
);
},
{
closed = 1;
nodes = (
(207,85,o),
(151,131,o),
(151,196,cs),
(151,263,o),
(207,316,o),
(280,316,cs),
(354,316,o),
(409,263,o),
(409,196,cs),
(409,131,o),
(353,85,o),
(280,85,cs)
);
},
{
closed = 1;
nodes = (
(222,411,o),
(183,452,o),
(183,505,cs),
(183,554,o),
(220,597,o),
(280,597,cs),
(340,597,o),
(377,554,o),
(377,505,cs),
(377,452,o),
(338,411,o),
(280,411,cs)
);
}
);
width = 560;
}
);
unicode = 56;
},
{
glyphname = nine;
lastChange = "2025-07-15 02:38:07 +0000";
layers = (
{
layerId = "2374D0AB-F754-483B-81AF-B87FF6AEB1B2";
width = 600;
},
{
layerId = m01;
shapes = (
{
closed = 1;
nodes = (
(268,0,l),
(417,241,ls),
(472,330,o),
(500,395,o),
(500,463,cs),
(500,600,o),
(401,691,o),
(271,691,cs),
(141,691,o),
(42,593,o),
(42,465,cs),
(42,336,o),
(141,249,o),
(247,249,cs),
(275,249,o),
(302,255,o),
(319,267,c),
(321,265,l),
(145,0,l)
);
},
{
closed = 1;
nodes = (
(201,339,o),
(147,393,o),
(147,467,cs),
(147,540,o),
(201,595,o),
(271,595,cs),
(341,595,o),
(395,540,o),
(395,467,cs),
(395,393,o),
(341,339,o),
(271,339,cs)
);
}
);
width = 529;
},
{
layerId = "25766E5E-5561-4FF8-A834-795F30B85D44";
shapes = (
{
closed = 1;
nodes = (
(268,0,l),
(417,241,ls),
(472,330,o),
(500,395,o),
(500,463,cs),
(500,600,o),
(401,691,o),
(271,691,cs),
(141,691,o),
(42,593,o),
(42,465,cs),
(42,336,o),
(141,249,o),
(247,249,cs),
(275,249,o),
(302,255,o),
(319,267,c),
(321,265,l),
(145,0,l)
);
},
{
closed = 1;
nodes = (
(201,339,o),
(147,393,o),
(147,467,cs),
(147,540,o),
(201,595,o),
(271,595,cs),
(341,595,o),
(395,540,o),
(395,467,cs),
(395,393,o),
(341,339,o),
(271,339,cs)
);
}
);
width = 529;
}
);
unicode = 57;
},
{
glyphname = hyphen;
lastChange = "2025-07-15 02:38:07 +0000";
layers = (
{
layerId = "2374D0AB-F754-483B-81AF-B87FF6AEB1B2";
width = 600;
},
{
layerId = m01;
shapes = (
{
closed = 1;
nodes = (
(392,208,l),
(392,312,l),
(80,312,l),
(80,208,l)
);
}
);
width = 472;
},
{
layerId = "25766E5E-5561-4FF8-A834-795F30B85D44";
shapes = (
{
closed = 1;
nodes = (
(392,208,l),
(392,312,l),
(80,312,l),
(80,208,l)
);
}
);
width = 472;
}
);
unicode = 45;
},
{
glyphname = endash;
lastChange = "2025-07-15 02:38:07 +0000";
layers = (
{
layerId = "2374D0AB-F754-483B-81AF-B87FF6AEB1B2";
width = 600;
},
{
layerId = m01;
shapes = (
{
closed = 1;
nodes = (
(552,208,l),
(552,312,l),
(64,312,l),
(64,208,l)
);
}
);
width = 616;
},
{
layerId = "25766E5E-5561-4FF8-A834-795F30B85D44";
shapes = (
{
closed = 1;
nodes = (
(552,208,l),
(552,312,l),
(64,312,l),
(64,208,l)
);
}
);
width = 616;
}
);
unicode = 8211;
},
{
glyphname = emdash;
lastChange = "2025-07-15 02:38:07 +0000";
layers = (
{
layerId = "2374D0AB-F754-483B-81AF-B87FF6AEB1B2";
width = 600;
},
{
layerId = m01;
shapes = (
{
closed = 1;
nodes = (
(936,208,l),
(936,312,l),
(64,312,l),
(64,208,l)
);
}
);
width = 1000;
},
{
layerId = "25766E5E-5561-4FF8-A834-795F30B85D44";
shapes = (
{
closed = 1;
nodes = (
(936,208,l),
(936,312,l),
(64,312,l),
(64,208,l)
);
}
);
width = 1000;
}
);
unicode = 8212;
},
{
glyphname = quotesinglbase;
lastChange = "2025-07-15 02:38:07 +0000";
layers = (
{
layerId = "2374D0AB-F754-483B-81AF-B87FF6AEB1B2";
width = 600;
},
{
layerId = m01;
shapes = (
{
closed = 1;
nodes = (
(99,-34,o),
(99,-9,q),
(99,108,l),
(215,108,l),
(215,-19,l),
(215,-81,o),
(142,-158,o),
(83,-158,q),
(35,-158,l),
(35,-63,l),
(53,-63,l),
(74,-63,o)
);
}
);
userData = {
public.truetype.instructions = {
assembly = "NPUSHB[ ]	/* 34 values pushed */
0 0 2 0 133 3 1 2 1 1 2 89 3 1 2 2 1 98 0 1 2 1 82 0 0 0 11 0 10 35 19 4 9 24
CALL[ ]	/* CallFunction */";
formatVersion = "1";
id = "w270o74-63o99-34q99-9l99+108l215+108l215-19o215-81o142-158q83-158l35-158l35-63l53-63|";
};
};
width = 270;
},
{
layerId = "25766E5E-5561-4FF8-A834-795F30B85D44";
shapes = (
{
closed = 1;
nodes = (
(99,-34,o),
(99,-9,q),
(99,108,l),
(215,108,l),
(215,-19,l),
(215,-81,o),
(142,-158,o),
(83,-158,q),
(35,-158,l),
(35,-63,l),
(53,-63,l),
(74,-63,o)
);
}
);
userData = {
public.truetype.instructions = {
assembly = "NPUSHB[ ]	/* 34 values pushed */
0 0 2 0 133 3 1 2 1 1 2 89 3 1 2 2 1 98 0 1 2 1 82 0 0 0 11 0 10 35 19 4 9 24
CALL[ ]	/* CallFunction */";
formatVersion = "1";
id = "w270o74-63o99-34q99-9l99+108l215+108l215-19o215-81o142-158q83-158l35-158l35-63l53-63|";
};
};
width = 270;
}
);
unicode = 8218;
},
{
glyphname = quotedblleft;
lastChange = "2025-07-15 02:38:07 +0000";
layers = (
{
layerId = "2374D0AB-F754-483B-81AF-B87FF6AEB1B2";
width = 600;
},
{
layerId = m01;
shapes = (
{
closed = 1;
nodes = (
(151,597,o),
(151,572,q),
(151,455,l),
(35,455,l),
(35,582,l),
(35,644,o),
(109,721,o),
(168,721,q),
(215,721,l),
(215,626,l),
(197,626,l),
(176,626,o)
);
},
{
closed = 1;
nodes = (
(367,597,o),
(367,572,q),
(367,455,l),
(251,455,l),
(251,582,l),
(251,644,o),
(324,721,o),
(383,721,q),
(430,721,l),
(430,626,l),
(412,626,l),
(392,626,o)
);
}
);
userData = {
public.truetype.instructions = {
assembly = "NPUSHB[ ]	/* 42 values pushed */
3 1 0 2 0 134 7 5 6 3 2 2 1 97 4 1 1 1 47 2 78 12 12 0 0 12 23 12 22 21 19 16 15 0 11 0 10 35 19 8 9 24
CALL[ ]	/* CallFunction */";
formatVersion = "1";
id = fd5d74a1918eaae8fb3bacad0731fc55e219e8ef2fc1c95a5085b65163a45634c7baea4d9f2b92b9856ff6c57310d013921bb6145227e216bf7b5701bc359998;
};
};
width = 486;
},
{
layerId = "25766E5E-5561-4FF8-A834-795F30B85D44";
shapes = (
{
closed = 1;
nodes = (
(151,597,o),
(151,572,q),
(151,455,l),
(35,455,l),
(35,582,l),
(35,644,o),
(109,721,o),
(168,721,q),
(215,721,l),
(215,626,l),
(197,626,l),
(176,626,o)
);
},
{
closed = 1;
nodes = (
(367,597,o),
(367,572,q),
(367,455,l),
(251,455,l),
(251,582,l),
(251,644,o),
(324,721,o),
(383,721,q),
(430,721,l),
(430,626,l),
(412,626,l),
(392,626,o)
);
}
);
userData = {
public.truetype.instructions = {
assembly = "NPUSHB[ ]	/* 42 values pushed */
3 1 0 2 0 134 7 5 6 3 2 2 1 97 4 1 1 1 47 2 78 12 12 0 0 12 23 12 22 21 19 16 15 0 11 0 10 35 19 8 9 24
CALL[ ]	/* CallFunction */";
formatVersion = "1";
id = fd5d74a1918eaae8fb3bacad0731fc55e219e8ef2fc1c95a5085b65163a45634c7baea4d9f2b92b9856ff6c57310d013921bb6145227e216bf7b5701bc359998;
};
};
width = 486;
}
);
unicode = 8220;
},
{
glyphname = quoteleft;
lastChange = "2025-07-15 02:38:07 +0000";
layers = (
{
layerId = "2374D0AB-F754-483B-81AF-B87FF6AEB1B2";
width = 600;
},
{
layerId = m01;
shapes = (
{
closed = 1;
nodes = (
(151,597,o),
(151,572,q),
(151,455,l),
(35,455,l),
(35,582,l),
(35,644,o),
(109,721,o),
(168,721,q),
(215,721,l),
(215,626,l),
(197,626,l),
(176,626,o)
);
}
);
userData = {
public.truetype.instructions = {
assembly = "NPUSHB[ ]	/* 28 values pushed */
0 0 2 0 134 3 1 2 2 1 97 0 1 1 47 2 78 0 0 0 11 0 10 35 19 4 9 24
CALL[ ]	/* CallFunction */";
formatVersion = "1";
id = "w270o176+626o151+597q151+572l151+455l35+455l35+582o35+644o109+721q168+721l215+721l215+626l197+626|";
};
};
width = 270;
},
{
layerId = "25766E5E-5561-4FF8-A834-795F30B85D44";
shapes = (
{
closed = 1;
nodes = (
(151,597,o),
(151,572,q),
(151,455,l),
(35,455,l),
(35,582,l),
(35,644,o),
(109,721,o),
(168,721,q),
(215,721,l),
(215,626,l),
(197,626,l),
(176,626,o)
);
}
);
userData = {
public.truetype.instructions = {
assembly = "NPUSHB[ ]	/* 28 values pushed */
0 0 2 0 134 3 1 2 2 1 97 0 1 1 47 2 78 0 0 0 11 0 10 35 19 4 9 24
CALL[ ]	/* CallFunction */";
formatVersion = "1";
id = "w270o176+626o151+597q151+572l151+455l35+455l35+582o35+644o109+721q168+721l215+721l215+626l197+626|";
};
};
width = 270;
}
);
unicode = 8216;
},
{
glyphname = quotesingle;
lastChange = "2025-07-15 02:38:07 +0000";
layers = (
{
layerId = "2374D0AB-F754-483B-81AF-B87FF6AEB1B2";
width = 600;
},
{
layerId = m01;
shapes = (
{
closed = 1;
nodes = (
(189,720,l),
(163,476,l),
(88,476,l),
(61,720,l)
);
}
);
userData = {
public.truetype.instructions = {
assembly = "NPUSHB[ ]	/* 16 values pushed */
0 1 1 0 95 0 0 0 47 1 78 17 16 2 9 24
CALL[ ]	/* CallFunction */";
formatVersion = "1";
id = "w251l61+720l189+720l163+476l88+476|";
};
};
width = 251;
},
{
layerId = "25766E5E-5561-4FF8-A834-795F30B85D44";
shapes = (
{
closed = 1;
nodes = (
(189,720,l),
(163,476,l),
(88,476,l),
(61,720,l)
);
}
);
userData = {
public.truetype.instructions = {
assembly = "NPUSHB[ ]	/* 16 values pushed */
0 1 1 0 95 0 0 0 47 1 78 17 16 2 9 24
CALL[ ]	/* CallFunction */";
formatVersion = "1";
id = "w251l61+720l189+720l163+476l88+476|";
};
};
width = 251;
}
);
unicode = 39;
},
{
glyphname = period;
lastChange = "2025-07-15 02:38:07 +0000";
layers = (
{
layerId = "2374D0AB-F754-483B-81AF-B87FF6AEB1B2";
width = 600;
},
{
layerId = m01;
shapes = (
{
closed = 1;
nodes = (
(67,109,o),
(114,157,o),
(182,157,o),
(230,109,o),
(230,41,o),
(182,-6,o),
(114,-6,o),
(67,41,o)
);
}
);
userData = {
public.truetype.instructions = {
formatVersion = "1";
id = "w296o67+41o67+109o114+157o182+157o230+109o230+41o182-6o114-6|";
};
};
width = 296;
},
{
layerId = "25766E5E-5561-4FF8-A834-795F30B85D44";
shapes = (
{
closed = 1;
nodes = (
(67,109,o),
(114,157,o),
(182,157,o),
(230,109,o),
(230,41,o),
(182,-6,o),
(114,-6,o),
(67,41,o)
);
}
);
userData = {
public.truetype.instructions = {
formatVersion = "1";
id = "w296o67+41o67+109o114+157o182+157o230+109o230+41o182-6o114-6|";
};
};
width = 296;
}
);
unicode = 46;
},
{
glyphname = comma;
lastChange = "2025-07-15 02:38:07 +0000";
layers = (
{
layerId = "2374D0AB-F754-483B-81AF-B87FF6AEB1B2";
width = 600;
},
{
layerId = m01;
shapes = (
{
closed = 1;
nodes = (
(115,-23,o),
(115,3,q),
(115,129,l),
(220,129,l),
(220,-8,l),
(220,-75,o),
(150,-148,o),
(86,-148,q),
(35,-148,l),
(35,-66,l),
(55,-66,l),
(77,-66,o)
);
}
);
userData = {
public.truetype.instructions = {
assembly = "NPUSHB[ ]	/* 34 values pushed */
0 0 2 0 133 3 1 2 1 1 2 89 3 1 2 2 1 98 0 1 2 1 82 0 0 0 11 0 10 35 19 4 9 24
CALL[ ]	/* CallFunction */";
formatVersion = "1";
id = "w285o77-56o105-23q105+3l105+129l230+129l230-8o230-75o150-158q86-158l35-158l35-56l55-56|";
};
};
width = 285;
},
{
layerId = "25766E5E-5561-4FF8-A834-795F30B85D44";
shapes = (
{
closed = 1;
nodes = (
(115,-23,o),
(115,3,q),
(115,129,l),
(220,129,l),
(220,-8,l),
(220,-75,o),
(150,-148,o),
(86,-148,q),
(35,-148,l),
(35,-66,l),
(55,-66,l),
(77,-66,o)
);
}
);
userData = {
public.truetype.instructions = {
assembly = "NPUSHB[ ]	/* 34 values pushed */
0 0 2 0 133 3 1 2 1 1 2 89 3 1 2 2 1 98 0 1 2 1 82 0 0 0 11 0 10 35 19 4 9 24
CALL[ ]	/* CallFunction */";
formatVersion = "1";
id = "w285o77-56o105-23q105+3l105+129l230+129l230-8o230-75o150-158q86-158l35-158l35-56l55-56|";
};
};
width = 285;
}
);
unicode = 44;
},
{
glyphname = exclam;
lastChange = "2025-07-15 02:38:07 +0000";
layers = (
{
layerId = "2374D0AB-F754-483B-81AF-B87FF6AEB1B2";
width = 600;
},
{
layerId = m01;
shapes = (
{
closed = 1;
nodes = (
(199,208,l),
(199,728,l),
(83,728,l),
(83,208,l)
);
},
{
closed = 1;
nodes = (
(179,-10,o),
(210,21,o),
(210,59,cs),
(210,97,o),
(179,128,o),
(141,128,cs),
(103,128,o),
(72,97,o),
(72,59,cs),
(72,21,o),
(103,-10,o),
(141,-10,cs)
);
}
);
width = 282;
},
{
layerId = "25766E5E-5561-4FF8-A834-795F30B85D44";
shapes = (
{
closed = 1;
nodes = (
(199,208,l),
(199,728,l),
(83,728,l),
(83,208,l)
);
},
{
closed = 1;
nodes = (
(179,-10,o),
(210,21,o),
(210,59,cs),
(210,97,o),
(179,128,o),
(141,128,cs),
(103,128,o),
(72,97,o),
(72,59,cs),
(72,21,o),
(103,-10,o),
(141,-10,cs)
);
}
);
width = 282;
}
);
unicode = 33;
},
{
glyphname = question;
lastChange = "2025-07-15 02:38:07 +0000";
layers = (
{
layerId = "2374D0AB-F754-483B-81AF-B87FF6AEB1B2";
width = 600;
},
{
layerId = m01;
shapes = (
{
closed = 1;
nodes = (
(87,264,o),
(87,329,q),
(87,379,o),
(134.399,437.461,o),
(200,464,o),
(253,476,q),
(311,490,o),
(365,518,o),
(365,551,q),
(365,587,o),
(313,627,o),
(267,627,q),
(216,627,o),
(155,570,o),
(154,520,q),
(35,520,l),
(37,583,o),
(96.484,678.272,o),
(200,730,o),
(267,730,q),
(333,730,o),
(434.645,684.421,o),
(491,601,o),
(491,547,q),
(491,491,o),
(435.669,425.164,o),
(361,397,o),
(302,384,q),
(254,375,o),
(209,354,o),
(209,334,q),
(209,294,o),
(260,294,q),
(361,294,l),
(361,196,l),
(248,196,l),
(174,196,o)
);
},
{
closed = 1;
nodes = (
(296,-10,o),
(327,21,o),
(327,59,cs),
(327,97,o),
(296,128,o),
(258,128,cs),
(220,128,o),
(189,97,o),
(189,59,cs),
(189,21,o),
(220,-10,o),
(258,-10,cs)
);
}
);
userData = {
public.truetype.instructions = {
assembly = "NPUSHB[ ]	/* 55 values pushed */
0 1 0 3 0 1 3 128 0 3 7 1 4 6 3 4 103 0 0 0 2 97 0 2 2 51 77 0 6 6 5 95 0 5 5 46 5 78 0 0 40 39 38 37 0 36 0 35 43 35 18 43 8 9 26
CALL[ ]	/* CallFunction */";
formatVersion = "1";
id = 743be96b8cf4794f4d4f4b9e96a36bc0af03664a0f7579beb8c4c90cd0d7153ff7762fc9e05a8265e5ffd772517cce63bcee034ff1c185a388fd41edd26e2f5c;
};
};
width = 527;
},
{
layerId = "25766E5E-5561-4FF8-A834-795F30B85D44";
shapes = (
{
closed = 1;
nodes = (
(87,264,o),
(87,329,q),
(87,379,o),
(134.399,437.461,o),
(200,464,o),
(253,476,q),
(311,490,o),
(365,518,o),
(365,551,q),
(365,587,o),
(313,627,o),
(267,627,q),
(216,627,o),
(155,570,o),
(154,520,q),
(35,520,l),
(37,583,o),
(96.484,678.272,o),
(200,730,o),
(267,730,q),
(333,730,o),
(434.645,684.421,o),
(491,601,o),
(491,547,q),
(491,491,o),
(435.669,425.164,o),
(361,397,o),
(302,384,q),
(254,375,o),
(209,354,o),
(209,334,q),
(209,294,o),
(260,294,q),
(361,294,l),
(361,196,l),
(248,196,l),
(174,196,o)
);
},
{
closed = 1;
nodes = (
(296,-10,o),
(327,21,o),
(327,59,cs),
(327,97,o),
(296,128,o),
(258,128,cs),
(220,128,o),
(189,97,o),
(189,59,cs),
(189,21,o),
(220,-10,o),
(258,-10,cs)
);
}
);
userData = {
public.truetype.instructions = {
assembly = "NPUSHB[ ]	/* 55 values pushed */
0 1 0 3 0 1 3 128 0 3 7 1 4 6 3 4 103 0 0 0 2 97 0 2 2 51 77 0 6 6 5 95 0 5 5 46 5 78 0 0 40 39 38 37 0 36 0 35 43 35 18 43 8 9 26
CALL[ ]	/* CallFunction */";
formatVersion = "1";
id = 743be96b8cf4794f4d4f4b9e96a36bc0af03664a0f7579beb8c4c90cd0d7153ff7762fc9e05a8265e5ffd772517cce63bcee034ff1c185a388fd41edd26e2f5c;
};
};
width = 527;
}
);
unicode = 63;
},
{
glyphname = periodcentered;
lastChange = "2025-07-15 02:38:07 +0000";
layers = (
{
layerId = "2374D0AB-F754-483B-81AF-B87FF6AEB1B2";
width = 600;
},
{
layerId = m01;
shapes = (
{
closed = 1;
nodes = (
(65,330,o),
(111,376,o),
(143,376,q),
(176,376,o),
(222,330,o),
(222,298,q),
(222,265,o),
(176,221,o),
(110,221,o),
(65,265,o),
(65,298,q)
);
}
);
userData = {
public.truetype.instructions = {
formatVersion = "1";
id = "w284q65+298o65+330o111+376q143+376o176+376o222+330q222+298o222+265o176+221o110+221o65+265|";
};
};
width = 284;
},
{
layerId = "25766E5E-5561-4FF8-A834-795F30B85D44";
shapes = (
{
closed = 1;
nodes = (
(65,330,o),
(111,376,o),
(143,376,q),
(176,376,o),
(222,330,o),
(222,298,q),
(222,265,o),
(176,221,o),
(110,221,o),
(65,265,o),
(65,298,q)
);
}
);
userData = {
public.truetype.instructions = {
formatVersion = "1";
id = "w284q65+298o65+330o111+376q143+376o176+376o222+330q222+298o222+265o176+221o110+221o65+265|";
};
};
width = 284;
}
);
unicode = 183;
},
{
glyphname = bullet;
lastChange = "2025-07-15 02:38:07 +0000";
layers = (
{
layerId = "2374D0AB-F754-483B-81AF-B87FF6AEB1B2";
width = 600;
},
{
layerId = m01;
shapes = (
{
closed = 1;
nodes = (
(40,217,o),
(40,266,q),
(40,315,o),
(103,378,o),
(152,378,q),
(200,378,o),
(264,315,o),
(264,266,q),
(264,217,o),
(200,153,o),
(152,153,q),
(103,153,o)
);
}
);
userData = {
public.truetype.instructions = {
assembly = "NPUSHB[ ]	/* 27 values pushed */
0 0 1 1 0 89 0 0 0 1 97 2 1 1 0 1 81 0 0 0 11 0 10 36 3 9 23
CALL[ ]	/* CallFunction */";
formatVersion = "1";
id = "w304o103+148o35+217q35+266o35+315o103+383q152+383o200+383o269+315q269+266o269+217o200+148q152+148|";
};
};
width = 304;
},
{
layerId = "25766E5E-5561-4FF8-A834-795F30B85D44";
shapes = (
{
closed = 1;
nodes = (
(40,217,o),
(40,266,q),
(40,315,o),
(103,378,o),
(152,378,q),
(200,378,o),
(264,315,o),
(264,266,q),
(264,217,o),
(200,153,o),
(152,153,q),
(103,153,o)
);
}
);
userData = {
public.truetype.instructions = {
assembly = "NPUSHB[ ]	/* 27 values pushed */
0 0 1 1 0 89 0 0 0 1 97 2 1 1 0 1 81 0 0 0 11 0 10 36 3 9 23
CALL[ ]	/* CallFunction */";
formatVersion = "1";
id = "w304o103+148o35+217q35+266o35+315o103+383q152+383o200+383o269+315q269+266o269+217o200+148q152+148|";
};
};
width = 304;
}
);
unicode = 8226;
},
{
glyphname = asterisk;
lastChange = "2025-07-15 02:38:07 +0000";
layers = (
{
layerId = "2374D0AB-F754-483B-81AF-B87FF6AEB1B2";
width = 600;
},
{
layerId = m01;
shapes = (
{
closed = 1;
nodes = (
(163,507,l),
(38,549,l),
(65,630,l),
(189,588,l),
(189,720,l),
(275,720,l),
(275,588,l),
(399,630,l),
(426,549,l),
(301,507,l),
(379,401,l),
(310,351,l),
(232,458,l),
(154,351,l),
(85,401,l)
);
}
);
userData = {
public.truetype.instructions = {
assembly = "NPUSHB[ ]	/* 25 values pushed */
14 13 12 11 10 9 8 7 4 3 2 1 12 0 73 0 0 0 47 0 78 21 1 9 23
CALL[ ]	/* CallFunction */";
formatVersion = "1";
id = "w464l85+401l163+507l38+549l65+630l189+588l189+720l275+720l275+588l399+630l426+549l301+507l379+401l310+351l232+458l154+351|";
};
};
width = 464;
},
{
layerId = "25766E5E-5561-4FF8-A834-795F30B85D44";
shapes = (
{
closed = 1;
nodes = (
(163,507,l),
(38,549,l),
(65,630,l),
(189,588,l),
(189,720,l),
(275,720,l),
(275,588,l),
(399,630,l),
(426,549,l),
(301,507,l),
(379,401,l),
(310,351,l),
(232,458,l),
(154,351,l),
(85,401,l)
);
}
);
userData = {
public.truetype.instructions = {
assembly = "NPUSHB[ ]	/* 25 values pushed */
14 13 12 11 10 9 8 7 4 3 2 1 12 0 73 0 0 0 47 0 78 21 1 9 23
CALL[ ]	/* CallFunction */";
formatVersion = "1";
id = "w464l85+401l163+507l38+549l65+630l189+588l189+720l275+720l275+588l399+630l426+549l301+507l379+401l310+351l232+458l154+351|";
};
};
width = 464;
}
);
unicode = 42;
},
{
glyphname = numbersign;
lastChange = "2025-07-15 02:38:07 +0000";
layers = (
{
layerId = "2374D0AB-F754-483B-81AF-B87FF6AEB1B2";
width = 600;
},
{
layerId = m01;
shapes = (
{
closed = 1;
nodes = (
(50,196,l),
(50,287,l),
(190,287,l),
(219,413,l),
(93,413,l),
(93,504,l),
(238,504,l),
(280,700,l),
(376,700,l),
(333,504,l),
(465,504,l),
(508,700,l),
(604,700,l),
(560,504,l),
(682,504,l),
(682,413,l),
(542,413,l),
(514,287,l),
(640,287,l),
(640,196,l),
(494,196,l),
(451,0,l),
(357,0,l),
(399,196,l),
(267,196,l),
(223,0,l),
(128,0,l),
(172,196,l)
);
},
{
closed = 1;
nodes = (
(447,413,l),
(313,413,l),
(286,287,l),
(418,287,l)
);
}
);
userData = {
public.truetype.instructions = {
assembly = "NPUSHB[ ]	/* 70 values pushed */
16 15 9 3 1 12 10 2 0 11 1 0 103 6 1 4 4 45 77 14 8 2 2 2 3 95 7 5 2 3 3 48 77 13 1 11 11 46 11 78 28 28 28 31 28 31 30 29 27 26 25 24 23 22 21 20 19 18 17 17 17 17 17 17 17 17 16 17 9 31
CALL[ ]	/* CallFunction */";
formatVersion = "1";
id = 19fee77f8d7771af38986f6886d8deba78c9344c6fb5e58880f82aeaee4940d6d1b40afe3d5b832f89f1ff7d4ef9991092af8a609c2b0fc4166e58291002a17d;
};
};
width = 732;
},
{
layerId = "25766E5E-5561-4FF8-A834-795F30B85D44";
shapes = (
{
closed = 1;
nodes = (
(50,196,l),
(50,287,l),
(190,287,l),
(219,413,l),
(93,413,l),
(93,504,l),
(238,504,l),
(280,700,l),
(376,700,l),
(333,504,l),
(465,504,l),
(508,700,l),
(604,700,l),
(560,504,l),
(682,504,l),
(682,413,l),
(542,413,l),
(514,287,l),
(640,287,l),
(640,196,l),
(494,196,l),
(451,0,l),
(357,0,l),
(399,196,l),
(267,196,l),
(223,0,l),
(128,0,l),
(172,196,l)
);
},
{
closed = 1;
nodes = (
(447,413,l),
(313,413,l),
(286,287,l),
(418,287,l)
);
}
);
userData = {
public.truetype.instructions = {
assembly = "NPUSHB[ ]	/* 70 values pushed */
16 15 9 3 1 12 10 2 0 11 1 0 103 6 1 4 4 45 77 14 8 2 2 2 3 95 7 5 2 3 3 48 77 13 1 11 11 46 11 78 28 28 28 31 28 31 30 29 27 26 25 24 23 22 21 20 19 18 17 17 17 17 17 17 17 17 16 17 9 31
CALL[ ]	/* CallFunction */";
formatVersion = "1";
id = 19fee77f8d7771af38986f6886d8deba78c9344c6fb5e58880f82aeaee4940d6d1b40afe3d5b832f89f1ff7d4ef9991092af8a609c2b0fc4166e58291002a17d;
};
};
width = 732;
}
);
unicode = 35;
},
